<svg xmlns="http://www.w3.org/2000/svg" viewBox="0 0 1000 1000"><path fill="#b8383d" d="M219 613L187 613L269 386L312 386L394 613L350 613L327 552L241 552L219 613M284 432L251 524L316 524L284 432M405 611L405 573Q453 589 480 589Q500 589 515 581Q522 576 525 571Q528 566 528 558Q528 546 521 540Q512 530 491 522L472 514Q441 498 420 479Q405 463 405 443Q405 413 430 398Q455 380 497 380Q535 380 569 388L569 424Q527 412 502 412Q484 412 472 418Q461 427 461 437Q461 447 469 453Q480 461 499 471L517 479Q556 498 571 514Q586 530 586 552Q586 568 579 581Q572 594 558 601Q533 619 482 619Q445 619 405 611M636 613L603 613L603 388L661 388L711 548L763 388L813 388L813 613L772 613L772 441L722 597L687 597L636 439"/></svg>
