<svg xmlns="http://www.w3.org/2000/svg" viewBox="0 0 1000 1000"><path fill="#a074c4" d="M513 744L509 744Q505 744 497 738L491 734Q397 653 347 612L344 610L341 609L209 609Q193 609 188 594L188 416Q188 404 194.50 397.50Q201 391 213 391L344 391Q350 391 350 387L494 262Q503 255 512 255.50Q521 256 528 266Q531 269 531 278L531 719Q531 736 519 741L516 741L513 744M812 503L813 503Q813 522 809 531Q805 588 781 644Q761 694 731 728Q727 736 713 741Q700 741 691 731Q686 727 686 720.50Q686 714 691 709Q692 706 697 700Q702 694 703 691Q750 625 759 550Q778 408 691 297Q679 280 691 269Q698 259 708.50 259Q719 259 728 269Q766 317 781 359Q805 415 809 478L809 500Q811 500 812 502L812 503M728 497Q728 591 675 669Q671 676 656 681Q644 681 634 672Q630 667 630 660.50Q630 654 634 647Q634 645 636 643.50Q638 642 637 641Q672 594 681 531Q695 434 634 350Q628 337 628 331Q631 323 634 319Q637 315 644 312Q659 307 668.50 320.50Q678 334 697 366Q725 427 725 475Q728 488 728 497M641 500Q641 562 609 606Q605 615 596.50 617.50Q588 620 579 615Q570 610 567.50 601.50Q565 593 572 584Q588 560 594 522Q598 495 592 467.50Q586 440 572 416Q567 406 569 397.50Q571 389 578 384.50Q585 380 595 382Q605 384 609 391Q623 412 634 450L636 458Q641 487 641 500"/></svg>
