<svg xmlns="http://www.w3.org/2000/svg" viewBox="0 0 1000 1000"><path fill="#cbcb41" d="M699 387L757 334Q781 296 781 251L781 244Q781 235 777 227Q761 195 723 180Q693 160 605 156Q505 170 425 205Q389 230 356 248L356 253Q357 253 359 252Q361 251 362 251Q366 251 366 253L371 251L373 251L373 253L371 256Q368 259 362 262Q356 265 336 280L323 290L330 295L325 292Q325 295 319 295L319 297L323 303Q319 303 316 301Q297 304 286 323L286 332L287 331Q295 323 301 319L301 325L299 325L295 328L295 330L299 336L299 339Q302 334 306 330L323 312L334 306Q343 309 343 312L347 312Q399 274 451 255L451 259Q449 264 442 270Q440 273 438 273Q438 277 442 281Q421 349 395 400Q320 597 219 782Q219 783 220 785.50Q221 788 221 789L227 787Q234 784 243 780L245 780L245 784L249 784L254 782L258 782L258 791L251 807Q238 828 236 842L236 844L243 844L249 835Q275 805 286 780L308 773Q330 767 347 760L351 758Q395 741 416 730Q434 730 452.50 723.50Q471 717 486 705L486 703L475 708L473 708L473 703Q501 700 518 688Q567 651 616 615Q717 540 714 470Q695 439 675 422L668 413Q668 405 699 387M594 554L534 602Q486 633 462 646Q403 682 338 705L330 708L327 708Q329 701 377 604L423 512Q488 502 549 475L564 473Q582 469 599 474Q616 479 629 490L629 499Q613 544 594 554M631 354Q608 377 579 393Q520 412 477 435Q475 435 473 433L466 433L466 429Q466 410 477 396Q484 357 492 354L542 242Q542 237 550.50 232.50Q559 228 575 227L581 227L581 233Q603 229 621 229Q647 226 662.50 231Q678 236 681 248L681 253L686 253L686 238L690 238Q704 245 707 257L707 262Q707 275 697 286Q692 286 692 279L688 279L688 292Q659 339 644 339Q639 347 631 354"/></svg>
