<svg xmlns="http://www.w3.org/2000/svg" viewBox="0 0 1000 1000"><path fill="#519aba" d="M672 562L406 562L469 406L572 406L594 359L500 359L469 312L500 266L594 266L572 219L469 219L400 312L428 359L241 594Q231 606 225 623Q219 640 219 656Q219 691 241.50 718Q264 745 297 750L467 766Q643 781 672 781Q701 781 726 766Q751 751 766 726Q781 701 781 672Q781 643 766 617.50Q751 592 726 577Q701 562 672 562M313 703Q294 703 280 689Q266 675 266 656Q266 637 280 623Q294 609 312.50 609Q331 609 345 623Q359 637 359 656Q359 675 345 689Q331 703 313 703M672 734Q646 734 627.50 716Q609 698 609 672Q609 646 627.50 627.50Q646 609 672 609Q698 609 716 627.50Q734 646 734 672Q734 698 716 716Q698 734 672 734"/></svg>
