<svg xmlns="http://www.w3.org/2000/svg" viewBox="0 0 1000 1000"><path fill="#e37933" d="M784 484Q781 483 773 479Q761 474 753 472Q711 460 627 447L584 441Q580 441 570 439Q560 437 553 438Q556 425 562 420Q568 415 584 412Q586 414 587.50 418.50Q589 423 590 425.50Q591 428 593 429Q595 430 597 428L619 428Q647 423 666 408Q685 393 697 366Q703 341 706 331Q712 288 737 262L744 256Q721 250 691 257.50Q661 265 634 284Q605 306 591 337Q588 336 580 334.50Q572 333 569 332Q566 331 564.50 329Q563 327 563 325Q543 272 494 241Q476 230 451 226Q429 222 406 225Q309 239 247 316Q217 353 202.50 398Q188 443 191 491Q195 588 253 675Q263 689 291 716L303 728Q320 738 339 736.50Q358 735 372 722Q373 720 376.50 715.50Q380 711 381 709Q381 711 382.50 712.50Q384 714 384 716Q387 721 392 735Q397 751 400 756Q405 766 418.50 771Q432 776 444 772Q448 767 453 772Q472 781 491 772Q493 771 497 767Q502 763 506 761.50Q510 760 519 762L525 763Q539 760 546 754Q556 746 556 731L557 730Q557 728 559 728Q564 726 568 721.50Q572 717 572 712Q576 699 572 681L562 664Q549 638 541 628L538 625Q556 631 569 634Q597 640 612 625Q614 625 615.50 626.50Q617 628 619 628Q637 640 660 636Q683 632 697 616L703 616Q732 620 753 603Q759 597 762 593Q766 587 766 581L766 578Q790 576 801 565Q812 554 812 531Q810 513 804 502Q798 491 784 484M647 400Q628 409 603 409L602 409Q600 408 599 405.50Q598 403 596.50 397Q595 391 594.50 388Q594 385 594.50 384.50Q595 384 597 384Q605 384 607 386Q609 388 609 397Q614 390 616 389Q618 388 625 391Q628 392 634.50 393.50Q641 395 644 397L649 400Q649 400 647 400M606 334Q619 311 653 284Q679 269 703 269Q697 275 694 281Q687 290 683 313L681 325Q675 356 669 372Q669 376 665 380Q663 383 663 384Q655 377 639 365L631 359L631 353L635 346Q647 326 654 316Q665 300 678 291Q657 299 643 316Q633 327 619 353L603 344Q603 342 604.50 339Q606 336 606 334M522 387Q522 360 534 344Q534 342 538 341L541 341Q586 345 622 372Q625 373 629.50 378Q634 383 637 384Q634 383 626.50 381.50Q619 380 616 378Q588 372 566 381Q550 393 522 387Q528 394 535.50 395Q543 396 553 394Q561 394 573 389L578 388Q578 389 577 392L575 394Q565 401 537 412L528 416L525 416Q522 406 522 387M428 312Q450 312 467 329Q484 346 484 369Q484 392 468 408.50Q452 425 428.50 425Q405 425 388.50 408.50Q372 392 372 368Q372 344 388 328Q404 312 428 312M572 503Q597 509 616 509L672 519Q677 519 678 521.50Q679 524 675 528Q670 535 660 539Q650 543 641 541L634 541Q637 545 635 551Q633 557 628 559Q616 572 597 572Q594 572 586 570.50Q578 569 575 569Q573 578 563 583Q553 588 539.50 587Q526 586 516 578Q522 597 525 609L525 619Q520 654 495 677.50Q470 701 434 703Q366 708 309 666Q260 634 234 578Q234 577 232.50 575Q231 573 231 572Q256 578 266 581Q285 584 298 582Q316 579 331 569L338 569Q374 579 406 575Q431 571 452 557Q471 544 491 522Q500 513 513 488Q519 478 531 466L538 466L616 475L649 481Q694 490 719 494L720 494Q722 495 722 497L690 499Q611 506 572 503M428 400Q443 400 452.50 391.50Q462 383 462.50 369Q463 355 453 346Q443 337 428.50 337Q414 337 404 347Q394 357 394 369Q394 381 403.50 390.50Q413 400 428 400M409 344Q411 342 416.50 340.50Q422 339 425 337L441 344Q445 346 445 350.50Q445 355 440.50 359.50Q436 364 426 364Q416 364 406 359Q401 348 409 344"/></svg>
