<svg xmlns="http://www.w3.org/2000/svg" viewBox="0 0 1000 1000"><path fill="#cc3e44" d="M844 594L525 594L525 687L844 687L844 594M219 687L219 312L313 312L313 687L219 687M156 437L156 344L219 344L219 437L156 437M438 500Q438 460 464.50 433Q491 406 531 406Q562 406 585.50 423.50Q609 441 619 469L716 469Q708 425 682 389.50Q656 354 616.50 333Q577 312 531 312Q481 312 437.50 337.50Q394 363 369 406Q344 449 344 500Q344 551 369 594Q394 637 437.50 662Q481 687 531.50 687Q582 687 626 661.50Q670 636 694 594L531 594Q491 594 464.50 567Q438 540 438 500"/></svg>
