<svg xmlns="http://www.w3.org/2000/svg" viewBox="0 0 1000 1000"><path fill="#498ba7" d="M222 497Q222 437 240.50 390.50Q259 344 290 313Q321 282 366 262Q401 247 456 247Q503 247 540.50 265.50Q578 284 603 309L534 387L526 381Q510 368 500 366L490 363Q470 356 456 356Q434 356 416 366Q394 376 381 393.50Q368 411 359 438.50Q350 466 350 497Q350 569 381 600Q398 619 417.50 628.50Q437 638 462 638Q487 638 506 628Q527 618 541 600L609 678Q580 711 541 731Q503 750 456 750Q413 750 366 734Q323 720 291 688Q276 673 264 649Q256 634 244 603Q222 564 222 497M673 573L681 534L650 534L638 609L600 609L613 534L575 534L575 500L622 500L628 450L588 450L588 416L634 416L647 341L684 341L672 416L703 416L716 341L753 341L741 416L781 416L781 450L731 450L725 500L766 500L766 534L716 534L703 609L666 609Q666 611 673 573M663 453L656 503L688 503L694 453"/></svg>
