<svg xmlns="http://www.w3.org/2000/svg" viewBox="0 0 1000 1000"><path fill="#cc3e44" d="M841 509L659 531Q669 564 692 650L713 728L841 712L841 509M481 756L441 553L209 578L209 791L481 756M634 347Q622 372 612 381L631 444L838 419L822 395Q802 367 780 343Q749 310 719 291Q681 267 644 256Q655 297 634 347M409 447Q356 442 322 403L209 491L416 466Q414 462 412.50 456Q411 450 409 447M579 469L556 384Q554 377 554.50 372Q555 367 559 362Q572 344 578 331Q600 282 575 244Q548 199 494 209Q487 209 485 215Q483 221 488 228L516 284L516 287Q517 289 516.50 290Q516 291 513 291Q475 316 459 325Q455 330 450 325Q438 312 419 287Q415 284 409 279L403 275L398 274Q393 274 391 278Q378 299 375 325Q371 355 384 375Q408 412 450 412Q456 412 460 414Q464 416 466 422L480 485Q539 732 544 763Q546 777 555 786.50Q564 796 575 794L585 792Q605 790 614 787Q630 782 641 772Q658 755 653 731Q646 718 579 469"/></svg>
