<svg xmlns="http://www.w3.org/2000/svg" viewBox="0 0 1000 1000"><path fill="#cc3e44" d="M500 453L500 550L463 550Q411 547 385 544Q343 539 309 528Q284 522 241 503Q228 500 209 488Q198 478 193 468Q188 458 188 444L188 362Q188 344 203 328Q223 308 263 297Q327 274 397 269L405 268Q484 262 525 262Q636 262 734 294Q747 298 771 311L791 322Q816 337 816 369L816 447Q816 478 794 491Q784 498 763 508L753 513Q751 515 744 513L741 513Q591 475 513 456Q506 453 500 453M500 659L500 741L438 741Q344 735 281 716Q268 712 248 703L216 687Q188 669 188 634L188 562Q206 587 238 603Q256 612 297 625Q384 647 488 647Q495 647 497.50 649.50Q500 652 500 659M813 559L813 647Q812 664 794 678Q763 697 747 703Q745 705 738 704L731 703L506 647Q504 647 502 644L500 641L500 553Q511 556 531.50 561Q552 566 563 569Q592 577 650 591Q708 605 738 612L750 612L762 605Q781 594 790 587Q804 575 813 559"/></svg>
