<svg xmlns="http://www.w3.org/2000/svg" viewBox="0 0 1000 1000"><path fill="#6d8086" d="M484 219L522 219Q530 220 544 221.50Q558 223 566 225Q622 239 669 272Q707 301 728 334Q769 388 778 459Q778 462 779.50 469Q781 476 781 481L781 522Q780 528 778.50 539.50Q777 551 775 556Q760 617 728.50 662Q697 707 644 741Q614 757 591 765Q562 776 534 778Q531 778 525 779.50Q519 781 516 781L475 781Q469 780 457.50 778.50Q446 777 441 775Q380 760 335 728.50Q290 697 256 644Q240 614 232 591Q221 562 219 534Q221 532 220 525.50Q219 519 219 516L219 478Q220 470 221.50 456Q223 442 225 434Q239 378 272 331Q301 289 356 256Q406 226 459 222Q464 222 472 220.50Q480 219 484 219M266 506Q267 569 299.50 622Q332 675 386 706.50Q440 738 504 737.50Q568 737 622.50 704.50Q677 672 708 616Q739 560 738 494Q736 432 703 379Q670 326 616 296Q559 264 494 266Q432 267 379 299Q326 331 296 385Q264 441 266 506M513 499L513 500Q516 497 523.50 492.50Q531 488 534 484Q591 447 616 428L619 426Q622 424 622 422Q626 417 632.50 418.50Q639 420 643.50 424.50Q648 429 647 435.50Q646 442 641 447L590 482Q556 505 541 519L506 544Q499 548 491.50 545Q484 542 484 534L484 331Q484 316 497 316Q502 313 507.50 317Q513 321 513 328L513 500"/></svg>
