<svg xmlns="http://www.w3.org/2000/svg" viewBox="0 0 1000 1000"><path fill="#7fae42" d="M491 512L481 531Q457 579 453 609Q450 616 450 634L450 647Q473 656 500 656Q516 656 547 650L538 641Q526 621 515 589Q506 563 491 512M419 384Q390 406 373 438Q356 470 356 506.50Q356 543 373 574.50Q390 606 419 628Q423 611 433 589Q439 575 456 543Q474 507 484 484Q483 481 481.50 475Q480 469 478 466Q462 423 444 400Q430 395 419 384M634 678Q597 672 584 669Q547 687 506 687Q457 687 416.50 663Q376 639 352 598Q328 557 328 509Q328 471 345 435Q360 402 388 375Q378 372 356 372Q313 372 280 396Q243 424 225 481Q222 494 222 512Q222 589 259.50 653.50Q297 718 361.50 756Q426 794 503 794Q572 794 634 761Q694 730 734 675Q692 684 656 684Q647 678 634 678M503 225Q434 225 373.50 257Q313 289 275 344Q310 322 353 322Q374 322 396 327Q413 332 425 337Q427 339 430 340.50Q433 342 434 344Q471 328 506 328Q555 328 596 352.50Q637 377 660.50 417.50Q684 458 684 506Q684 576 631 634L656 634Q715 634 747 606Q776 583 784 541Q784 534 786 521Q788 511 787 506Q786 429 747.50 364.50Q709 300 646 263Q580 225 503 225"/></svg>
