<svg xmlns="http://www.w3.org/2000/svg" viewBox="0 0 1000 1000"><path fill="#a074c4" d="M574 164L574 163Q509 163 453.50 199.50Q398 236 371.50 296.50Q345 357 354.50 422.50Q364 488 408 538L190 788L220 815L437 566Q480 600 533 610Q586 620 637.50 604.50Q689 589 728 551Q767 513 784.50 461.50Q802 410 794.50 356.50Q787 303 755.50 258.50Q724 214 676 189Q628 164 574 164M574 573Q519 573 473 541.50Q427 510 406 458.50Q385 407 396 352.50Q407 298 446 258.50Q485 219 539 208Q593 197 644 218.50Q695 240 725.50 286.50Q756 333 756 388Q756 425 742.50 459Q729 493 703.50 519Q678 545 644.50 559Q611 573 574 573M575 204Q521 204 475 233.50Q429 263 406.50 313Q384 363 392.50 417Q401 471 437 512L256 718L282 741L461 536Q497 564 541 572Q585 580 627.50 567.50Q670 555 702.50 523.50Q735 492 749.50 449.50Q764 407 757.50 362.50Q751 318 725 281.50Q699 245 659.50 224.50Q620 204 575 204M575 541Q529 541 491 515.50Q453 490 435.50 447.50Q418 405 427 360Q436 315 468.50 282Q501 249 546 240Q591 231 633 249Q675 267 701 305Q731 350 725.50 404Q720 458 682 497Q661 518 633 529.50Q605 541 575 541M247 836L176 774L423 494L493 556"/></svg>
