<svg xmlns="http://www.w3.org/2000/svg" viewBox="0 0 1000 1000"><path fill="#cbcb41" d="M525 284Q517 286 509 290L453 316Q434 325 412.50 327Q391 329 384 321Q377 313 385.50 308Q394 303 416 303Q452 303 438 294Q424 285 398.50 289.50Q373 294 366 306Q363 313 363.50 317Q364 321 369 328Q381 341 394 345Q407 349 431 347Q450 347 462.50 343.50Q475 340 494 328Q522 314 550 307.50Q578 301 597 303Q616 305 620 311.50Q624 318 613 325.50Q602 333 583.50 333.50Q565 334 556 325Q546 320 537 321Q528 322 528 330.50Q528 339 541.50 345Q555 351 575.50 352.50Q596 354 616 350Q638 345 646.50 332.50Q655 320 646.50 306Q638 292 616 284Q598 281 573 281Q542 280 525 284M259 325Q253 329 248.50 335Q244 341 244 344Q241 353 258 365.50Q275 378 303 386.50Q331 395 346 398Q366 402 403 406Q429 409 515.50 409Q602 409 625 406Q631 405 645 403.50Q659 402 662 400Q681 397 713 388Q748 378 756 372Q770 365 776.50 355Q783 345 778.50 337Q774 329 766.50 322Q759 315 754.50 315.50Q750 316 753 325Q756 337 735.50 349Q715 361 677.50 369.50Q640 378 594 381Q568 384 510 384Q452 384 438 381L424 380Q403 378 394 378Q354 376 317.50 362.50Q281 349 278 337Q278 325 281 322Q286 307 259 325M250 409Q250 418 256 440L259 456L269 481L256 491Q238 509 231 519Q223 534 221 542Q219 552 219 572Q219 601 226 616Q233 631 256 647Q267 656 276 658Q283 659 303 659Q321 659 331.50 656.50Q342 654 340.50 651Q339 648 325 647Q309 645 289.50 627Q270 609 263 591Q256 575 257 553Q258 531 266 519Q269 513 275 506L288 525Q313 563 328 587Q342 606 352.50 625Q363 644 366 653Q375 679 391.50 693Q408 707 436.50 713Q465 719 513 719Q582 719 615 703.50Q648 688 662 650Q666 635 700 588Q737 536 744 516Q756 490 768.50 449.50Q781 409 781 397Q781 390 780 390Q779 390 772 397Q760 409 722.50 419.50Q685 430 634 434Q591 439 489.50 437Q388 435 356 428Q353 428 346 427Q336 425 331 425Q317 423 287 411Q262 400 253 394Q246 387 250 409"/></svg>
