<svg xmlns="http://www.w3.org/2000/svg" viewBox="0 0 1000 1000"><path fill="#498ba7" d="M338 453Q333 453 325 452Q305 451 297 453L287 454Q240 460 220 467Q185 479 166 506Q132 549 126.50 595Q121 641 144 687Q188 776 297 781L422 781Q538 777 609 681Q647 634 666 578Q673 559 683.50 551.50Q694 544 713 544Q729 546 760 544L784 544Q795 544 799 542Q806 539 806 531L808 520Q811 499 811 489Q810 472 803 459Q799 451 790 449Q785 448 773 449.50Q761 451 756 450L741 450Q728 450 724.50 445.50Q721 441 725 428Q756 356 822 334Q827 332 839.50 331Q852 330 857 327Q866 324 869 316Q874 309 875 297Q876 290 875 274L875 234Q875 219 856 219Q806 224 771 238Q729 255 703 287Q675 325 650 371Q630 410 609 462L603 481Q583 534 572 559Q552 600 528 628Q499 662 456 672Q371 685 278 666Q255 661 243 646Q231 631 231 608.50Q231 586 245 570Q259 554 284 547Q303 543 340 542Q366 542 379 541.50Q392 541 397.50 535.50Q403 530 403 516L403 498Q403 470 402 463Q400 453 392 451Q387 449 365 450L341 450Q343 452 342 452.50Q341 453 338 453"/></svg>
