<svg xmlns="http://www.w3.org/2000/svg" viewBox="0 0 1000 1000"><path fill="#6d8086" d="M766 541Q758 539 743 533L731 528Q731 517 729.50 497Q728 477 728 466Q728 464 729.50 462.50Q731 461 731 459L766 444Q775 439 778 430.50Q781 422 778 413L750 350Q745 340 736.50 336.50Q728 333 719 338L684 353Q678 353 678 350Q674 344 663 334L656 328Q653 325 645.50 318.50Q638 312 634 309Q638 303 642.50 290.50Q647 278 650 272Q655 260 650.50 251Q646 242 634 238Q621 235 591 225L575 219Q563 214 554 218.50Q545 223 541 234Q539 242 533 257L528 269Q517 269 497 270.50Q477 272 466 272Q464 272 462.50 270.50Q461 269 459 269L444 234Q439 225 430.50 222Q422 219 413 222L350 250Q340 255 336.50 263.50Q333 272 338 281L353 316Q353 322 350 322L343 328Q336 333 334 337Q330 342 322 351.50Q314 361 309 366Q302 364 287 358L275 353Q263 348 254 352.50Q245 357 241 369L236 381Q224 411 219 425Q214 439 217.50 447Q221 455 234 459Q242 461 257 467L269 472Q269 483 270.50 503Q272 523 272 534Q272 536 270.50 537.50Q269 539 269 541L234 556Q225 561 222 569.50Q219 578 222 587L250 650Q255 660 263.50 663.50Q272 667 281 662L316 647Q322 647 322 650Q326 656 337 666L344 672Q347 675 354.50 681Q362 687 366 691Q363 697 358 709.50Q353 722 350 728Q345 740 349.50 749Q354 758 366 763Q373 765 389 771Q412 781 425.50 785Q439 789 447 786Q455 783 459 769Q461 761 467 746L472 734Q483 734 503 732.50Q523 731 534 731Q536 731 537.50 732.50Q539 734 541 734L556 769Q561 778 569.50 781Q578 784 587 781L650 753Q660 748 663.50 739.50Q667 731 662 722L647 688Q647 681 650 681Q656 677 666 666L672 659Q675 656 681 648.50Q687 641 691 638Q698 639 713 646L725 650Q737 655 746 650.50Q755 646 759 634Q762 627 768 611Q778 588 781 575Q792 549 766 541M547 606Q502 625 458.50 608Q415 591 394 547Q375 502 392 458.50Q409 415 453 394Q498 375 541.50 392Q585 409 606 453Q625 498 608 541.50Q591 585 547 606"/></svg>
