<svg xmlns="http://www.w3.org/2000/svg" viewBox="0 0 1000 1000"><path fill="#498ba7" d="M259 484Q259 425 278 378Q297 331 327.50 300.50Q358 270 403 250Q438 234 494 234Q541 234 578.50 253Q616 272 641 297L572 375L564 369Q547 356 538 353L527 350Q507 344 494 344Q472 344 453 353Q432 364 419 381.50Q406 399 397 426Q388 453 388 484Q388 556 419 587Q435 607 455 616Q475 625 500 625Q525 625 544 616Q565 605 578 587L647 666Q618 699 578 719Q541 737 494 737Q450 737 403 722Q361 708 328 675Q314 660 301 636Q294 622 281 591Q259 547 259 484M569 456L569 403L525 403L525 456L475 456L475 500L525 500L525 556L569 556L569 500L619 500L619 456L569 456M816 453L756 453L756 391L703 391L703 453L644 453L644 506L703 506L703 572L756 572L756 506L816 506"/></svg>
