<svg xmlns="http://www.w3.org/2000/svg" viewBox="0 0 1000 1000"><path fill="#a074c4" d="M259 484Q259 411 299 349Q336 290 396.50 259Q457 228 520 236Q589 244 641 297L572 375Q527 345 490 344Q457 342 433 364Q411 384 400 419Q390 452 391 490.50Q392 529 405 562Q418 595 441 612Q467 632 499 627Q536 622 578 587L647 666Q595 725 526 737Q462 747 400 716Q338 685 300 624Q259 560 259 484M772 422L816 556L791 556L781 525L738 525L728 556L703 556L747 422L772 422M744 503L775 503L759 453L744 503M492 422L493 422L515 422L515 495Q515 512 516 517Q517 526 522.50 531Q528 536 537 536Q544 536 549 532.50Q554 529 556 523Q558 517 558 497L558 422L580 422L580 493Q580 520 577.50 532Q575 544 564.50 551.50Q554 559 537.50 559Q521 559 511 552.50Q501 546 496.50 534.50Q492 523 492 494L492 422M603 556L603 422L644 422Q659 422 667 425.50Q675 429 681.50 437Q688 445 692 458.50Q696 472 696 490Q696 508 691.50 521Q687 534 681.50 541.50Q676 549 667 552.50Q658 556 645 556L603 556M635 445L626 445L626 533L642 533Q653 533 658 531.50Q663 530 666 526Q669 522 671 513Q673 504 673 489Q673 474 671 466.50Q669 459 664 453.50Q659 448 654 446.50Q649 445 635 445"/></svg>
