<svg xmlns="http://www.w3.org/2000/svg" viewBox="0 0 1000 1000"><path fill="#dd4b78" d="M513 437Q449 437 402 434Q344 430 294 419Q282 417 260 408Q248 402 241 400Q228 396 228 381L228 272Q228 267 230.50 263Q233 259 237 259L247 255Q281 240 300 237Q352 225 416 221Q454 219 531 219Q636 219 719 241Q738 245 759 256Q772 260 772 275L772 384Q772 391 763 400Q738 412 725 416L681 423Q623 432 594 434Q580 436 552.50 436Q525 436 513 437M772 444L772 556Q772 561 766.50 566.50Q761 572 756 572L740 578Q710 588 697 591Q580 611 428 606L426 606Q376 603 350 600Q308 595 275 584Q262 581 238 569Q228 564 228 553L228 444Q290 465 364 473Q417 478 500 478Q575 481 636 474Q708 466 772 444M772 619L772 728Q772 733 766.50 738.50Q761 744 756 747Q731 756 719 760Q698 767 681 769Q490 797 303 766Q287 763 255 752L241 747Q234 745 231 740Q228 735 228 725L228 619Q288 640 362 648Q415 653 500 653Q583 653 636 648Q710 640 772 619"/></svg>
