<svg xmlns="http://www.w3.org/2000/svg" viewBox="0 0 1000 1000"><path fill="#dd4b78" d="M453 331L453 269L516 269L516 331L453 331M453 403L453 341L516 341L516 403L453 403M453 478L453 416L516 416L516 478L453 478M381 403L381 341L444 341L444 403L381 403M381 478L381 416L444 416L444 478L381 478M306 403L306 341L369 341L369 403L306 403M306 478L306 416L369 416L369 478L306 478M234 478L234 416L297 416L297 478L234 478M528 478L528 416L591 416L591 478L528 478M847 425Q822 419 806 419Q784 423 775 400Q766 377 747 362Q733 346 720 349.50Q707 353 700 372Q691 402 697 441Q702 462 697.50 469.50Q693 477 671.50 482Q650 487 404 488Q281 488 163 487Q158 487 155.50 496.50Q153 506 153 519Q153 536 156 559Q159 589 166 603Q190 657 229 689Q272 724 328 728L469 728Q534 726 592 695Q644 668 694 616Q734 570 756 522Q765 505 785 501Q805 497 815 494Q830 490 841 481Q844 475 853 466Q869 454 867.50 442Q866 430 847 425M381 584Q391 584 398.50 591Q406 598 406 609.50Q406 621 399.50 627.50Q393 634 382 634Q371 634 363.50 627.50Q356 621 356 609.50Q356 598 363.50 591Q371 584 381 584M228 653Q239 652 260 653Q288 654 300 650Q323 642 338.50 647.50Q354 653 366 675Q371 686 383 695Q390 700 408 710L419 716Q367 723 315 705.50Q263 688 228 653"/></svg>
