<svg xmlns="http://www.w3.org/2000/svg" viewBox="0 0 1000 1000"><path fill="#a074c4" d="M599 396L599 395Q607 403 622 418Q655 454 670 472Q694 504 705 534Q718 571 714 613Q708 691 670 743Q640 786 592 808Q554 826 512.50 827.50Q471 829 432 817Q380 802 345 766Q301 721 285 648Q271 584 290 500Q308 426 348 348Q386 276 432 222.50Q478 169 515 154Q512 187 518 230Q525 275 539 308Q528 307 518 307Q455 307 415.50 341Q376 375 376 429Q376 460 391.50 478Q407 496 454 516L483 528Q499 535 508 546Q517 557 517 572Q517 597 498 611Q479 625 447 625Q421 625 394.50 614.50Q368 604 345 585L331 659Q359 672 389 679Q416 685 444 685Q511 685 550.50 651.50Q590 618 590 562Q590 529 573.50 507Q557 485 521 469L491 456Q446 435 446 414Q446 393 464 379.50Q482 366 510 366Q538 366 560.50 373.50Q583 381 599 396M454 769Q495 778 511 778Q534 779 537 767Q544 736 368 717Q384 733 410.50 749.50Q437 766 454 769"/></svg>
