<svg xmlns="http://www.w3.org/2000/svg" viewBox="0 0 1000 1000"><path fill="#519aba" d="M370 514L388 525L500 591L503 591Q616 522 675 491L675 488Q654 450 625 406L503 203L478 244Q452 287 441 309Q433 323 415.50 351.50Q398 380 391 394Q353 456 334 484L334 488Q343 498 370 514M522 644Q519 645 511 650L500 656Q488 648 463 634Q438 620 424.50 612.50Q411 605 383 587.50Q355 570 341 562Q339 561 334 559L328 556L353 591Q397 653 422 684Q434 703 460.50 739Q487 775 500 794L500 795Q501 797 503 797L619 634Q628 622 647 595.50Q666 569 675 556Q589 602 522 644"/></svg>
