<svg xmlns="http://www.w3.org/2000/svg" viewBox="0 0 1000 1000"><path fill="#cc6d2e" d="M884 474L883 467Q879 442 877 429L867 450L865 450Q875 359 813 305L811 310Q801 297 777 280Q774 289 782 297Q811 323 828 353L831 358Q821 344 796 320L786 310Q758 280 713 266L700 262L711 272Q732 288 742 297Q754 309 764.50 322.50Q775 336 776 341Q751 321 728 319Q790 375 783 456Q774 439 760 430L764 468Q767 497 764 512L758 539L751 525L748 539Q742 561 739 572Q732 597 716 612Q712 615 707 618Q706 619 704 619L702 619L702 612L700 612Q697 612 696 613Q692 617 688 621Q681 631 669 638L671 630L645 636Q629 639 621 640Q608 642 597 640Q580 637 572 628L589 628Q586 625 583 624L553 617Q539 613 532.50 609Q526 605 515 593L513 591Q482 561 489 512Q491 497 493 490Q497 479 506 472Q496 465 485 465Q469 464 455 474.50Q441 485 436 501Q423 539 451 576L454 580Q436 565 429.50 539.50Q423 514 433 491Q441 472 457.50 462.50Q474 453 492.50 456Q511 459 525 473L530 479Q533 470 532.50 458.50Q532 447 527 440Q502 406 509.50 368.50Q517 331 547 302L551 298Q530 293 507 307Q484 321 462 351L466 327L458 326Q412 320 377 349Q343 376 328 425L316 468L317 468L325 456Q321 478 319 504Q317 530 318 543L324 525Q337 621 398 685Q428 716 477.50 744.50Q527 773 549 771L538 764Q544 765 555 768L565 770L598 778L616 778L607 770L638 768Q684 765 729 749Q742 745 754 734Q762 726 773 712Q777 706 782 703Q826 679 851 634Q863 613 857 586Q856 581 858 576L864 562Q871 548 873.50 540.50Q876 533 880 517L884 502L884 474M509 523L500 517Q496 539 506 561Q516 583 535 594Q537 595 540 595Q586 598 619 571L626 565Q635 557 649 559Q654 560 656.50 557.50Q659 555 658 550Q656 539 646 533Q615 517 586 533Q578 538 570 540Q551 545 529 534Q523 531 509 523M407 313L409 312Q411 310 412 309Q515 213 650 241Q672 246 715 259L743 267Q691 231 627 224.50Q563 218 502.50 239Q442 260 399 306L407 313M592 387Q593 381 591 379Q589 377 584 376Q574 375 553 375L548 375Q539 374 535 373Q527 372 522 366Q516 380 521 402Q526 424 537 434L549 427Q567 417 577 412Q591 405 592 387M401 320Q382 304 380 277Q365 293 358 314Q353 331 352 355Q375 331 401 320"/></svg>
