<svg xmlns="http://www.w3.org/2000/svg" viewBox="0 0 1000 1000"><path fill="#cc3e44" d="M681 606L659 572L556 572L544 600L541 607Q537 617 537 622Q538 636 547 641Q549 643 561 644L575 647L575 656L478 656L478 647Q497 641 503 634Q514 623 528 591L631 359L634 359L738 597Q752 630 763 641Q775 647 784 647L784 656L644 656L644 647L656 647Q669 647 681 641Q688 634 687 631L687 622L681 606M566 553L653 553L609 453L566 553M209 716L209 700Q230 700 245.50 678Q261 656 272 625L409 284L428 284L569 612Q581 642 598 675L603 684Q611 700 638 700L638 716L434 716L434 700Q462 700 475 694Q484 689 484 675Q484 670 481 660L478 653Q472 641 469 631L453 594L313 594L294 644Q284 667 284 678Q284 692 303 697Q309 700 334 700L334 716L209 716M322 569L444 569L384 425L378 425"/></svg>
