<svg xmlns="http://www.w3.org/2000/svg" viewBox="0 0 1000 1000"><path fill="#41535b" d="M219 506L219 497Q220 489 224 483Q227 479 233 472L241 463L397 306L398 307Q400 307 400 309L456 366Q461 370 456 375Q454 389 459 402Q464 415 475 422Q479 424 480 426.50Q481 429 481 434L481 572Q481 578 475 584Q463 592 457.50 605Q452 618 456.50 631.50Q461 645 472 654Q483 663 497 663Q511 663 522 655Q533 647 537.50 633.50Q542 620 538 607Q534 594 522 584Q518 582 517 579.50Q516 577 516 572L516 431L519 431L569 481Q571 483 571 486L572 488L572 506Q574 525 588.50 535.50Q603 546 622 543.50Q641 541 652.50 525Q664 509 659 491Q657 475 641.50 464.50Q626 454 609 456Q603 456 597 453L544 400Q541 397 541 391Q544 377 537 364Q530 351 517 344.50Q504 338 491 341Q481 341 481 338Q444 300 425 284Q420 280 425 275Q436 267 453 247L466 234Q494 206 522 234L759 472Q788 500 759 528L527 761Q518 770 514 773Q506 780 497 781L491 781L486 779Q474 774 469 769L450 750Q422 724 409 709L238 538Q236 533 229 525Q220 513 219 506"/></svg>
