<svg xmlns="http://www.w3.org/2000/svg" viewBox="0 0 1000 1000"><path fill="#bfc2c1" d="M556 644Q563 642 575 640.50Q587 639 594 638Q657 622 678 575Q705 521 691 459Q688 447 682 435Q677 427 666 413Q662 409 662 403Q672 365 659 331Q659 329 656.50 327Q654 325 650 325Q640 325 629 329Q622 331 609.50 337.50Q597 344 578 356Q575 359 569 359Q495 341 422 359Q416 359 412 356L405 352Q386 341 377 337Q362 330 347 328Q335 326 332.50 327.50Q330 329 328 341Q319 373 328 406L328 412Q308 435 301 465Q295 492 300 522Q302 528 303.50 539Q305 550 306 556Q318 589 341 608.50Q364 628 400 638Q425 644 441 647Q428 659 422 684Q422 687 419 688Q393 698 371 693Q347 687 331 663Q315 635 287 631L272 631Q267 631 266.50 634.50Q266 638 269 641L275 647Q300 662 309 691Q319 711 335 721.50Q351 732 375 734Q403 734 419 731L419 791Q419 798 412.50 801.50Q406 805 397 803Q359 789 322 766Q250 716 216 648Q180 579 184 494Q187 423 221 362.50Q255 302 311.50 261Q368 220 437 206Q517 191 594 216Q668 241 723 298.50Q778 356 800 434Q820 511 800 588Q780 663 727 720.50Q674 778 600 803Q588 808 581.50 803Q575 798 575 784L575 709Q578 689 574 674Q570 657 556 644"/></svg>
