<svg xmlns="http://www.w3.org/2000/svg" viewBox="0 0 1000 1000"><path fill="#519aba" d="M572 312Q546 312 528.50 299Q511 286 506 262Q502 236 522 216Q536 199 557.50 194.50Q579 190 600 197Q619 204 629.50 220Q640 236 638 256Q638 275 626.50 288.50Q615 302 594 309Q584 312 572 312M519 256Q519 265 524.50 271.50Q530 278 537.50 278Q545 278 550.50 271.50Q556 265 556 256Q556 247 550.50 240.50Q545 234 538 234Q530 237 524.50 243Q519 249 519 256M394 200L409 200Q437 200 455 214Q470 227 473.50 246.50Q477 266 469 284Q456 314 416 319Q393 323 373.50 311.50Q354 300 347 278Q338 253 351.50 230Q365 207 394 200M397 263L397 262Q397 253 391 247Q385 241 378 241Q371 241 365 247Q359 253 359 262.50Q359 272 365 278Q371 284 378 284Q385 284 391 278Q397 272 397 263M497 294Q509 294 515.50 296.50Q522 299 524.50 305Q527 311 525 316L525 319L528 322Q534 325 543 334Q552 343 547 353Q545 358 539 360Q533 362 528 359Q526 359 522 357Q518 355 516 353Q502 348 488 353Q475 359 469 359Q448 359 453 341Q453 328 466 322L467 321Q469 321 469 319Q467 312 469 308.50Q471 305 477 301L481 297Q484 294 497 294M494 328Q506 328 519 322Q532 313 522 303Q520 301 516 299Q512 297 509 297Q502 295 494 296.50Q486 298 481 303Q474 310 476 316.50Q478 323 487 325Q485 327 486.50 327.50Q488 328 494 328M522 362L522 378L522 384Q522 389 519.50 393Q517 397 512.50 397Q508 397 504 393.50Q500 390 500 387Q498 381 499 368L500 356Q500 354 500.50 353.50Q501 353 503 353Q513 353 519 359Q521 359 521 361L522 362M494 359L494 372L494 381Q494 387 488 394Q483 398 478.50 397Q474 396 471.50 390Q469 384 469 366Q469 363 469.50 362.50Q470 362 472.50 361.50Q475 361 481.50 359.50Q488 358 490.50 357Q493 356 493.50 356.50Q494 357 494 359M328 844L322 844L318 841Q312 836 309 831Q304 826 305 819.50Q306 813 311.50 806Q317 799 334 788L341 784Q307 755 297 706Q293 692 291 671Q291 659 291 634Q291 616 294 580Q297 544 297 525Q278 537 266 541L259 541Q250 531 250 522Q250 516 259 506Q273 497 291 497Q295 497 296 495.50Q297 494 297 491Q291 428 291 397Q285 343 294 300Q296 288 295 286Q294 284 284 281Q273 274 266.50 261.50Q260 249 263 237Q267 212 290.50 201.50Q314 191 338 203Q342 208 347 203Q371 183 397 175Q475 148 559 162Q607 168 638 194Q646 202 656 197Q675 187 694 193.50Q713 200 722 218.50Q731 237 724.50 253Q718 269 697 278L694 281L694 284Q706 326 706 381Q706 453 709 491Q709 495 710 496.50Q711 498 716 500Q731 500 747 516Q752 520 752 523.50Q752 527 747 534L747 538Q747 542 743 544.50Q739 547 734 547Q725 547 719 541Q717 541 714 539.50Q711 538 709 538L709 541Q709 550 711 568Q713 589 713 600Q713 634 712 650Q710 677 706 700Q696 753 666 788Q661 792 666 797Q682 808 691 825Q695 838 681 847Q677 851 673 850.50Q669 850 663 847L650 834L644 828Q638 821 634 819Q630 814 625 819Q579 844 516 844Q443 849 384 822L381 822Q378 825 368.50 829.50Q359 834 356 838Q350 833 342 836Q338 838 328 844M572 312Q588 312 594 309Q613 302 624 288.50Q635 275 638 256Q638 236 627.50 220Q617 204 599.50 197Q582 190 559 195.50Q536 201 522 216Q502 236 506 262Q511 286 528.50 299Q546 312 572 312M409 200L394 200Q365 205 351.50 227.50Q338 250 347 278Q354 299 373 310Q392 321 416 319Q452 314 469 284Q477 266 473.50 246.50Q470 227 455 214Q437 200 409 200M497 294Q484 294 478 297L476 298Q469 303 466.50 307Q464 311 466 319Q466 321 464 321L463 322Q450 328 450 341Q448 349 453 354Q458 359 465 359Q472 359 484 353Q498 348 513 353Q514 355 518.50 356.50Q523 358 525 359Q538 364 543.50 353.50Q549 343 541 334Q538 328 525 322Q522 322 522 316Q527 302 513 297Q509 294 497 294M522 384L522 378L522 362Q522 360 521.50 359.50Q521 359 518.50 358.50Q516 358 510.50 356.50Q505 355 503 354Q501 353 500.50 353.50Q500 354 500 356L499 365Q498 379 500 387Q500 392 504 395.50Q508 399 513 397Q517 397 519.50 393Q522 389 522 384M493 375L494 372L494 359Q494 357 493.50 356.50Q493 356 490 357Q487 358 481 359.50Q475 361 472.50 361.50Q470 362 469 364L469 366Q469 381 472 391Q474 396 478.50 397Q483 398 488 394Q494 387 494 381Q492 379 493 375M519 256Q519 247 524.50 240.50Q530 234 537.50 234Q545 234 550.50 240.50Q556 247 556 256Q556 265 550.50 271.50Q545 278 537.50 278Q530 278 524.50 271.50Q519 265 519 256M553 262Q553 256 550 256Q547 256 547 262.50Q547 269 550 269L550 267Q551 264 553 262M397 262Q397 272 391 278Q385 284 378 284Q371 284 365 278Q359 272 359 262.50Q359 253 365 247Q371 241 378 241Q385 241 391 247Q397 253 397 262M388 272Q389 272 390 270L391 269Q391 262 388.50 262Q386 262 385 264L384 266Q382 268 383.50 270Q385 272 388 272M494 328Q484 328 481 325Q472 323 471 317Q470 311 475 303Q491 293 503 297Q509 297 515 302.50Q521 308 520 314Q519 320 513 322Q506 328 494 328M553 262Q553 269 550 269Q547 269 547 262.50Q547 256 550 256L550 258Q551 261 553 262M388 272Q384 272 384 266Q384 262 384.50 261Q385 260 388 262Q391 262 391 269Q391 271 390.50 271.50Q390 272 388 272"/></svg>
