<svg xmlns="http://www.w3.org/2000/svg" viewBox="0 0 1000 1000"><path fill="#498ba7" d="M251 459L90 458Q87 458 88 456L98 444Q99 442 103 442L261 442Q264 442 263 444L255 456Q253 459 251 459M233 499L23 499Q20 499 21 497L31 485Q32 483 36 483L238 483Q241 483 240 485L237 496Q236 499 233 499M227 540L130 540Q127 540 129 537L135 526Q137 524 140 524L228 524Q231 524 231 527L230 537Q230 540 227 540M592 450Q576 454 550 461L516 470Q512 471 510 470.50Q508 470 504 465Q493 453 483 448Q443 429 403 455Q357 485 357 540Q358 566 374.50 586Q391 606 417 609Q462 615 493 580L505 564L419 564Q412 564 410 560Q408 556 411 550Q423 522 433 502Q437 495 444 495L606 495L606 507Q605 523 604 531Q596 580 567 618Q518 683 440 693Q372 702 321 664Q272 627 264 565Q256 495 302 435Q350 372 427 358Q494 346 544 380Q579 403 596 443Q600 448 592 450M751 695L739 696Q674 695 630 657Q590 622 582 571Q571 499 618 437Q642 405 672 387.50Q702 370 743 363Q817 350 870.50 386Q924 422 932 484Q943 572 881 635Q838 679 774 692Q766 693 751 695M844 516Q844 515 844 512Q844 505 843 502Q837 469 810.50 452Q784 435 752 443Q689 457 675 520Q669 546 680.50 569.50Q692 593 716 604Q752 620 788 601Q841 574 844 516"/></svg>
