<svg xmlns="http://www.w3.org/2000/svg" viewBox="0 0 1000 1000"><path fill="#b8383d" d="M443 235Q400 244 368 260Q369 295 372 322L364 327Q351 335 345 340L340 343Q326 355 319 361Q295 345 269 332Q238 366 219 398Q239 429 253 447L253 596L345 605Q349 605 351.50 607.50Q354 610 354 614L357 654L437 660L442 623Q443 619 445.50 616.50Q448 614 452 614L548 614Q552 614 554.50 616.50Q557 619 558 623L563 660L643 654L646 614Q646 610 648.50 607.50Q651 605 655 605L747 596L747 447Q764 425 781 398Q762 366 731 332Q705 345 681 361Q674 354 659 343L655 340Q649 335 636 327L627 322Q631 291 632 260Q600 244 557 235Q542 261 529 289Q515 287 500 287Q485 287 471 289Q458 261 443 235M371 453Q393 453 409 469Q425 485 425 507.50Q425 530 409 546.50Q393 563 370.50 563Q348 563 331.50 546.50Q315 530 315 507.50Q315 485 331.50 469Q348 453 371 453M629 453Q652 453 668 469Q684 485 684 507.50Q684 530 668 546.50Q652 563 629.50 563Q607 563 590.50 546.50Q574 530 574 507.50Q574 485 590.50 469Q607 453 629 453M500 485Q507 485 512.50 489.50Q518 494 518 501L518 552Q518 558 512.50 563Q507 568 500 568Q493 568 487.50 563Q482 558 482 552L482 501Q482 494 487.50 489.50Q493 485 500 485M747 616L665 624L662 664Q662 668 659.50 670.50Q657 673 653 673L555 680Q551 680 548.50 678Q546 676 545 672L540 634L460 634L455 672Q454 676 451 678.50Q448 681 444 680L347 673Q343 673 340.50 670.50Q338 668 338 664L335 624L253 616L253 636Q253 699 325 733Q392 765 500 765Q608 765 675 733Q747 699 747 636L747 616M412 511Q413 521 408 529.50Q403 538 394.50 543.50Q386 549 376 549Q366 549 357.50 543.50Q349 538 344 529.50Q339 521 339 511Q340 496 350.50 485.50Q361 475 376 475Q391 475 401.50 485.50Q412 496 412 511M588 511Q588 526 598.50 536.50Q609 547 624 547Q639 547 650 536.50Q661 526 661 511Q661 496 650 485Q639 474 624 474Q609 474 598.50 485Q588 496 588 511"/></svg>
