<svg xmlns="http://www.w3.org/2000/svg" viewBox="0 0 1000 1000"><path fill="#498ba7" d="M633 485L596 466Q596 457 603 450Q610 443 618.50 443Q627 443 633 447.50Q639 452 641.50 459Q644 466 641.50 473Q639 480 633 485M828 268Q806 245 776 237Q746 229 716 236Q686 243 662 265Q659 268 659 273Q659 278 662 281L677 296Q680 299 684.50 299.50Q689 300 692 297Q710 284 733 284Q761 284 781.50 304Q802 324 802 352.50Q802 381 782.50 400Q763 419 740 422Q720 423 693 413Q676 406 638 387Q578 357 543 345Q483 324 423 327Q351 330 273 367Q258 374 252.50 390.50Q247 407 256 421L305 507Q313 521 328.50 525Q344 529 358 521L359 521L358 521L380 509L403 494Q429 476 449 458Q452 455 456.50 454.50Q461 454 465 457Q469 460 469 465.50Q469 471 465 474Q431 505 392 529L370 542Q347 554 322.50 547.50Q298 541 285 519L239 438Q168 488 137 574Q103 666 124 778Q125 782 128 784.50Q131 787 135 787L188 787Q193 787 196 784Q199 781 200 777Q203 748 225 728.50Q247 709 276.50 709Q306 709 328 728.50Q350 748 354 777Q354 781 357.50 784Q361 787 365 787L417 787Q421 787 424 784Q427 781 428 777Q432 748 454 728.50Q476 709 505 709Q534 709 556 728.50Q578 748 582 777Q583 781 586 784Q589 787 593 787L644 787Q649 787 652.50 783.50Q656 780 656 776Q657 715 673 666Q693 608 732 579Q819 513 852 444Q878 389 866 336Q856 296 828 268"/></svg>
