<svg xmlns="http://www.w3.org/2000/svg" viewBox="0 0 1000 1000"><path fill="#8dc149" d="M484 712L475 712Q472 709 462 709L431 700Q424 695 422 690Q420 685 425 678Q431 669 438 650Q451 619 457 598Q464 568 459 541Q454 490 409 472.50Q364 455 341 431Q304 397 287 366Q267 328 269 284L731 284Q731 334 709 369Q671 437 591 472Q542 496 538 547Q535 576 546 610Q554 633 572 669Q579 682 576.50 687.50Q574 693 559 700L544 706Q539 708 528 709.50Q517 711 512 713L500 713Q495 707 484 712M875 416L875 434Q871 438 868 449Q867 454 866 456Q841 511 791 525Q759 533 759 572Q757 589 763 607Q766 619 775 641Q782 655 779 660.50Q776 666 759 669Q725 674 697 666Q682 661 691 647Q701 628 706 613Q712 594 709 575Q707 551 700.50 542.50Q694 534 678 531Q667 531 663 522Q664 522 665.50 520.50Q667 519 669 519Q738 493 778 422Q780 418 783.50 417Q787 416 794 416L875 416M125 441L125 412L203 412Q209 412 211 413Q213 414 216 419Q255 484 334 519Q333 520 330 521.50Q327 523 325 525Q306 532 298.50 544.50Q291 557 291 578Q291 603 306 634Q313 647 315.50 651Q318 655 317.50 658.50Q317 662 313 662Q270 681 228 662Q222 662 220.50 658.50Q219 655 222 647Q234 622 239 609Q246 588 243.50 569Q241 550 235 543Q229 536 213 531Q158 515 131 450Q130 449 129.50 445Q129 441 125 441"/></svg>
