<svg xmlns="http://www.w3.org/2000/svg" viewBox="0 0 1000 1000"><path fill="#f55385" d="M775 587Q773 587 771 585Q764 581 759 581L759 419Q769 419 775 413Q797 400 804 375.50Q811 351 798 328.50Q785 306 760 299.50Q735 293 713 306Q704 310 700 319L559 238Q559 232 561 227Q563 222 562 219Q563 193 544.50 174.50Q526 156 500 156Q474 156 456 174.50Q438 193 438 219Q438 231 441 238L300 319Q298 314 291 309L288 306Q265 293 240 299.50Q215 306 203 327.50Q191 349 197.50 373.50Q204 398 225 413L229 415Q236 419 241 419L241 581Q231 581 225 588Q203 600 196 624.50Q189 649 202 671.50Q215 694 240 700.50Q265 707 288 694Q296 690 300 681L441 763Q441 768 439.50 773Q438 778 437 781Q438 807 456 825.50Q474 844 500 844Q526 844 544.50 825.50Q563 807 563 781Q563 769 559 763L700 681Q703 688 716 694Q737 706 761.50 699.50Q786 693 800 672Q812 651 804 626.50Q796 602 775 587M684 628L316 628Q316 619 309 612Q306 606 300 600L484 278Q488 278 495 280L500 281Q513 281 516 278L700 600Q691 609 691 612L688 617Q684 624 684 628M547 259L684 341Q679 368 691 387Q705 411 728 416L728 578L725 578L544 262L547 259M313 344L456 259Q456 260 456 261L456 259L272 581L269 581L269 419Q292 414 306 391Q318 371 313 344M684 659L544 741Q525 722 500 722Q470 722 456 741L316 659L316 656L684 656"/></svg>
