<svg xmlns="http://www.w3.org/2000/svg" viewBox="0 0 1000 1000"><path fill="#e37933" d="M703 512Q706 511 713 508Q734 498 744 491Q757 481 762 468Q767 455 762 443Q757 431 744 425Q736 421 731 406Q727 379 741 356Q757 333 747 316Q737 299 706 297L703 297L700 294L700 292Q697 278 698 272Q700 261 712 253Q719 250 737 244Q744 241 753 241Q753 237 750 237Q735 220 712 213Q692 207 669 209Q643 212 622 225Q606 235 587 256Q583 265 572 259Q566 256 566 250Q566 247 567.50 240.50Q569 234 569 231L578 212Q567 212 556 217Q550 220 537 228L531 231Q524 220 523.50 210Q523 200 528 187Q505 195 493 205Q479 218 475 237Q470 233 469 225Q468 220 468 211L469 203L466 203Q464 203 462.50 204.50Q461 206 459 206Q436 225 431 250Q431 252 429.50 255Q428 258 428 259Q427 258 423.50 256.50Q420 255 419 253Q413 248 400.50 237.50Q388 227 381 222Q353 206 326.50 205.50Q300 205 272 219L247 244Q253 247 265.50 250Q278 253 284 256Q301 261 305.50 271Q310 281 303 300Q300 300 294 301.50Q288 303 284 303Q268 308 261 318.50Q254 329 256 344Q258 348 262.50 357.50Q267 367 269 372Q269 373 270.50 376.50Q272 380 272 381L272 413Q272 419 259 431L254 436Q243 446 241 453Q234 464 239 477Q244 490 256 500Q272 512 297 522Q322 534 322 559Q322 594 319 612Q319 615 317 623Q316 632 316 637Q300 625 291.50 612.50Q283 600 281 584Q253 608 253 634Q248 667 262 693Q277 721 313 734Q316 734 322 741Q350 787 406 797Q413 797 413 800Q437 815 464 820Q488 824 519 822Q539 819 549 816Q564 812 575 803Q577 802 581.50 800Q586 798 587 797Q639 788 669 744L678 734Q709 724 722 703Q733 688 737 667Q740 649 738 631Q735 618 728.50 607.50Q722 597 709 584Q705 601 697 613.50Q689 626 675 637Q672 609 672 556Q677 538 684 527.50Q691 517 703 512M581 678L441 678"/></svg>
