<svg xmlns="http://www.w3.org/2000/svg" viewBox="0 0 1000 1000"><path fill="#cc3e44" d="M628 712Q622 722 615.50 734.50Q609 747 609 756L600 853Q600 870 584 875Q573 878 550 886Q527 894 516 897L481 897Q480 897 475 895.50Q470 894 469 894Q431 881 416 872Q406 862 406 856Q403 831 403 784Q403 759 401 748Q397 728 384 716L384 712Q502 745 628 712M675 316Q673 337 668.50 381Q664 425 663 447L641 675Q641 704 609 709Q575 716 519 722Q449 727 388 709Q377 707 372 699Q369 694 366 681Q366 662 359 638L347 522Q347 520 345.50 517Q344 514 344 513Q342 480 332 417L325 366Q322 350 322 319Q504 357 675 316M322 297Q334 291 341 291L428 281Q430 281 436 278L441 275Q438 267 434 251Q430 232 426 222Q420 207 409 197Q397 184 373.50 157.50Q350 131 338 119Q348 108 352 105.50Q356 103 359.50 105Q363 107 372 116L384 128Q398 144 406 150Q459 193 469 259Q473 273 480 277Q487 281 500 281L656 291Q661 291 671 294L678 297Q653 316 569 323Q492 330 416 323Q337 315 322 297"/></svg>
