<svg xmlns="http://www.w3.org/2000/svg" viewBox="0 0 1000 1000"><path fill="#e37933" d="M494 156L494 353Q494 359 491 362L291 562L290 564Q289 566 288 566L288 366Q288 363 288 362.50Q288 362 291 362Q325 328 392 259.50Q459 191 494 156M741 444L744 444L744 644Q744 646 743.50 646.50Q743 647 741 647L538 850L534 850L534 650Q534 648 534.50 647.50Q535 647 538 647Q572 614 640 546Q708 478 744 444L741 444M538 397L734 397L534 597L534 400Q534 398 534.50 397.50Q535 397 538 397M497 406L497 603Q497 605 496.50 605.50Q496 606 494 606L297 606Q395 504 497 406M288 844Q288 843 288 843L288 844L288 647Q288 645 288 644.50Q288 644 291 644L487 644L422 710Q333 800 288 844"/></svg>
