<svg xmlns="http://www.w3.org/2000/svg" viewBox="0 0 1000 1000"><path fill="#cc3e44" d="M625 469Q611 463 609 447Q607 435 611 420L616 406L650 375L656 376Q663 376 668.50 372.50Q674 369 676 364Q678 359 678 354L678 350L704 321Q705 319 703 316Q701 313 694.50 306.50Q688 300 675 290.50Q662 281 651 277Q643 273 637 273.50Q631 274 628 276L597 300L591 300Q585 301 581 303Q577 305 579 312Q580 316 581 319L453 425L388 275L390 271Q393 265 392 259.50Q391 254 386 251L381 250Q371 232 364 225Q361 222 359 222Q326 214 302 228Q290 235 284 244Q282 246 285 256L288 266L286 267Q284 269 283.50 273Q283 277 284 284Q288 298 296 299Q300 299 303 297L388 484Q388 500 322 747Q353 780 403 781Q428 781 447 775Q447 744 484 563Q511 587 544 598Q566 606 584 606Q584 619 587 628L597 631Q609 633 621 633Q638 633 651 627Q667 619 678 603Q681 600 681 594L690 589Q700 583 707 575Q716 564 716 550Q716 521 682 498Q662 484 625 469M688 581Q690 572 689 563Q687 556 684 551L681 547L679 552Q676 558 669 564Q659 571 643.50 575Q628 579 617 578Q609 576 604 572L600 569L596 575Q591 583 588 591Q519 579 488 533L488 531Q484 522 491 500L584 431Q580 459 604 477Q616 487 628 491L647 498Q668 509 681 520Q700 536 700 553Q702 564 697 572Q694 578 688 581"/></svg>
