<svg xmlns="http://www.w3.org/2000/svg" viewBox="0 0 1000 1000"><path fill="#519aba" d="M355 331L355 130L898 130L898 331L355 331M101 230Q101 267 125 292.50Q149 318 183 318Q217 318 241.50 292.50Q266 267 266 230.50Q266 194 241.50 168.50Q217 143 183 143Q149 143 125 168.50Q101 194 101 230M357 606L357 405L900 405L900 606L357 606M103 505Q103 541 127 566.50Q151 592 185.50 592Q220 592 244 566.50Q268 541 268 505Q268 469 244 443.50Q220 418 185.50 418Q151 418 127 443.50Q103 469 103 505M357 881L357 679L900 679L900 881L357 881M103 780Q103 816 127 841.50Q151 867 185.50 867Q220 867 244 841.50Q268 816 268 780Q268 744 244 718.50Q220 693 185.50 693Q151 693 127 718.50Q103 744 103 780"/></svg>
