<svg xmlns="http://www.w3.org/2000/svg" viewBox="0 0 1000 1000"><path fill="#a074c4" d="M334 278L444 278Q462 305 498 359.50Q534 414 553 441L607 521Q695 652 738 719L628 719L625 716Q611 694 581.50 650Q552 606 538 584Q536 583 536 582.50Q536 582 536 582Q536 582 536 582.50Q536 583 534 584Q520 606 490.50 650Q461 694 447 716L444 719L334 719L334 716Q358 680 406.50 608Q455 536 478 500L478 497Q455 461 406.50 389Q358 317 334 281L334 278M299 720L297 722L188 722L188 719L198 702Q217 673 228 659L331 503L331 500Q257 381 188 281L297 281L300 284Q313 302 336 337.50Q359 373 372 391L393 422Q428 473 444 500L444 503Q416 546 357 632L297 722L299 720M813 406L813 481L616 481L569 409L569 406L813 406M813 519L813 594Q813 593 813 593L813 594L688 594L641 522L641 519"/></svg>
