<svg xmlns="http://www.w3.org/2000/svg" viewBox="0 0 1000 1000"><path fill="#3b4b52" d="M325 712L716 322Q722 309 722 303Q718 286 704.50 281.50Q691 277 675 287L612 350Q609 353 600 353Q546 332 493.50 332.50Q441 333 388 356Q290 399 222 503Q217 513 217.50 520.50Q218 528 225 534Q249 563 278 587Q297 603 334 628Q333 628 331.50 629.50Q330 631 328 631L312 646Q293 665 284 675Q274 686 278 703Q283 718 300 722Q316 722 325 712M400 562L378 584L372 584Q315 553 278 513Q332 442 394 409Q348 487 400 562M519 413Q514 428 497 428Q476 428 461 441Q446 454 444 475L444 484Q444 493 438.50 498Q433 503 424.50 503Q416 503 411 497Q406 491 406 481Q406 443 433 415.50Q460 388 497 388Q508 388 514.50 395.50Q521 403 519 413M775 500Q767 491 751.50 470.50Q736 450 728 441Q722 433 706.50 419Q691 405 684 397L647 434Q691 469 722 513Q716 519 713 519Q694 537 684 544Q586 623 475 609Q466 609 462 613Q450 625 444 634L425 653L428 653Q503 669 562 656Q684 635 775 528Q789 519 775 500"/></svg>
