<svg xmlns="http://www.w3.org/2000/svg" viewBox="0 0 1000 1000"><path fill="#cbcb41" d="M781 781L781 250L219 250L219 781L781 781M544 634L513 634Q508 634 506.50 633.50Q505 633 503 628Q500 617 492 593.50Q484 570 481 559Q481 557 478.50 555Q476 553 472 553L406 553Q402 553 399 557L397 559L378 628Q378 630 376 632Q374 634 372 634L338 634Q333 634 332 632.50Q331 631 331 628Q337 608 348 570Q359 526 366 506Q372 483 386 434.50Q400 386 406 363L408 360Q409 356 410.50 355Q412 354 416 356L463 356Q466 356 467.50 357Q469 358 469 363Q477 386 491 434.50Q505 483 513 506L550 628Q552 633 551.50 633.50Q551 634 544 634M638 619Q638 630 636 632Q634 634 622 634L600 634Q595 634 594.50 633.50Q594 633 594 628L594 425Q594 420 596 418Q598 416 600 419L628 419Q632 419 633 420.50Q634 422 634 425Q637 491 638 619M616 397Q606 397 598.50 390.50Q591 384 591 374.50Q591 365 597.50 357.50Q604 350 614.50 350Q625 350 633 356.50Q641 363 641 372Q641 384 634 390.50Q627 397 616 397M444 416Q444 413 442 413Q440 413 438 416Q438 417 436 420Q434 423 434 425Q422 481 412 506Q413 513 416 513L459 513Q464 513 464.50 511Q465 509 463 506Q458 457 444 416"/></svg>
