<svg xmlns="http://www.w3.org/2000/svg" viewBox="0 0 1000 1000"><path fill="#519aba" d="M812 472L813 472Q808 399 763 328Q730 279 684 246.50Q638 214 581 200Q548 191 519 191L469 191Q379 200 303 256Q216 329 194 431Q188 462 188 481L188 531Q198 618 241 678Q296 759 378 791Q435 811 481 816L531 816Q645 806 725 722Q790 657 809 566Q811 558 812.50 544Q814 530 816 522L816 488Q812 481 812 472M500 766Q428 766 367 729Q307 694 272.50 633Q238 572 238 500Q238 428 273.50 367Q309 306 370 271Q433 234 506 234Q577 236 637.50 271.50Q698 307 733 367Q769 428 768 500Q767 572 730.50 633Q694 694 634 729Q572 766 500 766M594 669L575 669Q566 669 559 666Q555 666 552 660Q551 657 550 656L550 453Q525 455 476.50 456.50Q428 458 403 459L403 484L434 484Q443 484 448 490Q453 496 453 506L453 650Q453 669 434 669L406 669L406 694L594 694L594 669M494 416Q517 416 532 400Q547 384 547 362.50Q547 341 531 325Q515 309 493 309Q471 309 456 325Q441 341 441 362.50Q441 384 457 400Q473 416 494 416"/></svg>
