<svg xmlns="http://www.w3.org/2000/svg" viewBox="0 0 1000 1000"><path fill="#519aba" d="M778 362Q797 344 797 310Q797 276 773.50 252Q750 228 716 228Q697 228 672 241Q599 187 500 187Q415 187 343 230Q272 272 230 343Q187 415 187.50 500Q188 585 230 657Q272 728 343 770Q415 813 500 812.50Q585 812 657 770Q728 728 770 657Q813 585 813 500Q813 426 778 362M500 762Q428 763 367 726Q307 692 272.50 631.50Q238 571 238 500Q238 429 273.50 369Q309 309 369 273.50Q429 238 500 238Q581 237 644 281Q638 300 637 309Q638 343 661 367Q684 391 719 391Q731 391 738 387Q763 443 763 500Q763 572 728 632.50Q693 693 632.50 727.50Q572 762 500 762M500 372Q465 372 435.50 389Q406 406 388 435Q370 464 369.50 499.50Q369 535 386 564.50Q403 594 432 612Q461 630 496.50 630.50Q532 631 561.50 614Q591 597 609 568Q627 539 627.50 503.50Q628 468 611 437.50Q594 407 564.50 389.50Q535 372 500 372"/></svg>
