<svg xmlns="http://www.w3.org/2000/svg" viewBox="0 0 1000 1000"><path fill="#b8383d" d="M813 622Q804 575 809 516Q813 497 813 487Q814 471 809 456Q803 437 797 400L796 394Q790 355 786 335Q779 301 769 275Q763 264 758 259Q751 253 741 253Q722 253 722 272Q723 286 728 315.50Q733 345 734 359Q736 370 740.50 390.50Q745 411 747 422L747 434Q738 434 734 431L724 424Q707 412 700 403Q677 370 663 337L648 303Q622 240 606 213Q593 191 573 182Q557 175 531 175Q519 175 519 187L521 197Q524 209 528 216Q542 241 568.50 292.50Q595 344 609 369Q617 381 635 405L641 412Q650 426 648 433Q646 440 631 447L628 447L625 450Q593 458 566 431Q540 411 509 406Q505 406 494 404.50Q483 403 478 403Q440 400 414 402Q380 405 350 416Q306 431 275 467Q249 498 231 547Q225 566 213 609Q209 603 206 600Q200 594 200 588L196 590Q190 596 188 600L188 616Q188 628 194 641Q230 728 256 803Q266 822 284 822Q337 827 375 819L431 809Q419 797 413 794Q413 792 414.50 790.50Q416 789 416 787L459 797Q538 826 613 822Q630 822 634 809L644 791Q651 761 675 725L676 723Q687 708 691 704Q695 700 700.50 700Q706 700 719 704L728 706Q756 716 779 703.50Q802 691 809 662Q813 650 813 622M778 584Q769 594 766 594Q714 599 684 584Q677 582 666 570L659 563Q678 556 684 553Q723 549 763 569Q764 569 767 570L769 572Q778 581 778 584"/></svg>
