<svg xmlns="http://www.w3.org/2000/svg" viewBox="0 0 1000 1000"><path fill="#e37933" d="M356 550L356 312L441 312L441 550Q441 627 405 662Q372 694 306 694Q291 694 273 691.50Q255 689 244 684L253 616Q272 625 297 625Q325 625 339 610Q356 592 356 550M497 672L516 600Q534 610 558 617Q585 625 609 625Q639 625 654 614.50Q669 604 669 585Q669 566 655 554.50Q641 543 606 531Q503 495 503 419Q503 369 541.50 337.50Q580 306 647 306Q700 306 744 325L725 394L719 391Q701 384 690 381Q669 375 647 375Q620 375 605.50 385.50Q591 396 591 413Q591 430 607 441Q619 450 659 466Q709 485 732.50 512Q756 539 756 578Q756 628 718 659Q677 694 603 694Q574 694 542 686Q517 681 497 672"/></svg>
