<svg xmlns="http://www.w3.org/2000/svg" viewBox="0 0 1000 1000"><path fill="#cc3e44" d="M638 394Q639 394 642 394L643 394Q668 392 700 372Q701 371 702 368L705 359Q709 350 701 343Q678 322 661 295Q659 291 656 284L653 277Q652 276 650 274L649 273L647 278Q647 281 648 286Q652 304 669 325Q679 338 689 349Q693 354 692 361Q691 368 684 370Q681 371 675 374L668 378Q651 385 642 385Q636 384 633 382Q630 380 629 375L627 366Q619 374 625 387Q626 392 629.50 393Q633 394 638 394M586 409L590 416Q598 424 613 429Q635 435 657 434L657 423Q657 416 651 416Q627 416 613 414Q607 414 595 411L586 409M574 305L573 305Q569 305 567.50 306.50Q566 308 567.50 312Q569 316 572 318Q588 325 602.50 319Q617 313 612 295Q610 287 601 275Q592 263 588.50 264.50Q585 266 593 287Q597 302 596.50 304.50Q596 307 574 305M543 261Q544 259 546 256Q561 226 588 232Q593 232 593 228Q593 224 590 221Q587 218 583 217Q571 214 560 222Q540 235 538 253Q538 260 543 261M666 415Q664 415 664 418L664 433Q679 433 691.50 423Q704 413 711 397L708 398L701 402Q679 414 666 415M698 313Q713 315 725 304Q728 301 726 297L720 285Q711 263 708 263.50Q705 264 707 274Q709 281 713 289Q715 295 714 296.50Q713 298 707 299L703 299Q691 298 689.50 301Q688 304 690.50 308.50Q693 313 698 313M827 655Q821 635 809 628.50Q797 622 776 627Q769 629 753 635L737 642L775 528Q783 504 764 489L744 473L732 463Q725 456 724.50 453Q724 450 729 441Q745 414 752.50 369Q760 324 759 283Q756 227 730 192Q689 136 625 129L615 128L593 128L567 132Q523 139 479 166L467 174Q444 188 435 213Q433 216 429 219Q409 233 408 260Q408 269 408 285L409 302Q409 304 407 308L404 317Q400 326 399 331Q394 370 419 398Q427 407 443 411Q447 413 448 417Q451 435 461 450Q464 454 465 459Q466 467 459 471L389 514Q385 516 382 518Q367 523 363 535L363 542L371 563Q383 595 388 612Q399 645 403 697L404 738Q405 748 414 752L475 779Q492 786 510 785Q514 785 516 789L538 859Q539 863 544 864L588 872L629 872L652 870Q665 867 674 864Q686 860 684 845Q683 838 684.50 836.50Q686 835 693 833Q707 829 710.50 823Q714 817 711 803L705 771L705 763Q705 758 710.50 756.50Q716 755 718 748Q718 745 720 744Q736 737 754 739Q756 739 756 739Q758 745 762 746.50Q766 748 773 748Q792 749 804 748Q826 746 834 719L837 705L837 693Q831 670 827 655M480 464L481 463Q467 435 463 413Q462 406 467 401Q472 396 473 393.50Q474 391 472 386Q472 386 470 386L467 387Q465 388 462 390L460 391Q447 400 434 391Q419 381 413 358Q408 339 417 325Q429 309 447 311Q458 313 464 325Q466 329 468 339Q469 343 473 343L484 341Q490 340 492 337Q494 334 492 327L487 304Q485 293 488 273L488 272Q493 248 494 236Q494 233 492 224L491 218Q491 213 492 210Q502 191 523 177Q544 163 567 151Q584 142 615 145Q646 148 677 164Q692 171 709 192L723 210Q714 209 709 210Q701 211 697 217Q695 220 694 228Q707 219 722.50 227Q738 235 743 248Q746 258 747 266Q751 311 748 340Q743 396 720 432Q705 457 694 466Q677 483 644 491Q622 496 603 490Q580 482 562 466Q548 454 528 426L524 421Q522 428 528 438Q537 454 558 475Q562 479 571 486L577 490L568 491Q519 494 509 491Q492 487 480 464M609 576L615 570Q624 579 637 604Q648 623 655 640L649 639Q641 637 637 635L584 613Q580 611 582 608L584 603Q590 593 594 588.50Q598 584 609 576M653 604Q649 596 640 580L633 567Q631 563 632 561Q634 556 638 557Q641 558 646 555Q654 551 663 557Q666 559 673 562L677 564Q677 581 675 604Q673 633 668 639L665 630Q657 612 653 604M636 850Q607 854 577 848Q568 847 554 843Q551 843 550 840L545 822Q536 787 532 769Q528 751 523 714L520 692L520 687L541 684Q589 677 624 679Q630 679 640 680L649 682Q652 682 653 686L661 820Q661 826 663 837L664 845L656 847Q643 849 636 850M692 818Q689 819 684 820L676 822L674 764L687 761Q688 761 689.50 761.50Q691 762 691 763L692 767Q697 794 699 808Q699 815 698.50 816Q698 817 692 818M682 638L682 637Q681 638 681 638Q681 638 681 638L688 583Q689 577 689 568Q689 563 695 561.50Q701 560 708.50 563.50Q716 567 719 573Q721 575 719 576L682 638M791 728L792 728Q791 728 789 728Q776 728 770 727L770 725L794 720L794 719L786 717L756 718Q752 719 751 718Q750 717 750 713L744 667Q743 665 745 664L767 654L782 648Q789 644 796 646Q803 648 806 656Q814 683 816 698Q818 710 811 718.50Q804 727 791 728M713 216L710 224Q712 224 714 225Q719 227 723 231Q730 236 735 244Q742 256 746 277L747 295L747 313Q747 335 744 353Q740 383 725 415Q713 438 697 459L683 476L719 446L744 395L754 334L754 274L745 223"/></svg>
