<svg xmlns="http://www.w3.org/2000/svg" viewBox="0 0 1000 1000"><path fill="#cc3e44" d="M843 275Q843 274 840 272L838 270L835 270L793 289Q709 325 599 332L509 338Q463 341 439 339Q401 336 370 322Q382 348 356 359L356 362L361 365Q368 369 372 370L377 371Q390 375 396 380Q410 390 414 403Q415 406 422 406L429 407Q448 408 457.50 407.50Q467 407 473.50 410Q480 413 479 419Q478 425 471 430.50Q464 436 456.50 438Q449 440 434 439L425 438Q418 437 415.50 439.50Q413 442 416 449Q417 453 418 463L419 469L477 469L473 551L428 548L426 536L450 518Q437 509 417.50 508.50Q398 508 376 517L381 521Q387 527 391 529Q400 536 399.50 540.50Q399 545 387 551Q397 568 399 590Q401 605 399 631Q399 633 396 637.50Q393 642 393 644L392 648Q388 663 391 666Q395 670 396 676Q397 680 396 687L396 694Q397 701 396 707Q394 719 407 718L431 718L425 672L465 672L460 713L510 713L510 668L537 666L537 710L567 710L567 698L568 685Q570 668 570 659Q570 654 568.50 645.50Q567 637 566 633L565 620Q563 605 563 597Q563 584 568 574Q576 560 565 553Q563 552 563.50 546.50Q564 541 566.50 537.50Q569 534 578 527L583 522Q550 509 517 522L538 548L535 552L506 552L506 467L664 458L659 546L633 546L633 528L658 509Q620 492 579 508L596 526Q602 532 601.50 535Q601 538 597 543L592 548Q595 551 594.50 558Q594 565 595 569Q596 573 601 576Q603 576 602 582L602 597Q602 621 601 634Q601 641 593 652L596 666Q599 683 599 691Q600 706 598 718Q597 720 600 726L602 730L640 730L635 677L662 677L662 722L716 722L711 674L735 674L735 717L740 719Q756 720 761 719.50Q766 719 767 714Q768 709 768 694L768 693Q767 684 770 666L772 651Q772 648 772 646Q763 631 763 611Q764 599 768 576L768 573Q769 568 767 557L765 549L764 536L787 516Q749 502 714 516Q716 521 724.50 526.50Q733 532 735 535Q739 541 737 549L710 549Q708 549 705.50 547.50Q703 546 703 544L691 458L771 451L772 442Q775 429 775 422Q775 420 771.50 417.50Q768 415 766 415Q740 416 729 420Q720 423 712 420Q707 418 699 412L694 409L696 405Q698 399 700 397Q705 390 709 389L765 381Q774 379 775 376Q779 361 791 354Q798 349 815 344L843 335L843 330Q844 298 843 275M468 579L468 640Q450 641 427 643L427 576L468 579M506 579L537 579Q537 584 537 595Q537 620 537 633Q537 639 534 640Q531 641 526 640L519 640Q513 641 510 640Q507 639 507 632L506 579M521 432Q509 429 509 421Q509 415 516 405L552 402L557 432L545 433Q528 434 521 432M660 576L660 646L635 646L635 576L660 576M708 577L737 576L737 643L712 645L708 577M612 427Q611 412 613 406Q615 400 623 397.50Q631 395 654 394L665 408Q656 422 641 426Q630 429 612 427"/></svg>
