<svg xmlns="http://www.w3.org/2000/svg" viewBox="0 0 1000 1000"><path fill="#b7b73b" d="M238 531L234 472Q266 472 279 457Q288 446 288 425Q288 416 286 398.50Q284 381 284 371.50Q284 362 283 343Q281 326 281 319Q281 271 309 248Q337 225 388 225L413 225L413 284L400 284Q378 284 368.50 296.50Q359 309 359 334Q359 340 361 352Q363 367 363 375Q363 381 364 394Q366 412 366 422Q366 460 350 479Q336 496 306 503Q336 511 350 527Q366 547 366 584Q366 595 364 613Q362 626 362.50 632Q363 638 361 653Q359 664 359 669Q359 694 368.50 706.50Q378 719 400 719L413 719L413 778L388 778Q284 778 284 684Q284 650 287.50 631.50Q291 613 291 578Q291 531 238 531M766 472L766 525Q713 525 713 572Q713 581 714.50 598.50Q716 616 716 625Q719 644 719 678Q719 772 613 772L588 772L588 719L600 719Q622 719 631.50 706.50Q641 694 641 669Q641 644 638 631Q638 623 636 607.50Q634 592 634 584Q634 547 650 527Q664 511 694 503Q664 496 650 479Q634 460 634 422Q634 412 636 394Q638 381 638 375Q641 359 641 335Q641 311 631 299Q621 287 600 284L588 284L588 225L613 225Q663 225 691 248Q719 271 719 319Q719 328 717.50 345.50Q716 363 716 372Q713 391 712 425Q713 446 721 457Q734 472 766 472"/></svg>
