<svg xmlns="http://www.w3.org/2000/svg" viewBox="0 0 1000 1000"><path fill="#9068b0" d="M231 634Q231 667 247.50 695Q264 723 292 739.50Q320 756 353 756Q386 756 414 739.50Q442 723 458.50 695Q475 667 475 634Q475 601 458.50 573Q442 545 414 528.50Q386 512 353 512Q320 512 292 528.50Q264 545 247.50 573Q231 601 231 634M525 634Q525 667 541.50 695Q558 723 586 739.50Q614 756 647 756Q680 756 708 739.50Q736 723 752.50 695Q769 667 769 634Q769 601 752.50 573Q736 545 708 529Q680 513 647 513Q614 513 586 529Q558 545 541.50 573Q525 601 525 634M378 366Q378 399 394.50 427Q411 455 439 471Q467 487 500 487Q533 487 561 471Q589 455 605.50 427Q622 399 622 366Q622 333 605.50 305Q589 277 561 260.50Q533 244 500 244Q467 244 439 260.50Q411 277 394.50 305Q378 333 378 366"/></svg>
