<svg xmlns="http://www.w3.org/2000/svg" viewBox="0 0 1000 1000"><path fill="#cc6d2e" d="M584 400Q580 349 543.50 316.50Q507 284 453 281L406 281Q403 244 420 217Q440 182 484.50 177.50Q529 173 559 203Q584 232 584 278Q584 287 588 291L616 319Q629 279 619 234Q607 193 574.50 168Q542 143 497 141Q468 141 448 147Q424 154 406 172Q384 193 373.50 227Q363 261 371 296Q380 334 409 362Q419 372 444 384Q455 389 463.50 382.50Q472 376 472 366Q472 345 450 341Q447 341 441 334L441 331Q450 329 460.50 331.50Q471 334 478 341Q492 355 487 378Q483 395 469.50 401.50Q456 408 437 403Q390 390 366 341Q364 336 359.50 326.50Q355 317 353 312Q334 332 324 346Q311 366 306 387Q288 471 350 528Q353 531 354 533.50Q355 536 353 541Q348 584 341 612Q336 639 328 690.50Q320 742 315.50 768Q311 794 316 819Q321 839 341 847Q342 841 343.50 828.50Q345 816 347 809Q352 783 359.50 731.50Q367 680 372 653Q375 637 379.50 604.50Q384 572 388 556Q388 547 397 547Q401 547 402 550Q403 553 403 559Q399 596 388 650Q383 683 373 744Q361 814 356 847Q356 849 358 851L359 853Q367 853 381 854.50Q395 856 403 856Q422 856 441 831Q454 818 444 797Q438 791 438 787Q424 769 444 759Q445 758 450 756.50Q455 755 456 753Q461 751 462.50 745Q464 739 459 734L450 725Q440 713 435 709Q430 705 431.50 697.50Q433 690 437.50 687Q442 684 453 679.50Q464 675 469 672Q474 669 475 665Q476 661 472 656Q466 650 462 644Q456 637 457 627Q458 617 465 611.50Q472 606 478 606Q487 602 488 594Q487 589 489 579.50Q491 570 491 566Q491 563 493 559Q495 555 497 553Q506 544 531 531Q563 508 576 474.50Q589 441 584 400M697 756Q697 744 684 744Q677 744 674 743Q668 741 666 734Q661 720 666 706Q676 686 653 681Q650 681 643 679.50Q636 678 631 678Q622 678 622 669Q622 666 620.50 659.50Q619 653 619 650Q619 644 623 638Q625 634 630.50 627.50Q636 621 635.50 617.50Q635 614 628 609Q627 608 622 605Q617 602 616 600Q607 595 605.50 590Q604 585 609 575Q616 569 616 566Q624 557 619 547L616 542Q611 530 606 525Q602 516 606 506Q646 427 616 353Q592 302 534 288L531 291Q533 292 536 297Q539 302 541 303Q600 353 600 425Q600 506 531 556Q526 559 524.50 563Q523 567 525 572Q531 587 542 617Q553 647 559 662L634 837L636 840Q639 844 644 844Q672 830 687 806Q702 782 697 756M509 572Q508 578 506.50 588Q505 598 503 603L502 609Q501 618 503 622L569 784Q580 812 600 828Q612 834 616 838L619 834Q584 747 509 572"/></svg>
