<svg xmlns="http://www.w3.org/2000/svg" viewBox="0 0 1000 1000"><path fill="#8dc149" d="M565 584L566 587Q566 595 564.50 612.50Q563 630 563 638Q556 737 556 788L556 809Q556 812 555.50 812.50Q555 813 553 813L459 794Q452 792 437.50 790.50Q423 789 416 788L408 786Q385 781 375 781Q355 778 314 770.50Q273 763 253 759Q240 754 210 748L203 747Q200 747 200 741Q206 709 212 642L213 634Q213 631 214.50 623.50Q216 616 216 613Q217 611 217 607Q217 603 219 600Q220 592 222 575.50Q224 559 225 550Q231 519 231 500Q243 422 247 375Q247 363 259 356L316 338Q318 338 320 335.50Q322 333 322 328Q330 283 363 234Q383 204 409 191Q416 191 427 189.50Q438 188 444 188Q470 188 481 203L484 206L487 206Q500 206 510.50 211Q521 216 528 225Q538 238 550 263Q550 266 556 266L572 259Q577 259 577.50 260Q578 261 578 266Q578 280 576.50 306.50Q575 333 575 347Q573 364 571.50 400Q570 436 569 453Q567 475 565.50 517Q564 559 562 581L565 584M334 572Q347 584 356 591Q374 602 378 619Q381 631 376 639.50Q371 648 359 650L344 650Q321 646 297 628Q295 626 294 626.50Q293 627 291 631Q284 656 279 669Q274 682 284 688Q327 720 375 716Q401 713 419 699.50Q437 686 446.50 662.50Q456 639 456 616Q456 593 441 572Q441 570 439.50 568.50Q438 567 438 566Q431 555 420 546Q413 541 397 531Q391 528 378 516Q371 503 376 488Q381 473 397 469Q425 465 456 475Q458 477 460 475.50Q462 474 462 472L481 416Q484 409 483 407Q482 405 475 403Q446 395 409 400Q369 407 343 432Q315 460 313 500Q308 520 314 538.50Q320 557 334 572M459 212Q457 210 456 210L453 209Q449 207 440 209L431 209Q406 218 388 241Q361 271 344 328Q344 330 344.50 330.50Q345 331 347 331Q355 330 369 325Q383 320 391 319Q393 319 393 317L394 316Q394 312 395.50 306Q397 300 397 297Q408 267 420 249Q436 225 459 212M481 278Q481 263 475 237Q473 233 472 232.50Q471 232 469 234Q454 242 450 250Q432 272 422 303L422 306L425 306Q434 304 452 299L469 294Q478 291 479.50 289Q481 287 481 278M506 284Q513 281 531 275L531 272Q526 251 513 237Q506 231 500 228L497 228L497 231Q497 233 498.50 237.50Q500 242 500 244Q503 253 503 278Q503 284 506 284M784 666L794 700L803 766L803 769L800 772Q781 775 745 783Q709 791 691 794Q644 805 613 809L610 810Q608 810 608 809.50Q608 809 609 806Q609 784 612 775Q614 753 615.50 711Q617 669 619 647L619 616Q619 594 622 584L622 562L631 397L631 366Q634 341 634 294L634 262Q637 262 637 262.50Q637 263 637 266L650 278L657 284Q664 290 666 294Q668 298 671.50 299Q675 300 681.50 300Q688 300 702 301.50Q716 303 722 303Q724 303 726 305Q728 307 728 309Q730 316 731.50 328.50Q733 341 734 347L744 409Q747 425 751.50 458Q756 491 759 506Q764 533 772 586Q780 639 784 666"/></svg>
