<svg xmlns="http://www.w3.org/2000/svg" viewBox="0 0 1000 1000"><path fill="#519aba" d="M500 234L500 469Q502 469 502.50 468.50Q503 468 503 466L505 465Q506 464 506 462L508 462Q509 461 509 459Q512 459 512.50 459Q513 459 513 456Q515 456 515.50 455.50Q516 455 516 453Q519 453 519 447L519 256Q519 247 528 247L547 247Q554 247 555 248Q556 249 556 256L556 412L559 412Q562 412 562.50 412Q563 412 563 409L563 406L569 400Q571 398 570 396L569 394L569 275L603 275L603 362Q605 362 606.50 360.50Q608 359 609 359L644 325Q647 325 647 319L647 272Q651 270 659 271L666 272L673 271Q682 270 684 272Q686 274 685 284L684 291L684 306L685 309L688 312L686 312L716 312Q719 312 720.50 313.50Q722 315 722 319L722 350L713 350Q714 348 717 348Q720 348 722 347L678 347Q676 347 675.50 347.50Q675 348 675 350L662 362Q643 380 634 391Q634 394 641 394L716 394Q720 394 721 394.50Q722 395 722 400L722 422Q722 427 720.50 429Q719 431 713 431L600 431L598 431Q596 430 595 430.50Q594 431 594 434L556 472L722 472L722 500Q722 504 720 505Q718 506 713 506L516 506Q513 506 513 506.50Q513 507 513 509Q510 509 509.50 509.50Q509 510 509 512Q507 512 506.50 512.50Q506 513 506 516Q504 516 503.50 516Q503 516 503 519Q501 519 500.50 519.50Q500 520 500 522Q498 522 497.50 522.50Q497 523 497 525Q495 525 494.50 525.50Q494 526 495 528Q496 530 498 529L500 528L734 528Q737 528 737.50 528.50Q738 529 738 531L738 553Q738 560 736.50 561.50Q735 563 728 563L450 563L447 566Q445 569 440.50 573.50Q436 578 434 581Q436 583 441 582L444 581L753 581Q756 581 757.50 582Q759 583 759 588L759 619L403 619Q397 619 394 622L359 656Q359 658 363 659L366 659L791 659Q795 659 796 660Q797 661 797 666L797 725Q797 732 796 733Q795 734 787 734L328 734Q326 736 327 739L328 741L328 812L256 812Q252 812 251 810.50Q250 809 250 806L250 734Q248 732 246.50 733Q245 734 244 734L181 734Q177 734 176 733.50Q175 733 175 728L175 666Q175 661 176.50 660Q178 659 181 659L250 659L175 659Q177 657 178.50 658Q180 659 181 659L253 659Q256 656 253 653L253 200Q253 195 254 194.50Q255 194 259 194L319 194Q326 194 327 195Q328 196 328 203L328 634Q332 632 338 625L350 612Q360 601 366 597Q369 597 369 591L369 234Q373 232 384 234L391 234L397 234Q404 232 406 234Q408 236 407 243L406 250L406 553Q431 528 447 516Q449 514 450 511L450 509L450 234L484 234Q487 234 487.50 234.50Q488 235 488 237Q495 233 498 234L500 234Q497 312 497 462L497 469Q499 467 498 462L497 459L497 241Q498 241 498 238.50Q498 236 500 234M806 734L344 734Q346 732 350 734L353 734L803 734Q810 734 811.50 733Q813 732 813 725L813 666Q813 661 812 660Q811 659 806 659L381 659L379 660Q377 660 376 659.50Q375 659 375 656L809 656Q812 656 812.50 657Q813 658 813 662L813 728Q813 733 812 733.50Q811 734 806 734M344 194L344 628Q342 626 343 622L344 619L344 197Q344 190 342.50 188.50Q341 187 334 187L275 187Q270 187 269.50 188Q269 189 269 194L269 191Q266 188 266.50 187.50Q267 187 272 187L338 187Q341 187 342.50 188.50Q344 190 344 194M578 391Q576 389 577 386L578 384L578 234Q578 227 577 226Q576 225 569 225L550 225Q541 225 541 234L541 425Q541 431 537 431Q541 428 541 422L541 228Q541 223 541.50 222.50Q542 222 547 222L575 222Q578 222 579.50 223Q581 224 581 228L581 378Q578 384 578 391M487 537L488 538Q490 535 494 537L497 537L766 537Q773 538 774 536.50Q775 535 775 528L775 506Q775 503 774.50 502Q774 501 772 503L531 503L772 503Q777 503 777.50 504Q778 505 778 509L778 534Q778 538 777 539.50Q776 541 772 541L497 541Q491 537 487 537M384 230L384 228Q386 230 385 231.50Q384 233 384 234L384 584Q384 591 381 591L381 234Q383 232 384 230M772 616L772 584Q772 581 771 579.50Q770 578 766 578L447 578L759 578Q766 578 767.50 579Q769 580 769 588L769 613Q771 613 772.50 614.50Q774 616 772 616M463 228L463 503Q463 509 459 509L459 231Q461 231 461 229.50Q461 228 463 228M644 382L644 384Q644 381 650 381L763 381Q772 381 772 372L772 350Q772 345 771 344.50Q770 344 766 344L691 344Q684 344 684 341L775 341Q777 341 778 342L778 344L778 381L659 381Q652 381 649 381.50Q646 382 644 384L644 382M500 228L500 234Q498 236 499 239L500 241L500 462Q495 351 500 234Q498 234 498 232Q498 230 500 228M566 459Q568 457 570 458L572 459L763 459Q768 459 770 458Q772 457 772 453L772 425Q775 425 775 431L775 459Q775 462 774 464Q773 466 769 466Q723 461 667 460Q634 459 566 459M188 728L188 656L263 656L194 656Q189 656 188.50 657Q188 658 188 662L188 725Q188 730 188.50 730.50Q189 731 194 731L263 731L191 731Q188 731 188 730.50Q188 730 188 728M619 228L619 231Q619 230 618 228.50Q617 227 619 228M772 381L647 381L772 381M656 228L656 312Q654 312 655 310L656 306L656 225Q658 225 657 227L656 228M759 303L722 303Q722 300 725 300L769 300Q767 302 764 302Q761 302 759 303M684 344L772 344L684 344M341 813L341 812L341 734L341 806Q343 809 343 809.50Q343 810 341 813M773 291L772 303L772 272Q772 269 771 267.50Q770 266 766 266L736 266L772 266Q774 274 773 291M697 228Q699 228 698 231L697 234L697 275L696 278L694 281Q694 269 696 250Q697 235 697 228M556 472Q556 470 556.50 469.50Q557 469 559 469L558 469Q556 470 556 472M534 491Q534 488 534.50 487.50Q535 487 538 487L537 489Q536 491 534 491M553 474L553 475Q553 474 553 473L553 475L553 474M502 470L503 469Q503 470 503 471L503 469L502 470M559 466Q559 463 560.50 463Q562 463 559 466Q562 463 562 464.50Q562 466 559 466M544 481Q544 479 545 479Q546 479 544 481Q546 479 546 480Q546 481 544 481M520 452L522 450Q522 452 521 452Q520 452 522 450L520 452M526 446L528 444Q528 446 527 446Q526 446 528 444L526 446M531 494M528 498L528 500Q528 499 528 498L528 500L528 498M591 380L594 378Q594 380 592.50 380Q591 380 594 378L591 380M506 466M508 462L509 462Q509 463 509 464L509 462L508 462M460 234L463 234Q461 234 460 234M772 266M463 562M550 475M550 477L550 478Q550 478 550 477L550 478L550 477M466 562M548 478L547 478Q547 478 548 478L547 478L548 478M466 559M544 481M544 483L544 484Q544 484 544 483L544 484L544 483M542 484L541 484Q541 484 542 484L541 484L542 484M468 559L466 559Q467 559 468 559L466 559L468 559M541 485L541 487Q541 486 541 485L541 487L541 485M540 487L537 487Q539 487 540 487L537 487L540 487M469 557L469 559Q469 558 469 557L469 559L469 557M470 556L469 556Q469 556 470 556L469 556L470 556M534 491L534 494Q534 493 534 491L534 494L534 491M474 553L472 553Q473 553 474 553L472 553L474 553M616 355L616 353Q616 354 616 355L616 353L616 355M488 541M484 541M484 543L484 544Q484 543 484 543L484 544L484 543M481 544M480 547L478 547Q479 547 480 547L478 547L480 547M478 547M478 549L478 550Q478 549 478 549L478 550L478 549M476 550L475 550Q476 550 476 550L475 550L476 550M581 391M583 389L584 387Q584 388 584 388L583 389L584 387L583 389M585 387L588 384Q586 386 585 387L588 384L585 387M588 384M588 384M609 363M591 381M594 378M594 377L594 375Q594 375 594 375L594 377L594 375L594 377M597 375M599 373L600 372Q600 372 599 373L600 372L599 373M600 372M601 371L603 369Q603 369 603 369L601 371L603 369L601 371M603 369M605 367L606 366Q606 366 606 366L605 367L606 366L605 367M606 366M607 365L609 363Q608 364 607 365L609 363L607 365M554 472L553 472Q554 472 554 472L553 472L554 472M505 467L506 466Q506 466 506 466L505 467L506 466L505 467M559 466M563 463M511 461L513 459Q512 460 512 460L511 461L513 459L511 461M513 459M516 456M519 454L519 453Q519 454 519 454L519 453L519 454M522 450M522 450M528 444M529 443L531 441Q530 442 529 443L531 441L529 443M531 441M533 439L534 438Q534 438 534 438L533 439L534 438L533 439M534 438M538 434M616 356"/></svg>
