<svg xmlns="http://www.w3.org/2000/svg" viewBox="0 0 1000 1000"><path fill="#b8383d" d="M563 556L563 553Q539 553 522.50 536.50Q506 520 506 496.50Q506 473 522.50 457Q539 441 563 441Q579 441 594 450Q609 459 616 475L663 475Q653 440 625.50 418.50Q598 397 563 397Q535 397 511 411Q487 425 473 448.50Q459 472 459 500Q459 528 473 551.50Q487 575 511 589Q535 603 563 603L709 603L709 556L563 556M391 600L391 397L438 397L438 600L391 600M347 478L347 431L394 431L394 478L347 478M716 284L294 284L188 500L241 607Q294 714 294 716L716 716Q755 716 784 687.50Q813 659 813 619L813 378Q813 340 785 312Q757 284 716 284M766 381L766 622Q766 642 752 655.50Q738 669 719 669L331 669L283 591Q234 512 234 506L331 334L719 334Q739 334 752.50 348Q766 362 766 381"/></svg>
