<svg xmlns="http://www.w3.org/2000/svg" viewBox="0 0 1000 1000"><path fill="#cc6d2e" d="M231 491Q231 478 228 475Q223 470 215.50 470.50Q208 471 206 478Q199 490 205 500.50Q211 511 225 516Q235 518 242.50 517Q250 516 256 509Q288 484 303 469L312 461Q330 445 340 439Q356 427 372 422Q437 400 478 437L503 462Q506 456 512 450Q542 416 588 416Q639 416 678 450Q687 458 704.50 473.50Q722 489 731 497Q746 511 762 516Q774 518 784.50 512.50Q795 507 799.50 496Q804 485 794 475Q785 467 775 472Q770 474 768 478.50Q766 483 769 487L769 491Q756 482 756 466Q756 450 775 444Q796 437 814.50 447.50Q833 458 837 481Q843 516 831 541Q825 556 811 565Q800 573 781 578Q751 587 718 582Q691 579 656 566L572 528Q515 502 462 516Q431 525 394 541L374 550Q334 568 312 575Q257 595 209 578Q149 556 153 494Q156 475 162 464Q169 451 184 447Q194 442 205 442Q216 442 225 447Q241 454 242 467.50Q243 481 231 491"/></svg>
