<svg xmlns="http://www.w3.org/2000/svg" viewBox="0 0 1000 1000"><path fill="#b7b73b" d="M538 347L498 312L455 346Q437 345 411 349Q382 353 365 359Q352 350 337 339L325 330L298 374Q270 389 254 404L219 389L230 412Q245 446 255 461Q271 486 292 500Q314 465 373 447Q427 430 495.50 431Q564 432 619 449Q678 468 701 499Q726 486 745 455Q755 437 771 396L773 391Q753 398 735 404Q729 398 717.50 389Q706 380 696 374L670 329L630 357Q567 345 538 347M241 480L291 602Q323 644 378 668Q431 691 492.50 692Q554 693 608 671Q665 648 700 604L755 479Q726 521 664 556Q653 562 628 567L605 571L497 515L388 570L365 566Q340 560 329 555Q302 541 281 522Q261 505 241 480"/></svg>
