<svg xmlns="http://www.w3.org/2000/svg" viewBox="0 0 1000 1000"><path fill="#519aba" d="M313 219L609 219Q635 219 653.50 237.50Q672 256 672 282L672 718Q672 744 653.50 762.50Q635 781 609 781L313 781Q287 781 268.50 762.50Q250 744 250 718L250 282Q250 256 268.50 237.50Q287 219 313 219M721 584L700 584L721 584Q729 584 735 589.50Q741 595 742 603L742 648Q742 656 737 661.50Q732 667 724 669L700 669L700 584L721 584M721 472L700 472L721 472Q729 472 735 477Q741 482 742 490L742 535Q742 543 737 549Q732 555 724 556L700 556L700 472L721 472M721 359L700 359L721 359Q729 359 735 364.50Q741 370 742 378L742 423Q742 431 737 436.50Q732 442 724 444L700 444L700 359L721 359M552 317L370 317Q362 317 356 322.50Q350 328 349 335L348 381Q348 388 353.50 394Q359 400 367 401L552 402Q560 402 566 396.50Q572 391 573 383L574 338Q574 329 567.50 323Q561 317 552 317"/></svg>
