<svg xmlns="http://www.w3.org/2000/svg" viewBox="0 0 1000 1000"><path fill="#cc6d2e" d="M812 749L813 747L813 325Q813 300 809 287Q805 262 778 241Q769 234 764 232Q755 228 747 228Q745 228 744.50 227.50Q744 227 744 225L253 225Q253 231 241 231Q206 244 191 284Q188 291 188 303L188 447Q188 454 189 454.50Q190 455 197 453L213 447Q221 445 229 432Q232 427 234 425L237 421Q245 408 253 403Q258 398 263 398Q268 398 275 403L282 408Q291 414 297 416Q317 422 328 419Q334 419 337 414Q340 412 343 406L344 403Q350 391 354 388Q358 385 361 385L372 384Q384 386 396 397Q403 403 416 419Q420 427 428 431Q434 434 447 447Q456 458 478 475Q493 487 500 494Q517 510 538 519Q554 524 564 523Q577 521 588 506Q608 481 613 453Q615 447 623 436L628 428L631 428Q649 425 675 431Q684 431 691 434L703 437Q720 440 728.50 444Q737 448 740 456.50Q743 465 741 475Q739 481 737.50 482Q736 483 733 482Q730 481 728 481L719 481Q706 484 681 497Q676 499 672.50 503.50Q669 508 669 513Q664 531 650 541L648 543Q644 545 644 550Q641 552 637.50 556.50Q634 561 631 563Q602 592 550 597L500 597Q496 597 495 598.50Q494 600 494 603Q495 609 495 621.50Q495 634 497.50 640.50Q500 647 500 659Q500 678 516 694Q519 697 519 703Q519 725 522 734L523 741Q529 765 534 775Q538 778 540 779Q542 780 544.50 778.50Q547 777 553 775Q559 773 563 772Q573 768 588 766Q597 766 616 766Q626 766 647 765Q673 763 686 764Q707 764 725 769Q731 770 742 771.50Q753 773 759 775Q772 779 786 780Q795 781 813 781Q825 781 825 769Q816 762 814 758Q812 754 812 749M334 666L334 659L338 656Q343 629 359 612L356 612Q327 612 294 603Q263 597 247 581Q240 574 231.50 576Q223 578 219 588Q219 589 217.50 593.50Q216 598 216 600Q206 619 194 631Q187 644 188 653L188 712Q188 722 197 723Q206 724 221 729Q232 733 237 734L252 739Q280 750 294 750Q303 750 305 748.50Q307 747 309 737Q309 736 311 734.50Q313 733 313 731L309 731L313 731L313 725L313 728Q313 727 314.50 725Q316 723 316 722L316 719Q319 712 319 703Q319 691 322 687L322 684Q327 682 333 670L334 666M491 719Q483 711 478 697Q478 687 475 687Q475 680 471 668L469 662Q459 630 431 606Q419 599 412.50 599.50Q406 600 397 609Q395 611 393.50 614Q392 617 391 619Q372 650 363 669L361 672Q356 680 356 688Q354 689 352.50 694.50Q351 700 350 703Q342 711 332 733L328 741Q328 742 327 743.50Q326 745 328 747L334 747Q359 741 372 734Q399 721 431 731Q444 736 456 743Q464 748 478 759Q488 766 506 772L513 772L513 769Q508 760 503 745Q496 727 491 719"/></svg>
