<svg xmlns="http://www.w3.org/2000/svg" viewBox="0 0 1000 1000"><path fill="#cc6d2e" d="M703 222L297 222Q264 222 241.50 244.50Q219 267 219 300L219 700Q219 733 241.50 755.50Q264 778 297 778L700 778Q733 778 755.50 755.50Q778 733 778 700L778 300Q780 267 758 244.50Q736 222 703 222M372 716Q339 716 315 691.50Q291 667 291 634.50Q291 602 315 577.50Q339 553 372 553Q405 553 429 577.50Q453 602 453 635Q453 668 429.50 692Q406 716 372 716M491 512L494 512L294 512L294 459L491 459L491 512M491 434L494 434L294 434L294 381L491 381L491 434M491 356L494 356L294 356L294 306L491 306L491 356M706 531L706 584L509 584L509 531L706 531M706 456L706 509L509 509L509 456L706 456M706 378L706 431L509 431L509 378L706 378M706 303L706 356L509 356L509 303"/></svg>
