<svg xmlns="http://www.w3.org/2000/svg" viewBox="0 0 1000 1000"><path fill="#9068b0" d="M231 848L231 858L155 858Q138 822 123.50 784Q109 746 99 702Q89 662 83.50 612Q78 562 78 508Q78 450 84 402Q90 354 99 315Q109 272 123 233.50Q137 195 155 158L231 158L231 169Q214 195 199 227.50Q184 260 171.50 303.50Q159 347 151 398.50Q143 450 143 508Q143 569 150.50 618.50Q158 668 171 712Q183 754 198.50 788.50Q214 823 231 848M912 508Q912 562 906.50 611.50Q901 661 891 702Q881 746 866.50 784Q852 822 835 858L759 858L759 848Q775 823 791 788.50Q807 754 819.50 711Q832 668 839.50 618.50Q847 569 847 508Q847 450 839 398.50Q831 347 818.50 303.50Q806 260 791 227.50Q776 195 759 169L759 158L835 158Q853 195 867 233.50Q881 272 891 315Q900 354 906 402Q912 450 912 508M290 439Q262 439 243.50 419.50Q225 400 225 370.50Q225 341 244 322Q263 303 292 303Q321 303 339.50 322Q358 341 358 371Q358 401 339 420Q320 439 290 439M290 742Q262 742 243.50 722Q225 702 225 672.50Q225 643 244 624Q263 605 292 605Q321 605 339.50 624.50Q358 644 358 673.50Q358 703 339 722.50Q320 742 290 742M744 478L744 731L637 731L637 671L635 671Q598 742 526 742Q473 742 442.50 707Q412 672 412 614Q412 490 538 471L637 456Q637 387 572 387Q507 387 448 432L448 333Q471 319 512 308.50Q553 298 587 298Q744 298 744 478M638 559L638 531L571 541Q516 549 516 598Q516 621 529.50 635Q543 649 566 649Q597 649 617.50 623.50Q638 598 638 559"/></svg>
