<svg xmlns="http://www.w3.org/2000/svg" viewBox="0 0 1000 1000"><path fill="#cc3e44" d="M219 716Q221 703 229 691Q234 684 247 671.50Q260 659 294 640L303 634Q325 622 369 603Q371 603 373 601Q375 599 375 597Q412 522 428 484Q433 473 440.50 451.50Q448 430 453 419L453 416Q435 373 431 344Q423 310 428 269Q432 249 453 228Q456 225 469 225L494 225Q505 225 509 234Q519 241 531 259Q535 268 538 284L541 297Q541 322 537 351Q534 369 528 403L519 438L519 441Q542 483 588 534Q590 537 591 537.50Q592 538 597 537Q631 531 697 531Q731 531 756 544Q775 556 781 566Q788 578 788 584L788 606Q788 617 778 622L775 625Q770 631 766 633Q760 638 753 637Q750 638 742 639.50Q734 641 731 641Q695 643 662 632Q632 622 600 600Q597 597 589 590.50Q581 584 578 581Q577 581 575 579.50Q573 578 572 578Q534 584 516 591Q503 594 478 601.50Q453 609 441 612Q439 612 437.50 614Q436 616 434 616Q412 656 381 697Q357 726 328 750Q311 761 294 766L269 766Q259 766 253 762Q241 758 232.50 749Q224 740 222 728Q219 728 219 716M510 518L494 497Q489 509 478 534Q467 559 463 572L538 553Q528 542 510 518M628 578Q655 596 691 606Q697 608 703 607Q706 606 711.50 603.50Q717 601 718.50 595.50Q720 590 716 587Q716 584 709 584Q706 583 697.50 581.50Q689 580 684 578Q656 573 628 578M322 680L334 666Q334 666 333 666L334 666Q307 679 281 700Q272 706 259 725L259 731L263 734L266 734L276 726Q284 721 288 719Q301 707 322 680M466 341L469 350Q470 350 471 350L469 350Q478 322 478 297Q478 278 475 269Q475 266 469 266Q467 266 465.50 267.50Q464 269 463 269Q458 275 457 283Q456 288 456 300Q456 316 459 325Q464 329 466 341"/></svg>
