<svg xmlns="http://www.w3.org/2000/svg" viewBox="0 0 1000 1000"><path fill="#498ba7" d="M425 773L419 812L372 812Q373 808 374.50 798.50Q376 789 378 787Q395 781 399 767Q402 759 401 739L400 725L400 531Q389 529 366 527Q348 525 339 524Q325 521 316 516Q265 483 250.50 432.50Q236 382 259 325Q275 289 237 284Q231 284 212 278L212 272Q222 267 239 256Q256 245 266 241Q268 239 275 239Q287 238 291 234Q317 221 330 219Q343 217 353 226.50Q363 236 378 262Q389 285 388 307Q387 329 375 353Q365 370 364 379Q362 394 378 400L398 372Q434 320 454 296Q486 256 519 232Q558 202 603 187L625 187Q631 196 646 212Q668 235 675 250Q691 276 719 330Q750 390 769 419Q781 437 784.50 465Q788 493 781 518.50Q774 544 759 556L759 447L747 447Q733 467 731 494Q729 510 732 544Q734 569 734 581Q734 621 733 699Q731 775 731 812L709 812L709 804Q707 794 709 787Q728 644 675 500Q636 535 631 594Q629 613 623 636Q619 650 609 678Q607 684 601 695Q592 713 591 722Q590 737 606 750Q608 752 605.50 764.50Q603 777 603 784L591 769Q582 757 578 753L578 763Q567 766 543.50 770.50Q520 775 509 778Q509 777 507.50 772Q506 767 506 766Q519 759 525 753Q548 739 550.50 724.50Q553 710 534 694Q473 646 500 578Q504 570 505 550Q505 535 506 525L488 535Q475 541 471 544Q464 549 463 553Q451 597 439 689L438 697Q431 725 425 773M525 647L563 694Q595 652 600 608Q605 564 581 531Q544 606 525 647"/></svg>
