<svg xmlns="http://www.w3.org/2000/svg" viewBox="0 0 1000 1000"><path fill="#519aba" d="M781 766L781 231L781 219L219 219L219 781L766 781Q775 781 778 778Q781 775 781 766M450 534Q432 539 398 542L375 544L375 656L319 656Q317 656 315 651Q313 646 313 641L313 344Q313 342 329.50 339.50Q346 337 359 337Q416 337 441 341Q479 345 501 368.50Q523 392 525 428Q527 468 507 496.50Q487 525 450 534M691 597Q686 638 647 653Q594 675 534 650Q532 650 530 646.50Q528 643 528 641Q534 616 537 606Q550 608 574 613Q592 617 601 619Q610 621 618 616Q626 611 628 600Q632 583 609 569Q602 564 584 558L578 556Q552 544 540.50 527Q529 510 531 484Q534 463 549.50 447.50Q565 432 591 425Q631 416 672 431Q674 431 677 436.50Q680 442 678 444L669 478Q638 472 625 469Q609 469 603 472Q591 477 589 488Q587 499 597 506Q600 510 607.50 513Q615 516 619.50 519Q624 522 638 528Q648 532 653 534Q691 548 691 597M434 391Q422 389 401 387L375 384L375 491Q400 493 412.50 492Q425 491 440 484.50Q455 478 461 463Q466 452 466 435Q466 418 457.50 406.50Q449 395 434 391"/></svg>
