<svg xmlns="http://www.w3.org/2000/svg" viewBox="0 0 1000 1000"><path fill="#a074c4" d="M397 616Q392 584 366 575L344 562Q325 556 319 553Q310 549 300 559Q296 568 303 575Q306 581 316 591Q322 600 338 616L340 619Q345 626 346 630Q349 636 347 644Q342 680 319 703Q317 705 314 706L313 706Q306 706 297.50 702.50Q289 699 284 694Q278 687 279 680.50Q280 674 288 669Q290 669 292 667Q294 665 294 662Q304 652 300 641Q298 639 296.50 636Q295 633 294 631Q281 619 250 594Q192 549 188 481Q183 409 222 341Q239 312 263 300Q275 294 300 287Q363 270 409 278Q462 289 475 331Q485 367 481 394Q479 426 456.50 452Q434 478 403 487Q389 492 381 489.50Q373 487 366 475L361 468Q349 450 344 441L344 437Q344 436 342.50 434.50Q341 433 341 431Q344 450 346 459Q350 474 356 484Q362 492 367.50 496Q373 500 381 500Q442 505 478 459Q513 411 503 341Q503 333 499 321L497 316Q497 310 498 307.50Q499 305 503 303Q509 303 509 300Q563 289 606 294Q668 299 709 328Q781 373 806 462Q809 472 809 487Q809 492 807 492.50Q805 493 800.50 490.50Q796 488 790 482L788 478Q786 477 783 472Q780 467 778 465Q776 463 774 463Q772 463 772 465Q772 467 770.50 470Q769 473 769 475Q753 529 725 556Q723 559 721 562.50Q719 566 719 569L718 581Q717 598 719 606L728 684Q730 695 726.50 701Q723 707 712 712Q694 719 681 719L631 719Q631 700 629 692Q626 678 616 672Q622 647 625.50 631Q629 615 619 600Q611 588 594 594Q560 615 516 600Q505 597 498.50 599Q492 601 488 609Q478 628 478 647Q478 666 484 697Q484 705 483 707.50Q482 710 475 712Q445 721 413 716L409 716Q409 697 407 689Q402 675 388 669Q403 653 397 616M269 544Q275 537 275 531Q277 524 272 515Q267 506 259 503Q255 501 252.50 502Q250 503 247 506Q242 511 234.50 520.50Q227 530 222 534Q222 536 220.50 537.50Q219 539 219 541Q216 545 218 549Q220 553 225 553Q234 553 238 556Q256 556 269 544M269 441Q269 436 265 432Q261 428 256 428Q251 428 246.50 432.50Q242 437 244 444Q244 449 248.50 452.50Q253 456 259 456Q269 447 269 441"/></svg>
