<svg xmlns="http://www.w3.org/2000/svg" viewBox="0 0 1000 1000"><path fill="#e37933" d="M594 594L594 664L403 664Q400 652 393 641L641 393Q662 406 688 406Q724 406 751 381.50Q778 357 781 320.50Q784 284 761.50 255Q739 226 703 220Q667 214 636.50 234Q606 254 597 289L403 289Q394 255 365 235Q336 215 300.50 219.50Q265 224 242 250.50Q219 277 219 312.50Q219 348 242 374.50Q265 401 300.50 405.50Q336 410 365 390Q394 370 403 336L597 336Q600 348 607 359L359 607Q338 594 313 594Q276 594 249 618.50Q222 643 219 679.50Q216 716 238.50 745Q261 774 297 780Q333 786 363.50 766Q394 746 403 711L594 711L594 781L781 781L781 594L594 594M313 359Q296 359 283 348.50Q270 338 267 321.50Q264 305 271.50 290.50Q279 276 294.50 269.50Q310 263 326 268Q342 273 351.50 286.50Q361 300 359.50 317Q358 334 346 346Q332 359 313 359M687 266Q702 266 713.50 273.50Q725 281 730.50 294.50Q736 308 733.50 322Q731 336 721 346Q711 356 697 358.50Q683 361 669.50 355.50Q656 350 648.50 338.50Q641 327 641 312Q641 293 654.50 279.50Q668 266 687 266M313 734Q293 734 279.50 720.50Q266 707 266 687.50Q266 668 279.50 654.50Q293 641 312.50 641Q332 641 346 654.50Q360 668 360 687.50Q360 707 346 720.50Q332 734 313 734M641 734L641 641L734 641L734 734"/></svg>
