<svg xmlns="http://www.w3.org/2000/svg" viewBox="0 0 1000 1000"><path fill="#e37933" d="M630 322L649 254Q664 253 674.50 242Q685 231 685 216Q685 201 673.50 189.50Q662 178 646 178Q630 178 618.50 189.50Q607 201 607 216Q607 226 612 235Q617 244 626 249L606 316Q582 310 556 307Q537 304 519 303L505 303L497 307L497 825L505 828Q526 828 571 802Q619 774 664 732Q717 684 747 632Q784 571 784 514Q784 435 735 384Q696 343 630 322M575 656Q553 621 553.50 565Q554 509 581 466Q611 417 665 406Q691 402 714 418Q739 434 747 466Q757 499 737 541Q719 577 684 611Q651 642 619 656Q587 670 575 656M645 510Q630 510 619.50 520Q609 530 609 544.50Q609 559 619.50 569Q630 579 644.50 579Q659 579 669.50 569Q680 559 680 544.50Q680 530 669.50 520Q659 510 645 510M655 542Q652 542 649 539.50Q646 537 646 533.50Q646 530 649 527Q652 524 655.50 524Q659 524 661.50 527Q664 530 664 533.50Q664 537 661.50 539.50Q659 542 655 542M404 317L385 248Q393 243 398 234.50Q403 226 403 216Q403 200 391.50 189Q380 178 363.50 178Q347 178 336 189Q325 200 325 215.50Q325 231 336 242.50Q347 254 364 254L383 323Q316 345 277 385Q227 436 227 514Q228 572 264 633Q295 685 348 733Q392 775 440 803Q485 828 505 828L505 303L491 304Q473 305 455 307Q428 311 404 317M443 656Q432 670 400 656Q368 642 335 611Q300 577 282 541Q262 499 272 466Q280 434 305 418Q328 402 354 406Q407 417 438 466Q464 509 465 565Q466 621 443 656M372 511Q357 511 346.50 521Q336 531 336 545.50Q336 560 346.50 570Q357 580 372 580Q387 580 397.50 570Q408 560 408 545.50Q408 531 397.50 521Q387 511 372 511M361 543Q357 543 354.50 540.50Q352 538 352 534.50Q352 531 354.50 528Q357 525 361 525Q365 525 367.50 528Q370 531 370 534.50Q370 538 367.50 540.50Q365 543 361 543"/></svg>
