<svg xmlns="http://www.w3.org/2000/svg" viewBox="0 0 1000 1000"><path fill="#cc6d2e" d="M704 219Q698 225 691 232Q674 247 654 261Q625 279 593 289Q552 302 509 302Q466 302 426 289Q394 279 365 261Q345 247 328 232L315 219L304 238Q291 262 280 287Q265 323 258 357Q248 400 250 437Q254 495 271 541Q292 598 337 649Q399 718 509 781Q610 724 670 662Q722 608 746 547Q765 498 769 437Q773 370 739 287Q722 246 704 219M325 278Q344 292 364 302Q324 316 298 349Q309 312 325 278M685 584Q659 624 618 660L618 627L581 627L581 691Q557 709 528 727L528 673L491 673L491 727Q464 710 438 691L438 627L401 627L401 660Q382 644 365 625Q329 584 310 539Q338 566 376 575.50Q414 585 451 573L509 632L568 573Q605 585 643 575.50Q681 566 709 539Q699 563 685 584M509 579L487 557Q499 549 509 539Q520 549 532 557L509 579M609 543Q575 543 547.50 523Q520 503 509 471Q497 508 464 527.50Q431 547 392.50 541Q354 535 329 505.50Q304 476 304 437.50Q304 399 329 369.50Q354 340 392.50 333.50Q431 327 464 347Q497 367 509 403Q522 365 557.50 345.50Q593 326 632.50 334.50Q672 343 695.50 376Q719 409 714.50 449Q710 489 680 516Q650 543 609 543M655 302Q675 292 694 278Q710 312 721 349Q695 316 655 302M357 437Q357 459 372.50 474.50Q388 490 409.50 490Q431 490 446.50 474.50Q462 459 462 437Q462 415 446.50 400Q431 385 409.50 385Q388 385 372.50 400Q357 415 357 437M557 437Q557 459 572.50 474.50Q588 490 609.50 490Q631 490 646.50 474.50Q662 459 662 437Q662 415 646.50 400Q631 385 609.50 385Q588 385 572.50 400Q557 415 557 437"/></svg>
