<svg xmlns="http://www.w3.org/2000/svg" viewBox="0 0 1000 1000"><path fill="#b8383d" d="M716 311M641 508Q630 503 626 496.50Q622 490 613.50 487Q605 484 595.50 484Q586 484 577.50 487Q569 490 564.50 496.50Q560 503 550 508Q519 522 501 551.50Q483 581 485 615Q484 615 486.50 632.50Q489 650 492 663Q497 681 502 684.50Q507 688 536 693Q571 700 595.50 700Q620 700 656 693Q686 688 691 684.50Q696 681 700 663Q703 650 705 631Q707 615 706 615Q707 581 689.50 551.50Q672 522 641 508M898 385Q893 381 884 372Q856 344 839 333Q822 322 797 317Q780 313 751 311Q748 316 753 322L769 338Q815 385 825 440L826 453Q837 532 839 534Q843 545 847 546Q851 547 859 538Q860 537 867 523Q883 488 890 479Q897 470 921 450Q937 438 938 435Q939 432 924.50 414.50Q910 397 898 385M411 338L426 323Q426 322 427 322Q432 316 429 311Q400 313 383 317Q358 322 341 333Q324 344 296 372L282 385Q270 397 257 414Q242 432 243 435Q244 438 259 450Q283 470 290.50 479Q298 488 314 523Q320 537 321 538Q329 547 333 546Q337 545 341 534Q343 532 354 453L356 439Q365 385 411 338M804 534M734 338Q732 336 729 333L718 321Q713 316 716 311L682 307Q649 303 632 301Q556 296 480 311L478 312Q470 313 466 311L465 313Q466 317 462 321L446 338Q400 385 391 439L386 470L386 474L386 473Q384 488 382.50 508Q381 528 382 534L383 536Q386 558 393 567Q396 572 403 581Q415 596 416 606Q424 648 466 663Q460 651 455 622Q451 595 453 594Q451 557 473.50 525Q496 493 536 478Q549 473 554.50 466Q560 459 570.50 456Q581 453 593.50 453Q606 453 616.50 456Q627 459 632.50 466Q638 473 651 478Q691 493 713.50 525Q736 557 734 594Q736 595 732 621Q727 649 721 662Q759 646 766 610Q769 595 778 584L779 582Q785 575 786 570Q790 567 794 558L796 551Q800 539 804 534Q802 530 792 454L790 439Q780 385 734 338M436 384Q435 383 435.50 383Q436 383 436 384M464 489Q446 489 433.50 476.50Q421 464 421 446Q421 428 433.50 415Q446 402 464 402Q482 402 495 415Q508 428 508 446Q508 464 495 476.50Q482 489 464 489M688 472Q688 472 688 472M726 489Q708 489 695 476.50Q682 464 682 446Q682 428 695 415Q708 402 726 402Q744 402 756.50 415Q769 428 769 446Q769 464 756.50 476.50Q744 489 726 489M772 463Q772 462 772 461L772 458L772 459Q772 461 772 463M772 453Q772 453 772 454L772 453Q773 452 772 453"/></svg>
