<svg xmlns="http://www.w3.org/2000/svg" viewBox="0 0 1000 1000"><path fill="#498ba7" d="M488 484L425 484Q392 484 372.50 503.50Q353 523 353 556L353 612Q353 622 344 622L316 622Q272 622 253 584Q238 553 238 528Q232 466 247 425Q263 377 306 369L487 369Q497 369 497 366L497 350L493 348Q489 347 488 347L381 347Q374 347 371.50 344Q369 341 369 334L369 294Q369 259 397 250Q428 237 444 234Q504 224 556 237Q582 243 600 256Q611 267 615 276Q621 287 619 300L619 412Q619 445 601 463Q583 481 550 481Q528 484 488 484M400 297Q400 307 407 314.50Q414 322 424 322Q434 322 442 314Q450 306 450 297Q450 288 442.50 281Q435 274 425 272Q414 272 407 279.50Q400 287 400 297M513 516L575 516Q608 516 627.50 496.50Q647 477 647 444L647 387Q647 378 656 378L684 378Q728 378 747 416Q763 447 763 472Q768 534 753 575Q737 623 694 631L513 631Q503 631 503 634L503 650L507 652Q511 653 513 653L619 653Q626 653 628.50 656Q631 659 631 666L631 706Q631 741 603 750Q572 762 556 766Q496 776 444 762Q418 757 400 744Q389 733 385 724Q379 713 381 700L381 587Q381 555 399 537Q417 519 450 519Q472 516 513 516M600 703Q600 693 593 685.50Q586 678 576 678Q566 678 558 686Q550 694 550 703Q550 712 557.50 719Q565 726 575 728Q586 728 593 720.50Q600 713 600 703"/></svg>
