<svg xmlns="http://www.w3.org/2000/svg" viewBox="0 0 1000 1000"><path fill="#498ba7" d="M500 659Q424 659 360 634Q296 609 258 566Q220 523 220 472Q220 421 258 378Q296 335 360 309.50Q424 284 500 284Q576 284 640 309.50Q704 335 742 378Q780 421 780 472Q780 523 742 566Q704 609 640 634Q576 659 500 659M543 358Q485 358 436 375Q387 392 358.50 421.50Q330 451 330 485.50Q330 520 358.50 549.50Q387 579 436 596.50Q485 614 543 614Q636 614 689 583Q747 550 747 486Q747 422 689 388Q636 358 543 358M659 572L646 574Q651 576 656 578Q667 581 673 585Q681 589 687 594Q689 597 691 600L760 715L652 715L601 621L595 611Q589 601 585 598Q577 592 572 592L546 592L546 716L451 716L451 401L643 401L656 402Q673 405 686 412Q705 421 716 437Q730 457 730 485.50Q730 514 717 534Q706 551 688 561Q675 568 659 572M605 469L547 469L547 523L605 522L612 521Q620 519 625 514Q632 507 631 495Q632 478 618 472Q611 469 605 469"/></svg>
