<svg xmlns="http://www.w3.org/2000/svg" viewBox="0 0 1000 1000"><path fill="#e37933" d="M687 606L688 606Q688 609 688 614Q694 675 694 705.50Q694 736 679 756Q664 776 641 778Q618 783 591 772Q571 762 535 738Q512 723 500 716Q469 741 450 753Q434 764 419 769Q391 781 367 776.50Q343 772 328.50 753Q314 734 313.50 703Q313 672 319 603Q281 591 262 578Q237 566 212 541Q192 520 193 495.50Q194 471 216 450Q232 431 259 418Q275 409 309 397Q311 397 315.50 395.50Q320 394 322 394L313 325Q312 303 319 266Q326 240 347.50 229Q369 218 397 225Q422 231 447 247Q465 258 488 278Q492 280 497 287L500 291Q550 253 578 237Q610 216 641 225Q664 230 677.50 249.50Q691 269 694 300L694 350Q694 360 689 380Q686 393 684 400Q712 409 737.50 421.50Q763 434 774 442Q793 455 804 471.50Q815 488 815 506Q815 524 804 540.50Q793 557 774 570Q762 578 737 591Q719 594 687 606M474 602L506 603Q511 603 522 602Q537 600 544 600Q557 600 566 587Q597 537 609 509Q612 505 612 499Q612 493 609 491Q594 462 562 413Q558 403 547 403Q494 403 466 400Q441 400 428 422Q416 441 409 453L395 479Q386 492 384.50 497.50Q383 503 384.50 508.50Q386 514 395 528L409 553L421 573Q431 589 435 593Q441 600 449 601Q455 602 474 602M325 578Q344 528 353 506L353 494L325 422Q269 439 238 462Q216 479 216 498.50Q216 518 238 534Q254 551 279 562Q294 569 325 578M678 419Q666 447 647 497L646 500Q645 503 647 503Q666 553 678 584Q690 578 715 565Q748 550 762 541Q788 524 788 503Q788 482 763 466Q746 451 708 433Q687 424 678 419M343 382L344 387Q394 382 422 375Q424 375 426 373L428 372Q446 347 478 309Q453 288 440 278Q418 261 397 253Q371 244 355 253.50Q339 263 334 291Q332 310 335 335Q337 350 343 382M656 388L656 387Q656 386 657.50 381.50Q659 377 659 375Q666 344 666 327Q668 299 659 278Q655 262 644 255Q633 248 619 250Q594 254 570 270Q555 279 529 303L522 309Q538 331 569 369L578 378L656 388M344 612Q343 618 341 629Q335 657 334 670Q332 693 338 713Q342 736 357.50 745Q373 754 397 747Q417 741 438 727Q450 718 473 698L481 691Q463 666 431 628Q425 622 422 622Q386 622 344 612M519 691Q532 708 557 726Q580 743 600 750Q650 765 659 716Q663 694 661 668Q660 652 654 620L653 616L633 618Q591 621 572 628Q563 633 555 642Q550 648 542 660Q535 670 531.50 675.50Q528 681 519 691M463 372L538 372Q531 364 518.50 350Q506 336 500 328L495 335Q476 359 463 372M526 642L538 628L466 628Q472 636 484.50 650Q497 664 503 672Q510 661 526 642M409 597Q405 590 397 576Q380 548 372 531L353 584Q370 591 409 597M628 531L591 597L647 587Q643 567 628 531M372 469L409 403L353 412L357 425Q364 454 372 469M591 403Q597 416 609.50 434.50Q622 453 628 466Q641 428 647 413Q623 412 591 403"/></svg>
