<svg xmlns="http://www.w3.org/2000/svg" viewBox="0 0 1000 1000"><path fill="#cc3e44" d="M791 347Q791 379 774.50 407Q758 435 730 452Q702 469 668.50 469Q635 469 607 453Q579 437 563 409Q547 381 547 347Q547 313 563 285Q579 257 607 241Q635 225 668 225Q701 225 729 241Q757 257 774 285Q791 313 791 347M350 222L453 222L453 669Q453 696 452 706Q451 721 446.50 732Q442 743 431.50 753.50Q421 764 409 769Q401 773 386 774Q377 775 347 775Q320 775 310 774Q295 773 284 768.50Q273 764 262.50 753.50Q252 743 247 731Q243 723 241 708Q241 698 241 669L241 331Q241 298 241 286Q243 268 247.50 259Q252 250 260.50 241.50Q269 233 279 228.50Q289 224 306 223Q317 222 350 222"/></svg>
