<svg xmlns="http://www.w3.org/2000/svg" viewBox="0 0 1000 1000"><path fill="#b8383d" d="M697 747L613 578Q610 573 610.50 570.50Q611 568 616 566Q644 552 663 528Q688 498 699.50 461Q711 424 706 384.50Q701 345 684 316Q683 314 681.50 311Q680 308 678 306Q670 298 657 291Q648 287 631 281Q612 278 603 278Q588 277 576 280.50Q564 284 557.50 287Q551 290 547 297Q525 323 534 356Q539 373 550 388Q558 399 575 412Q588 419 597 422Q603 422 606.50 420.50Q610 419 613 412Q616 409 616 400Q616 388 609 369Q603 356 603 350Q607 361 618 381L625 394Q628 401 627 409.50Q626 418 622 425L616 431Q608 437 592.50 451.50Q577 466 569 472Q536 500 513 528Q487 559 444 622Q432 638 413 670L400 691Q394 700 383 718.50Q372 737 366.50 746.50Q361 756 349 774L344 781L706 781Q713 781 715.50 777Q718 773 716 766Q707 761 703 756Q700 753 697 747M397 472Q404 460 417 435Q452 373 472 344Q497 306 509 291Q529 271 550 262Q583 256 603 259Q642 264 669 291L675 297L675 294Q615 219 525 219L300 219Q291 219 291 231L291 681Q306 641 350 559Q366 528 397 472"/></svg>
