<svg xmlns="http://www.w3.org/2000/svg" viewBox="0 0 1000 1000"><path fill="#cc3e44" d="M544 240L556 234L684 234Q686 234 689 235.50Q692 237 694 237Q754 252 763 306Q763 309 764.50 315.50Q766 322 766 325L766 350Q766 353 764.50 359.50Q763 366 763 369L752 519Q740 655 738 725Q737 734 734 737.50Q731 741 722 741Q705 742 672 743.50Q639 745 622 747Q588 748 519 753Q450 758 416 759Q397 759 359 766L328 766Q327 766 323.50 764Q320 762 319 762Q290 758 270.50 741Q251 724 244 697Q242 692 240.50 682.50Q239 673 237 669L237 653Q237 652 239 648Q241 644 241 641Q241 628 242.50 601.50Q244 575 244 563Q244 534 247 522Q266 473 284 441Q307 399 337 369Q380 323 423 295Q472 263 525 250Q531 246 544 240"/></svg>
