<svg xmlns="http://www.w3.org/2000/svg" viewBox="0 0 1000 1000"><path fill="#6d8086" d="M678 250L678 262L678 281L681 284L684 284Q689 283 698.50 281.50Q708 280 712.50 278Q717 276 720.50 279.50Q724 283 722 287.50Q720 292 718.50 301.50Q717 311 716 316L716 319L719 322Q719 325 725 325L753 325Q763 325 762 334L762 341Q760 347 754 359L750 366L750 369L752 371Q753 373 753 375L756 375Q761 377 770.50 378.50Q780 380 784.50 380.50Q789 381 791 386.50Q793 392 791 397L783 408Q777 415 775 419L775 425Q775 427 778 429L781 431L806 441Q811 443 812.50 447.50Q814 452 809 456Q797 469 788 475L788 484L789 486Q792 487 794 487L801 492Q810 498 815 500Q820 502 820 507.50Q820 513 816 516L791 531L791 534Q791 539 791 540Q791 541 794 544Q806 556 813 559Q817 564 815.50 568Q814 572 809 575Q791 581 784 584L783 585Q781 586 780 588Q779 590 781 594L781 597Q786 601 792 612L797 619Q799 621 798.50 625Q798 629 794 631L791 632L787 634Q783 634 775 636Q767 638 763 638L759 638Q759 639 757.50 640.50Q756 642 756 644L757 647L759 650L769 672Q771 674 769.50 678Q768 682 766 684L728 684Q725 688 725 694Q727 698 728.50 706Q730 714 732 718.50Q734 723 730 727Q726 731 719 731Q714 730 704.50 728.50Q695 727 691 725L688 725L683 730Q682 731 684 731L684 759Q684 769 675 769L669 769Q656 765 644 756L641 756Q638 756 636 758Q634 760 634 763Q634 767 632.50 775Q631 783 631 787.50Q631 792 625.50 794Q620 796 616 794Q606 784 594 778L591 778Q588 778 586 780Q584 782 584 784L575 809Q572 816 566 816Q564 816 563 814L562 813Q550 800 544 791L537 791Q535 791 533 793Q531 795 531 797L519 819Q516 823 510.50 823Q505 823 503 819L487 794L478 794L456 816Q453 819 444 819Q441 819 441 813L431 783Q430 781 428 781L419 781Q414 786 404 792L397 797L391 794Q382 790 378.50 787.50Q375 785 375 781Q372 772 372 753L371 752Q371 750 369 750Q367 750 365.50 748.50Q364 747 363 747L359 747L356 750L334 759Q330 762 326 760Q322 758 322 753L322 719L319 716L316 716Q311 717 301.50 718.50Q292 720 287.50 722Q283 724 279.50 720.50Q276 717 278 712.50Q280 708 281.50 698.50Q283 689 284 684L284 681L281 678L250 678Q241 678 241 669L241 662Q243 656 250 644L253 637L253 633Q252 631 250 631Q250 629 248 629L247 628Q242 628 232.50 626.50Q223 625 218.50 625Q214 625 212 619.50Q210 614 213 609Q222 600 228 587L228 581L223 577Q221 575 219 575L197 566Q192 563 190.50 558.50Q189 554 194 550Q199 548 209 540Q215 534 219 531L219 525Q219 519 216 519L194 506Q189 504 189 498.50Q189 493 194 491L219 475L219 469L197 447Q195 445 195 441Q195 437 197 434L198 434Q200 433 200 431L228 422L228 419Q230 417 229 412L228 409Q225 406 220.50 400Q216 394 213 390Q210 386 212 380.50Q214 375 218.50 374Q223 373 232.50 371.50Q242 370 247 369L250 369Q250 367 251.50 365.50Q253 364 253 362L253 359L250 356L241 334Q238 330 240 326Q242 322 247 322L281 322L282 320Q282 319 284 319L284 316Q278 297 278 288Q276 283 279.50 279.50Q283 276 288 278Q297 278 316 284L319 284L323 280Q324 278 322 278L322 250Q322 241 331 241L338 241Q344 243 356 250L363 253L367 253Q369 252 369 250Q371 250 371 248L372 247Q372 242 373.50 232.50Q375 223 375 218.50Q375 214 380.50 212Q386 210 391 212Q400 222 413 228L419 228L422 225L422 223Q423 221 425 219L434 197Q437 193 439 192Q441 191 447 191L450 194Q452 199 460 209Q466 215 469 219L472 219Q474 219 476 217L478 216L491 194Q495 189 499.50 188.50Q504 188 506 191L509 194L525 219L534 219Q536 219 537 217L538 216Q550 203 553 197Q555 195 559 195Q563 195 566 197L566 200Q572 219 575 225L578 228L584 228Q598 223 609 212Q614 210 619.50 212Q625 214 625 218.50Q625 223 626.50 232.50Q628 242 628 247L629 248Q629 250 631 250L634 250Q637 252 639 252Q641 252 641 250Q647 247 666 241Q671 238 674.50 240.50Q678 243 678 250M331 347L569 347Q588 347 597 350Q627 360 641 378Q656 394 656 416Q656 434 647 453Q637 468 622 478Q616 484 612 484Q614 486 617 487.50Q620 489 622 491L627 495Q638 505 641 512Q650 527 650 544Q650 547 656 553Q660 557 668 559Q672 559 681.50 559Q691 559 697 553Q701 549 704 541L706 534L706 519Q706 516 706.50 516Q707 516 709 516L731 516L731 475Q727 473 717.50 468.50Q708 464 703 462Q702 461 697 459.50Q692 458 691 456Q676 451 681 431Q694 400 703 384L703 381Q691 362 684 354Q672 339 659 328Q613 286 547 272L544 272Q525 291 513 300Q508 305 500 305Q492 305 487 300L459 272L456 272Q444 275 425 281Q376 299 337 337Q331 344 331 347M684 634L591 634Q581 634 578 631Q562 623 556 600L555 594Q550 576 550 566Q550 559 544.50 547Q539 535 530 528.50Q521 522 509 522L453 522L453 562L509 562Q512 562 512.50 562.50Q513 563 513 566L513 628Q513 630 512.50 630.50Q512 631 509 631L322 631Q328 641 341 653L344 653Q369 647 381 647Q388 645 394.50 648.50Q401 652 403 659L413 700L413 703Q438 713 450 716Q471 722 487 722Q502 724 520 723Q531 722 553 719Q569 716 600 703L600 700L609 659Q615 643 631 647L669 656L672 656Q672 647 684 634M350 416L313 416L322 434L323 437Q324 442 322 444Q322 449 315 454L313 456Q288 469 275 472L273 472Q272 473 272 475L272 491Q272 522 281 559L282 561Q282 563 284 563L350 563L350 416M447 459Q448 459 449 459L447 459L519 459Q531 459 538 456L541 454Q545 451 547 446.50Q549 442 548.50 435.50Q548 429 544 425Q534 416 522 416L444 416Q447 431 447 459M259 428Q259 435 265 441Q271 447 278 447Q285 447 291 441Q297 435 297 428Q297 421 291 415Q285 409 278 409Q271 409 265 415Q259 421 259 428M656 691Q656 684 650.50 678Q645 672 637.50 672Q630 672 624.50 678Q619 684 619 691Q619 698 624.50 703.50Q630 709 637.50 709Q645 709 650.50 704Q656 699 656 691M363 672Q355 672 349.50 678Q344 684 344 691Q344 698 349.50 703.50Q355 709 362.50 709Q370 709 375.50 703.50Q381 698 381 691Q381 684 375.50 678Q370 672 363 672M519 262Q519 255 514 249.50Q509 244 500.50 244Q492 244 486.50 249Q481 254 481 262Q481 270 486 275.50Q491 281 500 281Q513 281 519 262M722 450Q729 450 735 444Q741 438 741 431Q741 424 735 418Q729 412 722 412Q715 412 709 418Q703 424 703 431.50Q703 439 708 444.50Q713 450 722 450"/></svg>
