<svg xmlns="http://www.w3.org/2000/svg" viewBox="0 0 1000 1000"><path fill="#498ba7" d="M387 325L388 325Q420 330 441 347L447 353Q454 358 456 362L459 362Q462 359 468.50 354.50Q475 350 478 347L500 337Q506 337 513 334L531 334Q548 334 563 344Q584 357 597 378Q597 380 598.50 380Q600 380 600 378L606 376Q618 372 625 372L650 372Q666 372 691 384L698 389Q711 396 716 403Q728 416 738 434Q747 448 747 469L747 494Q747 504 743 515Q741 522 734 534Q725 553 709 569Q698 580 684 584L656 594L616 594Q611 603 598 615L591 622Q579 629 559 634L541 634Q533 634 521 630L516 628L513 628Q510 635 502 645L497 653Q488 667 472 672Q443 686 411.50 678.50Q380 671 359 644Q352 636 347 622Q347 620 345 621L344 622L322 622Q317 622 310 620.50Q303 619 300 619Q288 615 275 606Q256 588 250 575Q255 556 250 547L250 528Q250 516 256 503.50Q262 491 268.50 484.50Q275 478 275 475Q284 466 291 463L292 462Q293 461 291 459Q284 447 284 438L284 409Q289 374 314.50 349Q340 324 375 322L381 322Q384 325 387 325"/></svg>
