<svg xmlns="http://www.w3.org/2000/svg" viewBox="0 0 1000 1000"><path fill="#dd4b78" d="M563 538L563 541Q545 552 508 575L453 609Q471 650 456 694Q445 730 418.50 751.50Q392 773 356 778Q342 782 322 775Q306 771 300 753Q281 711 309 678L319 668Q338 648 350 641Q359 633 381 621Q398 612 406 606Q408 604 413 603L419 600Q415 598 409.50 593Q404 588 400 588Q358 561 328 531Q303 506 294 491Q273 475 269.50 453Q266 431 278 409Q293 373 334 331Q406 268 503 234Q572 210 634 219Q641 222 656.50 226.50Q672 231 678 234Q714 249 727 276Q740 303 728 341Q708 405 653 437Q615 461 576 470Q537 479 494 472Q468 468 444 444Q438 431 434 428L435 426Q436 424 438 422L439 422Q442 423 444 425Q476 458 525 447Q568 439 599 424Q635 407 659 378Q683 349 691 322Q699 287 663 266Q633 251 588 256Q504 269 419 322Q372 348 347 381Q338 394 325 419Q318 438 321 456Q324 474 338 487Q363 512 375 522L434 572L438 573Q442 574 444 572Q456 564 469 559Q516 533 556 525Q556 532 557 534.50Q558 537 561 539L563 541L563 538M428 619Q386 642 356 672Q339 689 334 712Q332 726 340 733Q348 740 363 737Q398 729 419 697Q430 679 432 660Q433 644 428 619"/></svg>
