<svg xmlns="http://www.w3.org/2000/svg" viewBox="0 0 1000 1000"><path fill="#498ba7" d="M812 531L813 531Q813 545 808 568L806 575L394 575Q353 575 353 616Q353 632 364.50 641Q376 650 397 650L778 650Q741 721 680.50 762Q620 803 539.50 812.50Q459 822 383 791Q310 760 259 699Q208 638 194 559Q178 478 204 401Q230 326 288 271.50Q346 217 425 197Q490 180 556.50 192Q623 204 679 242Q735 280 769 337Q762 341 744 341L541 341Q524 341 513.50 351.50Q503 362 503 378.50Q503 395 512 403.50Q521 412 538 412L800 412Q809 436 809 459L469 459Q425 459 425 497Q425 513 436.50 522Q448 531 469 531L784 531Q798 527 812 531"/></svg>
