<svg xmlns="http://www.w3.org/2000/svg" viewBox="0 0 1000 1000"><path fill="#b8383d" d="M675 219L675 350L672 353Q671 356 669 356Q655 370 634 375Q611 383 560 394L547 397Q491 407 400 419Q350 425 325 431L325 300Q328 297 338 297Q410 285 456 281L491 276Q538 269 562 264Q601 257 631 247L635 245Q650 239 657 235Q669 228 675 219M675 394L675 525L669 531Q655 542 625 554L619 556Q569 569 544 572Q528 575 498.50 579.50Q469 584 453 587L412 593Q355 600 325 606L325 475Q328 472 334 472Q361 469 414 461Q467 453 494 450Q566 440 628 422Q645 416 654 411Q666 404 675 394M334 780L328 781L325 781L325 650Q328 647 334 647Q353 644 389 639Q425 634 444 631L477 626Q527 619 551 615Q592 607 625 597Q644 591 652 586Q667 579 675 569L675 700Q673 704 666 710L659 716Q636 727 600 737Q567 746 498 757L484 759Q403 772 363 775Q352 775 334 780"/></svg>
