<svg xmlns="http://www.w3.org/2000/svg" viewBox="0 0 1000 1000"><path fill="#7fae42" d="M452 291L451 291Q436 296 422 305Q418 307 410 313Q398 322 388 335L381 344Q371 360 368 373Q366 379 365 387Q363 402 365 418Q366 428 368 438Q372 453 381 467L388 476Q397 487 411 497L426 508Q437 516 454 523L478 533L489 537Q503 542 508 544L510 546Q542 555 556 580Q562 592 562 602L562 606Q564 619 561 625Q549 649 530 656Q518 660 487 659Q466 654 454 641Q443 629 436 607L435 603Q434 596 429.50 591.50Q425 587 418 587L368 587Q361 587 356.50 591.50Q352 596 353 603Q353 618 356.50 632Q360 646 368 662Q373 670 379 677.50Q385 685 402 698Q410 704 416 707Q425 712 445 720L452 722Q459 724 463.50 728.50Q468 733 468 740L468 765Q468 772 472.50 776.50Q477 781 484 781L518 781Q525 781 529.50 776.50Q534 772 534 765L534 740Q534 733 538.50 727.50Q543 722 549 721Q553 720 560 717Q578 710 589 704Q610 691 629 664Q640 648 643 636Q646 629 647 619Q648 603 647 588Q646 578 643 571Q639 555 630 542Q617 521 585 498Q571 489 557 482Q546 477 523 468L501 460Q480 452 473 446Q461 436 455.50 426.50Q450 417 449 407L449 406Q449 395 450.50 387Q452 379 460 367Q466 359 475 357Q486 353 496 353Q513 352 521.50 353.50Q530 355 540.50 363.50Q551 372 556 382Q562 395 562 407Q563 414 567.50 418.50Q572 423 578 423L628 423Q635 423 639.50 418Q644 413 643 407Q642 395 639.50 383.50Q637 372 629 354Q626 347 622 341Q612 325 602 316Q597 311 592 307Q587 303 572 295L564 291L556 287Q549 284 544.50 278.50Q540 273 540 267L540 235Q540 228 535.50 223.50Q531 219 525 219L490 219Q483 219 478.50 223.50Q474 228 474 235L474 270Q474 281 460 287Q458 289 452 291"/></svg>
