<svg xmlns="http://www.w3.org/2000/svg" viewBox="0 0 1000 1000"><path fill="#e37933" d="M219 700L219 300Q219 298 220.50 296.50Q222 295 222 294Q233 254 263 237L300 219L700 219Q702 219 703.50 220.50Q705 222 706 222Q747 236 772 275Q777 289 784 297L784 697Q784 698 782.50 700Q781 702 781 703Q771 737 741 759Q721 774 700 778L300 778Q298 778 296.50 776.50Q295 775 294 775Q253 761 228 722Q225 719 219 700M306 372Q316 384 336 409Q369 452 388 472Q390 474 394 476Q398 478 400 478L600 478Q602 478 606.50 476.50Q611 475 613 475L642 438Q676 395 694 375Q647 319 575 298Q503 277 432 295Q356 314 306 372M550 356L572 325Q566 345 556.50 389Q547 433 541 453L481 453Q507 420 550 356"/></svg>
