<svg xmlns="http://www.w3.org/2000/svg" viewBox="0 0 1000 1000"><path fill="#cbcb41" d="M500 616L434 616Q417 616 413 613Q409 610 406 594Q392 523 359 463Q343 435 328 394Q310 343 319 287Q323 251 344.50 223.50Q366 196 400 181Q452 158 505 158.50Q558 159 609 184Q656 205 676.50 250Q697 295 688 350Q683 382 670 415Q661 438 641 475Q608 541 600 591Q597 606 594.50 611Q592 616 586.50 617.50Q581 619 566 619Q541 616 500 616M497 844L422 844Q412 844 407.50 840Q403 836 403 825L403 812Q403 798 404 793.50Q405 789 410.50 788Q416 787 432 787L575 788Q586 787 590 791.50Q594 796 594 806Q594 825 592.50 831.50Q591 838 584.50 839.50Q578 841 559 841Q541 844 497 844M567 731L500 731L422 731Q413 731 409.50 728Q406 725 406 716L406 707Q406 691 407 686Q408 681 413 679.50Q418 678 433 678L575 678Q594 678 594 697L594 705Q594 720 593 724.50Q592 729 587 730Q582 731 567 731"/></svg>
