<svg xmlns="http://www.w3.org/2000/svg" viewBox="0 0 1000 1000"><path fill="#7fae42" d="M729 258L731 253Q761 334 772 393Q787 469 778 537Q764 645 681 719Q638 752 591 769Q541 787 491 784Q369 780 290.50 688Q212 596 222 478Q227 387 288 322Q348 240 469 219Q577 205 672 275Q691 291 697 293Q705 297 711 290Q715 285 725 262Q727 262 729 258M706 434Q685 528 591 606Q567 626 533 642Q512 652 468 668L450 675Q444 677 431.50 681.50Q419 686 413 688Q413 694 416 697Q435 696 475 695Q526 694 551 693Q592 690 625 684Q687 675 720.50 640Q754 605 766 541Q778 465 753 375Q748 359 739 326L728 287Q720 300 716 300Q679 357 600 394Q577 404 545 409Q525 412 486 414L466 416Q396 421 356 453Q332 471 317.50 501Q303 531 302.50 562.50Q302 594 316 619Q327 642 342 648.50Q357 655 381 650Q389 648 404.50 643.50Q420 639 428 637Q526 612 591 568Q664 517 706 434M328 662Q319 662 312.50 670Q306 678 306 687.50Q306 697 314 703Q322 709 331 709Q340 709 346.50 701.50Q353 694 353 683Q353 672 347.50 667Q342 662 328 662"/></svg>
