<svg xmlns="http://www.w3.org/2000/svg" viewBox="0 0 1000 1000"><path fill="#8dc149" d="M784 100Q775 100 762 106Q744 112 726 128Q716 137 697 159Q642 218 603 297Q555 381 525 484Q512 534 512 566Q513 577 520.50 583.50Q528 590 537 588Q555 586 569 574Q578 566 593 549L597 544L597 534Q578 553 569 559Q562 564 557.50 562Q553 560 553 553L553 522Q553 473 575 412Q600 344 616 313Q654 230 703 181Q728 142 772 138Q784 138 791 141Q798 144 800 153Q800 156 803 156L805 155Q807 153 809 153Q816 134 816 124.50Q816 115 806 106.50Q796 98 784 100M472 416Q456 416 435 430.50Q414 445 406 459L406 466L409 465L413 462L415 459Q421 452 425 450Q431 444 435 442Q441 439 447 441Q453 443 454.50 450Q456 457 453 462Q450 496 440 554L437 566Q416 648 388 700Q346 783 294 831Q276 846 263 853Q245 862 228 862Q216 862 210.50 858.50Q205 855 203 844Q203 842 200 840L197 837Q183 856 188 878Q193 900 206 900Q222 900 241 894Q253 890 266 880Q273 874 287 860L294 853Q348 799 388 725Q449 620 481 506L483 501Q488 479 490 468Q493 450 491 434Q491 427 485 421.50Q479 416 472 416"/></svg>
