<svg xmlns="http://www.w3.org/2000/svg" viewBox="0 0 1000 1000"><path fill="#d4d7d6" d="M453 336L453 291L528 291L528 336L453 336M616 241L617 390L538 340Q536 339 536 312L537 285L616 241M364 239L362 388L442 339Q444 337 444 310L443 284L364 239M468 403Q468 395 474 389Q480 383 488.50 383Q497 383 502.50 389Q508 395 508 403.50Q508 412 502.50 418Q497 424 488.50 424Q480 424 474 418Q468 412 468 403M468 528Q468 519 474 513Q480 507 488.50 507Q497 507 502.50 513Q508 519 508 527.50Q508 536 502.50 542Q497 548 488.50 548Q480 548 474 542Q468 536 468 528M468 652Q468 644 474 638Q480 632 488.50 632Q497 632 502.50 638Q508 644 508 652.50Q508 661 502.50 667Q497 673 488.50 673Q480 673 474 667Q468 661 468 652M734 354L788 305L702 225L654 225L629 314L627 408L604 395L495 805L772 399L734 354M245 353L191 303L277 224L326 224L351 312L352 407L375 393L484 803L207 398L245 353M372 400"/></svg>
