<svg xmlns="http://www.w3.org/2000/svg" viewBox="0 0 1000 1000"><path fill="#cc6d2e" d="M781 481L781 466Q772 407 744 356Q716 314 678 281Q647 255 609 241Q485 193 369 253Q302 291 263 353Q241 387 230 420Q219 455 219 494L219 528Q228 601 263 656Q300 710 344 737Q379 761 409 769Q478 790 534 781Q690 758 756 616Q786 556 781 481M569 631Q552 640 531 642Q519 644 494 644Q446 644 394 612Q385 608 391 603L409 566L413 563L416 562Q451 589 500 594Q519 594 528 591Q544 587 550 569Q550 552 534 544Q516 534 478 522L474 521Q453 515 443 510Q425 502 416 491Q400 475 400 441Q402 405 425 384Q445 364 478 359Q540 350 594 384Q597 387 597 394L578 428Q577 431 576 431.50Q575 432 573 432L569 431Q548 419 530 413Q510 407 488 409Q484 409 478 410.50Q472 412 469 412Q461 418 457 423.50Q453 429 453 438Q453 454 466.50 463Q480 472 494 472Q504 475 526 481L553 488Q556 484 566 484Q556 484 553 487L577 497Q578 498 578 500L580 500Q581 501 581 503L585 506Q587 507 587 509L591 513Q605 525 609.50 549Q614 573 604 595Q594 620 569 631"/></svg>
