<svg xmlns="http://www.w3.org/2000/svg" viewBox="0 0 1000 1000"><path fill="#cc3e44" d="M463 244L332 327L463 244Q499 220 543 218.50Q587 217 627 236.50Q667 256 693 293Q712 319 719 350.50Q726 382 720.50 413.50Q715 445 698 470Q723 519 713 572Q708 601 692 626Q676 651 652 668L514 756Q478 780 434 781.50Q390 783 350 763.50Q310 744 284 707Q266 681 258.50 649Q251 617 257 586Q263 555 280 529Q254 481 264 428Q269 399 285 374Q301 349 325 332L463 244M639 328Q620 301 589.50 289.50Q559 278 527 286Q517 289 507 294L370 381Q353 391 342.50 407Q332 423 328.50 442Q325 461 329.50 480Q334 499 345 515Q364 542 394.50 553Q425 564 457 556Q467 553 477 548L533 513Q537 510 541 509Q551 507 560.50 510Q570 513 575 522Q582 531 580 543Q578 553 571 559L437 645Q433 648 429 649Q419 651 410 647.50Q401 644 395.50 636.50Q390 629 390 621L390 612L385 610Q362 603 342 590L327 580L325 587Q323 593 322 600Q318 619 322.50 638Q327 657 338 672Q356 698 384.50 709.50Q413 721 444 715L450 714Q461 711 470 706L608 619Q624 609 634.50 593Q645 577 648.50 558Q652 539 647.50 520Q643 501 632 485Q613 458 582.50 447Q552 436 520 444Q510 447 500 452L444 487Q440 490 436 491Q426 493 417 490Q408 487 402 478Q395 469 397 457Q399 447 406 441L540 355Q544 352 548 351Q558 349 567 352.50Q576 356 581.50 363.50Q587 371 587 379L587 388L592 390Q615 397 635 410L650 420L652 413Q654 406 655 400Q659 381 654.50 362Q650 343 639 328"/></svg>
