<svg xmlns="http://www.w3.org/2000/svg" viewBox="0 0 1000 1000"><path fill="#cc6d2e" d="M300 344Q300 342 298.50 340.50Q297 339 297 337Q294 333 286 323.50Q278 314 275 309Q263 298 259 292Q251 283 247 275Q259 288 278 300Q281 302 286 306.50Q291 311 294 312Q300 317 311 326.50Q322 336 328 341Q337 349 357 364L369 372Q400 397 416 406Q428 416 453 433Q478 450 491 459L491 456Q453 413 431 391Q406 359 394 347L363 306Q363 305 361 303.50Q359 302 359 300L331 262L327 255Q321 247 319 241Q327 247 341 261Q355 275 362.50 282Q370 289 387.50 304.50Q405 320 412 328Q419 333 431.50 344Q444 355 450 359L488 387Q492 391 500 397Q508 403 512 406Q581 456 619 481Q621 484 623 483.50Q625 483 625 478Q641 439 641 381Q641 339 625 297Q625 291 619 272L614 262Q604 241 597 231Q593 215 575 197Q575 195 573.50 193.50Q572 192 572 191Q584 197 603 209Q670 259 719 331L726 346Q742 376 747 391Q769 445 769 491L769 494Q769 522 766 534Q764 541 762.50 553.50Q761 566 760 572Q759 578 762 581Q800 628 809 684Q812 694 812 716Q812 731 809 741Q809 743 809 743.50Q809 744 806.50 744Q804 744 804 742L803 741Q782 698 744 694Q726 689 708 693Q694 695 675 703Q668 706 656 712Q641 720 634 722Q568 750 497 741Q445 735 403 719L400 719Q391 714 372 706Q353 698 344 694Q253 644 191 553L187 550L191 550L194 553Q212 566 225 572L237 579Q254 589 262 591Q285 604 316 609Q317 611 318.50 611Q320 611 322 613Q364 625 422 625Q486 620 534 594Q539 591 539 590.50Q539 590 534 588Q520 577 492 552L472 534Q464 528 450 514Q436 500 428 494Q416 484 397 459Q394 455 386 447Q378 439 375 434Q369 428 356.50 414Q344 400 338.50 393.50Q333 387 323.50 376.50Q314 366 309 359Q309 353 300 344"/></svg>
