<svg xmlns="http://www.w3.org/2000/svg" viewBox="0 0 1000 1000"><path fill="#519aba" d="M247 344L247 547L203 547L203 587L341 587L341 547L300 547L300 344L313 344Q332 344 341 346Q350 348 354.50 354Q359 360 363 375L400 375L394 303L150 303L141 416L178 416L178 400Q181 371 185 362Q190 350 200 347Q209 344 234 344L247 344M494 659L441 659L441 572L459 572Q472 572 475.50 573Q479 574 480 579Q481 584 481 600L481 616L519 616L519 487L481 487L481 503Q481 519 480 524Q479 529 475.50 530Q472 531 459 531L441 531L441 456L491 456Q514 456 524.50 461Q535 466 539 478Q542 488 544 512L581 512L572 412L353 412L353 453L384 453L384 653L353 653L353 694L575 694L587 612L547 612Q547 639 535.50 649Q524 659 494 659M678 587L678 550L663 550L709 481L756 550L747 550L747 584L859 584L859 547L844 547Q830 547 827 546Q824 545 822 541L747 431L797 359L800 356Q806 349 811 346Q819 341 831 341L847 341L847 300L750 300L750 337L766 337L763 341L725 394L684 344L694 344L694 300L581 300L581 344L597 344Q611 344 613.50 344.50Q616 345 619 350L684 447L628 531L619 541Q609 550 594 550L578 550L578 587"/></svg>
