<svg xmlns="http://www.w3.org/2000/svg" viewBox="0 0 1000 1000"><path fill="#D4D7D6" d="M303 219L500 219L678 219Q715 219 743 242Q771 265 778 300Q781 306 781 319L781 675Q781 713 757.50 741.50Q734 770 697 775Q694 775 687.50 776.50Q681 778 678 778L325 778Q278 778 248.50 749Q219 720 219 675L219 322Q219 282 242 254Q265 226 303 219M303 500L303 678Q303 697 325 697L675 697Q684 697 690.50 690.50Q697 684 697 675L697 325Q694 313 688.50 308Q683 303 672 303L322 303Q310 303 305 308Q300 313 300 325Q303 381 303 500M378 459Q381 461 386 462L394 466Q405 470 426.50 481Q448 492 459 497Q464 499 465 499Q466 499 469 497L510 466Q573 419 606 397Q610 393 617 390Q621 389 622 388Q629 385 633.50 390.50Q638 396 638 403L634 409Q631 414 631 416Q615 437 584 482L553 525Q516 576 497 600Q485 618 469 617Q453 616 441 597L369 491Q362 484 362 481Q360 472 364.50 465.50Q369 459 378 459"/></svg>
