<svg xmlns="http://www.w3.org/2000/svg" viewBox="0 0 1000 1000"><path fill="#519aba" d="M254 219L746 219Q761 219 771 229Q781 239 781 254L781 746Q781 761 771 771Q761 781 746 781L254 781Q239 781 229 771Q219 761 219 746L219 254Q219 239 229 229Q239 219 254 219M466 513L535 513L535 465L342 465L342 513L411 513L411 728L466 728L466 513M554 670L554 731Q569 739 587.50 742.50Q606 746 626.50 746Q647 746 665.50 742Q684 738 698.50 728Q713 718 721 703Q729 688 729 665Q729 648 724 636Q719 624 710 614Q701 604 688.50 596Q676 588 662 582Q651 577 642.50 572.50Q634 568 627.50 563.50Q621 559 617 553Q613 547 613 540.50Q613 534 616.50 529Q620 524 625.50 520.50Q631 517 639 515Q647 513 657 513Q681 513 703 524Q711 527 717 532L717 475Q703 470 689 467Q671 465 653 465Q633 465 614.50 469.50Q596 474 582.50 484Q569 494 561 509Q553 524 553 546Q553 573 567.50 592Q582 611 612 624L634 634Q644 639 651.50 644.50Q659 650 663.50 656.50Q668 663 668 670Q668 683 657 690Q652 694 643 696Q634 698 624 698Q605 698 587 691Q569 684 554 670"/></svg>
