<svg xmlns="http://www.w3.org/2000/svg" viewBox="0 0 1000 1000"><path fill="#8dc149" d="M641 202L641 203Q642 203 644 203L652 203L641 203L641 202M617 218L609 218Q627 204 641 203L654 203Q657 203 657 204L648 204Q635 204 617 218M617 218Q635 204 648 204Q634 209 626 216Q622 219 616 226L611 230Q606 229 602 233Q608 225 617 218M648 204Q651 204 657 204Q673 207 689 226L688 228Q672 212 656 209Q652 208 650 209Q641 211 635 215Q632 216 628 220L625 223Q622 221 625 217L626 216Q634 209 648 204M650 209Q652 208 656 209Q653 211 650 209M600 245L611 230Q612 229 616 226Q622 219 626 216L625 217Q622 221 625 223Q615 236 600 264L599 267Q598 270 596 271L597 267L588 266L588 265L600 245M586 241L587 238Q590 236 595 230Q604 221 609 218L617 218Q609 224 602 233L596 240Q594 241 590 239L589 238L588 239Q587 241 586 241M688 228L689 226Q692 229 693 232L693 233L691 231Q688 229 688 228M596 240L602 233Q606 229 611 230L600 245L596 248L591 247L596 240M693 233L693 232Q696 234 697 238Q694 236 693 233M588 239L589 238Q589 239 590 239Q594 241 596 240L591 247Q582 261 574 275L565 294L552 293L548 297Q562 270 581 246L582 244Q584 241 585.50 241Q587 241 588 239M591 247L596 248Q597 248 598 247L600 245L589 265L585 267L581 266Q580 267 578 271Q576 275 574 275Q582 260 591 247M581 266L585 267Q586 267 587 266L589 265L588 266Q583 276 574 298L568 314Q563 326 562 332L561 335Q559 336 557 341Q555 346 553 347Q551 348 549.50 344.50Q548 341 546 341L548 332L564 294L574 275Q576 275 578 271Q580 267 581 266M588 266Q594 266 597 267L596 271Q583 302 572 334L570 333Q564 333 562 332Q563 326 568 314L574 298Q583 276 588 266M548 297Q549 296 551 294L552 293L564 294L548 332Q547 333 546 335.50Q545 338 544 338L543 336Q539 331 539 328Q536 327 535 329.50Q534 332 532.50 336.50Q531 341 529 343Q529 340 531 335L534 328Q543 307 548 297M535 330Q536 327 539 328Q539 331 543 336L544 338Q545 338 546 335.50Q547 333 548 332L546 341Q535 370 531 387Q528 396 524 414L521 429L519 430Q516 432 514 432Q506 436 504 443Q504 441 504 439Q514 388 527 347L529 343Q531 341 532.50 336.50Q534 332 535 330M556 348L562 332Q564 333 570 333L572 334Q570 335 570 338L570 339Q569 345 565 357L561 369Q556 388 551 408L551 410Q551 411 550 411Q546 411 541 411Q539 413 537 417Q539 406 545 385L548 373Q551 364 556 348M570 339Q570 339 570 338Q570 335 572 334L571 335Q571 339 570 339M554 348Q555 346 557 341Q559 336 561 335L548 373Q547 374 544 378L544 380Q541 380 539.50 379.50Q538 379 538 377.50Q538 376 536 377L536 378Q534 385 531 387Q535 370 546 341Q548 341 549.50 344.50Q551 348 554 348M544 380Q544 379 544 378Q547 374 548 373L545 386Q539 406 537 417L533 431Q531 434 529.50 440Q528 446 527 448L525 449Q520 450 518 451L516 461Q516 458 516.50 454Q517 450 519 441.50Q521 433 521 429L524 414Q528 396 531 387Q534 385 536 378L536 377Q538 376 538 377.50Q538 379 539.50 379.50Q541 380 544 380M541 411Q546 411 550 411L546 437Q541 461 539 473Q538 469 540 461L540 460Q538 459 534 460.50Q530 462 528.50 462.50Q527 463 527 465L526 466Q527 459 530 446L533 431L537 417Q539 413 541 411M514 432Q516 432 519 430L521 429Q521 433 519 441.50Q517 450 516 455Q509 453 502 455Q502 452 503 448.50Q504 445 504 443Q506 436 514 432M525 449L527 448Q528 446 529.50 440Q531 434 533 431L530 446Q527 459 526 466L526 470L525 467Q524 467 524 469Q524 471 523.50 472Q523 473 519 472L516 472L514 476L514 470L518 451Q520 450 525 449M502 455Q510 453 516 455Q516 458 516 461L514 470Q512 471 508 470.50Q504 470 502 471Q500 472 499 476L499 477Q499 466 502 455M528 462Q530 462 534 460.50Q538 459 540 460L540 462Q538 469 539 473Q538 480 537 492L536 492Q537 489 534 486L525 486L522 493L523 484L527 464Q528 463 528 462M524 471Q524 471 524 469Q524 467 525 467L526 470L523 484L520 490L514 489L511 494L512 483Q513 478 514 476L516 472L519 472Q523 473 524 471M502 471Q504 470 508 470.50Q512 471 514 470L514 476Q513 478 512 483L511 488Q509 490 504 489L500 488L496 495Q496 486 499 477L499 476Q500 472 502 471M600 475Q601 475 602 474Q606 471 608 472Q570 512 556 589L555 588Q551 587 547 587L547 583Q554 555 559 541Q566 518 577 501L578 500Q580 497 579.50 495.50Q579 494 581 491L585 488Q594 479 600 475M514 489L520 490Q520 490 520 489L523 484L522 493Q521 495 519 500L518 504L512 503L509 510L509 509Q510 501 511 494L514 489M522 493L525 486L534 486Q537 489 536 492Q535 495 535 498.50Q535 502 534 510Q533 518 533 521L532 521L532 518Q533 513 531 512.50Q529 512 526 511Q520 510 520 514L519 513L519 510L520 503Q522 497 522 493M496 495L500 488Q501 488 504 489Q509 490 511 488L511 494Q510 501 509 509L507 514Q506 515 501 513.50Q496 512 495 516Q494 520 493 525Q492 520 494 510L495 504Q495 498 496 495M535 498Q535 495 536 492Q538 497 535 498M512 503L518 504Q518 503 519 500Q521 495 522 493Q522 497 520 503L519 510L516 517L511 516Q510 517 509 521L509 522L509 510L512 503M570 507Q571 506 572 503Q576 497 579 495Q580 497 578 500L577 501Q566 518 559 541Q554 555 547 583L547 587Q544 591 543 601L542 608Q540 608 537 605L535 602Q534 602 531 603L530 603Q532 593 538 575L541 566Q555 529 570 507M507 514Q508 513 508 511L509 509L507 539L505 583Q504 591 504 605L504 644L503 644L498 634Q494 626 491 622L490 622Q489 620 488 620.50Q487 621 488.50 625.50Q490 630 493 640Q498 655 498 664L496 658Q493 642 487 628L485 622Q486 617 486 614L486 609Q487 602 487 596L487 590Q487 586 488 578L489 565Q490 562 490 559L490 553Q490 544 492 535L493 525Q494 520 495 516Q496 512 501 513.50Q506 515 507 514M516 518L516 517Q516 517 516 517L519 510L519 513L517 522Q516 530 514 535L510 534Q509 537 507 543L507 544L509 521Q510 517 511 516L516 518M520 514Q520 510 526 511Q529 512 531 512.50Q533 513 532 518L532 521Q533 532 530 543L530 550Q529 555 529 560L529 574L528 581Q527 586 527 592L526 616L525 619Q523 624 523 626Q522 626 522 628L522 630Q519 632 517 634Q518 628 517 615L516 603Q514 587 516 554L516 538Q517 530 520 514M517 522L519 513L520 514Q517 530 516 538Q512 575 515 613Q514 621 510 636L507 651Q507 652 505 653L504 653L504 611Q505 604 505 590L505 583L507 543Q509 537 510 534L514 535Q516 530 517 522M334 527L334 517Q336 517 336 520L335 527L334 527M335 527L336 521L341 546Q342 548 341 550Q340 555 342 565Q344 580 340 586L338 584L338 580Q338 576 337 574L337 560Q338 557 337 554Q336 551 336 547L336 544Q336 539 335.50 535Q335 531 335 527M492 527L492 535Q492 534 491.50 530.50Q491 527 492 527M336 536Q336 539 336 544L336 547L335 547Q335 542 336 536M515 613Q512 575 516 538L516 554Q514 587 516 603L517 615Q518 628 517 634Q519 632 522 630L522 632L515 666L514 665Q513 664 512 665L509 665Q505 666 504 668L504 653L505 653Q507 652 507 651L510 636Q514 621 515 613M530 551L530 550Q530 550 530 549L530 543Q531 547 530 551M392 551Q391 552 388.50 550.50Q386 549 386.50 548Q387 547 391 549Q407 548 425 554L418 562L410 558Q398 552 392 551M338 584L341 586Q344 580 342 565Q340 555 341 550Q343 555 345 565L346 573Q344 571 343 573.50Q342 576 343 577Q344 583 343 595L343 602L341 606Q339 605 338 601L338 584M530 560L529 560Q529 555 530 551L530 560M490 559L489 559Q487 554 490 553L490 559M337 554Q338 557 337 560Q335 557 337 554M418 562L425 554Q431 556 436 559L434 562L437 564Q441 567 443 569Q445 571 445.50 577Q446 583 449 585Q448 586 449 589L449 593Q447 591 445 587L442 583L437 578Q426 568 420 564L419 563Q418 562 418 562M489 559L490 559Q490 562 489 565Q488 561 489 559M437 564L434 562Q435 560 436 559Q458 572 475 602Q473 604 470 606Q470 611 474 618Q477 633 472 647L473 657L472 657Q469 627 449 593L449 589Q448 586 449 585Q446 583 445.50 577Q445 571 443 569Q441 567 437 564M529 567L529 560L530 560L530 562Q530 566 529 567M337 560L337 567L336 567Q335 563 337 560M489 566L488 573Q488 572 488 571Q487 566 489 566M336 567L337 567L337 573L336 574Q336 570 336 567M343 577Q342 576 343 573.50Q344 571 346 573L348 588L347 588Q344 590 346 593Q345 596 346 601Q347 606 346 609L344 613L343 602L343 595Q344 583 343 577M337 574Q338 576 338 580L338 582L337 582Q337 578 337 574M528 582L528 581Q528 580 528 579L529 574L529 582L528 582M528 592L527 592Q527 584 528 581L528 584Q528 589 528 592M337 590L337 582L338 582L338 590L337 590M504 611Q504 609 504 605Q504 591 505 583L505 590Q505 604 504 611M542 608Q543 606 543 601Q544 591 547 587Q550 587 555 588Q554 592 554 598L554 599Q553 603 552 607Q551 611 551.50 613.50Q552 616 551 619L550 621Q547 621 546 622L542 626Q540 631 539 640Q537 653 534 659Q533 659 530 658L528 657L526 657Q523 656 521 655Q519 654 521 651Q522 637 527 617Q528 614 527 612L527 609Q529 607 530 603L531 603Q534 602 535 602L537 605Q540 608 542 608M346 593Q344 590 347 588L348 588L352 610Q350 609 349 611L349 625L347 627Q346 629 346 631Q345 627 343 624L344 613L346 609Q347 606 346 601Q345 596 346 593M554 599Q554 599 554 598Q554 592 555 588Q555 590 555 594Q555 598 554 599M337 598L337 590L338 590L338 598L337 598M487 596Q485 591 487 590L487 596M527 598L527 592L528 592Q529 595 528 598L527 598M487 596Q487 604 486 609L486 603Q486 598 487 596M337 601L337 598L338 598L338 607Q336 606 337 601M527 610L527 598L528 598L528 604Q528 605 528.50 604Q529 603 530 603Q529 607 527 610M527 609L526 616Q526 612 526 606L527 598L527 609M338 615L338 600Q338 600 338 601Q339 605 341 606L343 602L344 613L343 624Q341 623 339 623L339 620Q339 617 338 615M470 606Q473 604 475 602Q479 608 483 617L479 620L481 627Q484 638 483 644L481 650Q476 661 475 667L474 667Q474 665 473 662L472 647Q477 633 474 618Q471 612 470 606M486 614L485 614Q486 613 485.50 609Q485 605 486 605L486 614M552 615L552 614Q551 611 552 608Q555 613 552 615M348 625L349 611Q350 609 351 610.50Q352 612 353 616.50Q354 621 352.50 623.50Q351 626 352 629Q352 645 354 660L355 666Q355 673 357 676L355 679L353 679Q349 678 348 679L347 663Q347 657 346 645L346 631Q346 629 347 627L348 625M525 619L526 616L527 612Q528 614 527 617Q522 634 521 651Q519 654 521 655Q523 656 526 657L528 657L530 658Q533 659 534 659Q537 653 539 640Q540 631 542 626L546 622Q547 621 550 621L550 627Q550 630 549 637L547 651Q545 654 541 654Q538 657 537 664L535 670Q532 670 528 666Q524 662 520 662.50Q516 663 517 656L523 626Q523 624 525 619M485 622L485 614L486 614Q486 617 485 622M338 615Q339 617 339 621L339 624L338 624Q338 618 338 615M481 627L479 620Q480 619 483 617L483 619Q484 621 485 622L487 628L487 631Q485 632 486 637L487 644Q488 652 488 656L484 663Q479 672 478 677Q477 679 477.50 684Q478 689 478 691L477 691L476 684Q477 681 476 678Q475 675 475 668L475 667Q476 661 481 650L483 644Q484 638 481 627M550 627L550 621Q550 620 551 620L551 622Q552 626 550 627M489 625Q487 621 488 620.50Q489 620 490 622L491 622Q494 626 498 634L503 644L504 644L504 658Q502 661 499 664L498 670L495 670Q498 666 498 664Q498 655 493 640Q490 630 489 625M339 655L339 623Q341 623 343 624Q345 627 346 631L346 645Q347 657 347 663L346 659Q345 653 344 650Q342 650 341 653L339 655M352 629Q351 626 354 623Q355 633 358 652L360 666Q359 667 360 671Q361 675 361 677L359 674L357 676Q355 673 355 666L354 660Q352 645 352 629M338 634L338 624L339 624L339 634L338 634M522 632L522 630Q522 629 522 627.50Q522 626 523 626L522 632M487 631L487 628Q493 641 496 658L494 657L494 654Q491 642 487 631M487 644L487 639Q487 638 486 637Q485 632 487 631Q492 644 494 654L491 656Q490 657 490.50 659.50Q491 662 490 663L488 666Q483 671 483 674Q481 680 483.50 690Q486 700 485 705Q485 708 482 714L481 715Q480 717 479.50 721Q479 725 478 727L478 691Q478 689 477.50 684Q477 679 478 677Q479 672 484 663L488 656Q488 652 487 644M338 645L338 634L339 634L339 645L338 645M549 648L548 648Q548 647 548 646L549 639L549 648M548 660L547 651L548 648L548 660M340 672L339 655Q340 654 341 652Q342 650 344 650Q345 653 346 659L347 663L347 675Q347 681 345 680Q343 679 341 675L340 672M541 654Q545 654 547 651L547 666Q546 666 543.50 669Q541 672 538 671Q536 673 535 678L534 681Q534 676 530.50 671.50Q527 667 522 666.50Q517 666 516 661L517 656Q516 663 520 662.50Q524 662 528 666Q532 670 535 670L537 664Q538 657 541 654M494 657L491 656Q492 655 494 654L494 657M339 655Q340 658 340 664L340 666L339 666Q339 661 339 655M488 666L490 663Q491 662 490.50 659.50Q490 657 491 656L495 658Q493 659 491.50 662.50Q490 666 489 667Q486 671 484.50 675.50Q483 680 484.50 684Q486 688 490 694L492 698Q493 705 488 718Q486 726 485 730L485 732Q485 756 488 767L482 766Q481 765 481 765L476 745Q477 744 477 741L478 727Q479 725 479.50 721Q480 717 481 715L482 714Q485 708 485 705Q486 700 483.50 690Q481 680 483 674Q483 671 488 666M489 667Q490 666 491.50 662.50Q493 659 495 658L496 658Q497 661 493 664Q492 666 489 669.50Q486 673 486 676Q484 681 486.50 685.50Q489 690 494 694Q496 694 496 697L496 698Q498 710 496 729L495 737Q495 754 496 763Q497 766 496 769L488 767Q485 756 485 731L485 730Q486 726 488 718Q493 705 492 698L490 694Q486 688 484.50 684Q483 680 484.50 675.50Q486 671 489 667M496 658L498 664Q498 666 495 670Q488 673 488 680Q487 684 493 689L497 692Q498 698 499 709L499 717Q501 737 500 769L496 769Q497 766 496 763Q495 754 495 738L496 729Q498 710 496 698L496 697Q496 694 494 694Q489 690 486.50 685.50Q484 681 486 676Q486 673 489 669.50Q492 666 493 664Q497 661 496 658M498 670L499 664Q502 661 504 658L504 668L502 671L498 670M547 673L548 660L548 673L547 673M519 668L515 666L516 661Q517 666 522 666.50Q527 667 530.50 671.50Q534 676 534 681L535 678Q536 673 538 671Q541 672 543.50 669Q546 666 547 666L547 673L547 674Q543 677 541 681L540 680Q538 679 537 678L537 681Q536 686 536 688Q536 693 534.50 703Q533 713 533 719L531 727Q528 726 523 727Q518 728 516 728Q513 725 513 720L516 725L518 723Q522 720 524 720.50Q526 721 529 719L531 718Q533 713 533 702L534 695Q535 689 533 684L528 691L526 692Q520 694 517.50 693.50Q515 693 511 693Q513 691 518 690.50Q523 690 525 689Q529 686 529.50 680.50Q530 675 526 671Q525 669 519 668M306 664L303 662Q308 664 317 673L317 674Q315 674 315 677L314 677Q312 672 306 664M502 672L504 668Q505 666 509 665L512 665Q513 664 514 665L515 666L515 671Q511 672 510 676.50Q509 681 512 684Q512 687 511 689.50Q510 692 508 692Q506 692 505 690L502 684Q505 681 505 677.50Q505 674 502 672M339 678L339 666L340 666L340 678L339 678M515 671L515 666L519 668Q525 669 526 671Q530 675 529.50 680.50Q529 686 525 689Q523 690 518 690.50Q513 691 511 693L511 690Q512 687 512 684Q515 687 519.50 686Q524 685 526 681Q528 677 523.50 673Q519 669 515 671M488 680Q488 673 495 670L498 670L502 671Q505 674 505 677.50Q505 681 502 684L500 686Q492 688 488 680M515 671Q519 669 523.50 673Q528 677 526 681Q524 685 519.50 686Q515 687 512 684Q509 681 510 676.50Q511 672 515 671M340 682L340 672Q341 673 342 676Q343 679 345 680Q347 681 347 675L347 674L348 683L348 689L343 687Q342 686 341 684L340 682M547 681L546 674L547 673L547 681M317 682L315 677Q315 674 317 674Q326 682 332 695L330 697Q326 701 325 703Q323 696 317 682M357 677L357 676Q358 675 359 674L361 677L361 680Q362 684 362 686Q359 688 358.50 692.50Q358 697 357.50 699Q357 701 352 702L349 703L349 696Q349 694 352.50 694Q356 694 357 693L357 683Q358 679 357 677M540 680L541 681Q543 677 546 674L547 706Q544 704 540.50 707.50Q537 711 535 711L533 719Q533 713 534.50 703Q536 693 536 688Q536 686 537 681L537 678Q538 679 540 680M353 679L355 679Q355 679 356 678L357 676Q358 679 358 683L357 686Q356 687 352.50 686.50Q349 686 348 689L348 680Q349 678 353 679M339 690L339 678L340 678L340 690L339 690M476 678Q477 681 476 684Q475 681 476 678M497 692Q496 691 493 689Q487 684 488 680Q492 688 500 686L496 687Q497 688 499 689.50Q501 691 502 692L503 696Q504 699 505 701Q506 707 506 713L503 712L503 715Q502 719 502 721Q502 728 502 743Q502 761 503 770L500 770L500 769Q501 737 499 717L499 709Q498 698 497 692M547 702L547 681L548 688Q548 697 547 702M340 693L340 682Q340 682 341 684Q342 686 343 687L348 689L348 692L348 693Q347 699 342 697Q341 697 341 695L340 693M476 686L476 684L477 691Q475 691 476 686M496 687L500 686Q501 684 502 684L505 690L505 701Q504 699 503 696L502 692Q501 691 499 689.50Q497 688 496 687M528 692L528 691Q529 690 532 686L533 684Q534 687 534 695L533 702Q533 713 531 718L529 719Q526 721 524 720.50Q522 720 518 723L516 725L513 720Q511 715 510 705L510 700Q510 697 511 694L511 693Q515 693 517.50 693.50Q520 694 526 692L528 692M349 696L348 689Q349 686 352.50 686.50Q356 687 357 686L357 693Q356 694 352.50 694Q349 694 349 696M357 699L358 699Q358 697 358.50 692.50Q359 688 362 686L362 687Q363 693 363 695L362 696Q360 697 360 698L359 704Q359 711 357 715L350 721L349 703L352 702Q357 701 357 699M505 701L505 690Q506 692 508 692Q510 692 511 690L511 693Q510 697 510 700L509 706Q508 713 507 716L506 713Q506 707 505 701M477 699L477 691L478 691L477 699M348 693L348 692Q348 694 349 696L349 705L341 706L340 702Q339 698 340 693L341 695Q341 697 342 697Q347 699 348 693M327 713L325 703Q326 701 330 697L332 695Q337 703 339 710L341 715Q344 722 345 726Q342 727 342.50 732Q343 737 342 738L340 739Q333 743 333 746Q333 735 327 713M359 704L360 698Q360 697 362 696L363 695Q364 702 365 715L365 719Q365 725 362.50 726.50Q360 728 358 734Q357 736 356 741L356 742L354 745L352 757L351 758Q350 753 350 749L350 744Q351 740 350 732.50Q349 725 350 721L357 715Q359 711 359 704M476 699L477 699L477 726L476 699M508 717L507 716Q508 713 509 706L510 700L510 705Q511 715 512 720Q513 725 516 728Q518 728 523 727Q528 726 531 727L533 720L533 725L531 739Q529 738 524.50 740Q520 742 518 741L514 732Q513 731 511 730L508 728L508 724Q509 720 508 717M547 706L547 702Q548 703 548 706L547 708L547 706M339 710L340 702Q340 704 341 706L340 713L339 710M340 713L341 706Q342 706 346 706L349 705L350 721Q349 725 350 732.50Q351 740 350 744L347 743Q348 739 346 731L345 726Q344 722 341 715L340 713M533 720L535 711Q537 711 540.50 707.50Q544 704 547 706L547 708Q546 713 547 718L547 722L546 718L543 719Q538 721 535.50 722.50Q533 724 533 728L533 720M547 719L547 707L548 707L548 719L547 719M547 708L547 718Q546 713 547 708M389 711L389 710L399 710L399 711L389 711M365 716L366 722Q376 711 389 711L401 711Q404 710 403 711Q400 711 397 712Q385 714 379 726Q378 727 377 730L375 732Q373 740 372 751L371 751Q370 746 367 741L364 740Q358 737 359 734L360 732Q362 729 363.50 727Q365 725 365 719L365 716M397 712Q400 711 403 711Q403 713 401 713Q399 713 397 712M503 716L503 712Q505 713 506 713L508 717L508 722Q507 727 508 729Q509 731 509 734L510 748L510 755Q511 763 512 766Q509 766 509 768.50Q509 771 508 771L503 770Q502 761 502 743Q502 728 502 721Q502 719 503 716M508 722L508 717Q509 720 508 724L508 729Q507 727 508 722M533 728Q533 724 535.50 722.50Q538 721 543 719L546 718L547 722L547 726L543 729Q537 732 535 735Q533 744 533 763L533 766L532 767L532 763Q532 740 533 728M547 726L547 719L548 718L548 727L547 726M469 737L469 726Q472 727 471 728Q470 732 470 736L470 737L469 737M477 737L477 726L477 737M531 739Q532 738 532 735L533 725L533 728Q532 740 532 763L532 767L519 767L518 758Q517 745 514 739Q510 738 509 734Q509 731 508 729L508 728L511 730Q513 731 514 732L518 741Q520 742 524.50 740Q529 738 531 739M340 739L342 738Q343 737 342.50 732Q342 727 345 726L346 731Q348 739 347 743Q344 742 342 743Q340 744 340 747Q340 752 346 753L343 754Q346 756 347 758L347 761Q347 766 346 768L335 768L335 765L333 746Q333 742 340 739M359 734L358 734Q358 734 358 734Q360 728 363 726Q362 729 360 732L359 734M535 735Q537 732 543 729L547 726L547 728Q547 733 548 736L548 740L547 739L545 742Q540 747 539 751Q539 753 537 753L535 754Q535 758 533 764L533 763Q533 744 535 735M547 728L547 726L548 727L548 736Q547 733 547 728M470 736Q470 732 471 728Q472 735 475 743Q476 744 475.50 741.50Q475 739 476 740L477 741Q477 744 476 745L481 765Q481 765 482 766L484 766Q481 766 482 770L484 775L479 775Q473 775 471 773L471 759Q471 744 470 736M548 739L548 732Q550 732 549 736L549 739L548 739M358 734L359 734Q358 737 364 740L367 741Q370 746 371 751L370 763Q366 763 364.50 764.50Q363 766 363 771L363 773L361 779Q357 780 352 780L351 768L354 771L361 769Q363 763 364 756L360 756Q354 755 352 757L354 745Q351 750 356 752Q361 754 363 750.50Q365 747 362 744Q359 741 356 743L356 741Q357 736 358 734M510 748L509 734Q510 738 514 739Q517 745 518 758L519 767L518 767L515 755Q513 756 512 752Q511 748 510 748M470 774L470 736Q471 744 471 759L471 773L470 774M545 742L547 739L548 740L548 741Q548 746 549 748L549 750Q550 753 550 755L551 766L533 766L534 764Q535 758 535 753L537 753Q539 753 539 751Q540 747 545 742M548 742L548 739L549 739L549 740Q549 746 549 748Q548 746 548 742M354 745L356 742Q359 741 362 744Q365 747 363 750.50Q361 754 356 752Q351 750 354 745M340 747Q340 744 342 743Q344 742 347 743L350 745L350 749Q349 751 346 753Q340 752 340 747M552 772L559 759Q560 758 562 754Q566 746 569 742Q568 747 565 757L560 769Q559 773 558 774L551 774Q551 773 552 772M510 755L509 748Q511 748 512 752Q513 756 515 755L518 767L512 766Q511 763 510 755M343 754L346 753Q349 751 350 749Q350 754 351 758L351 768Q350 774 351 783L348 780Q347 776 347.50 769Q348 762 347 759Q346 756 343 754M444 750Q445 751 448 755L456 765Q452 767 449 761L446 756Q444 753 444 750M584 756L586 754L587 754Q584 760 581 766L575 766Q577 763 584 756M450 758L451 758Q454 759 460.50 757Q467 755 470 755L470 757Q465 757 461 759Q457 762 458 765Q462 768 470 770L470 772Q454 769 445 765Q445 760 447 759L449 761Q452 767 456 765L450 758M551 767L550 755Q551 755 551 756.50Q551 758 552 758L559 760L554 768Q554 766 551 767M351 758L352 757Q354 755 360 756L364 756Q363 763 361 769L354 771L351 768L351 758M370 765L370 763Q370 759 371 756L371 758Q371 763 371 765L370 765M461 759Q465 757 470 757L470 758Q465 759 465 763Q465 767 470 768L470 770Q462 768 458 765Q457 762 461 759M347 761L347 758Q348 762 347.50 769Q347 776 348 780L349 792Q346 792 343 792L337 791L335 784L335 768L346 768Q347 766 347 761M464 763Q465 759 470 758L470 768Q465 767 464 763M326 764L326 761Q327 761 328 764L327 768Q325 769 326 764M364 764Q366 763 370 763L370 770Q365 770 363 773L363 771Q363 766 364 764M330 797L327 768Q327 766 328 765L339 796L335 797L330 797M370 771L370 765L371 765Q371 768 371 771L370 771M335 765L335 768L335 776L334 776Q334 771 335 765M493 771L482 770Q481 766 484 766L485 768Q494 770 503 770L508 771L508 772Q502 772 493 771M485 768L484 766Q486 767 488 767L500 769L500 770Q492 770 485 768M514 768L509 769Q509 766 512 766L519 767Q518 768 514 768M519 767Q523 767 526 767Q519 770 510 769L514 768Q518 768 519 767M526 767Q529 767 532 767Q530 768 525 769L520 770L511 770L510 772L508 772L508 771Q509 771 509 769L510 769Q520 770 526 767M532 767L551 766L551 767L548 768L541 768Q538 767 531 768.50Q524 770 521 770L520 770L525 769Q530 768 532 767M548 768L551 767Q551 767 551 767Q554 766 554 768L552 772L552 770Q518 775 483 773L482 770L493 771Q502 772 508 772L510 772Q522 772 529 771Q539 772 548 768M382 794L391 768L392 767Q392 773 389 784L387 794L382 794M521 770Q524 770 531 768.50Q538 767 542 768Q538 769 531 770L529 771Q519 772 510 772L510 771L514 771Q519 771 521 770M541 768L542 768L548 768Q539 772 529 771L531 770Q538 769 541 768M351 789L351 783Q350 775 351 768L352 780Q357 780 361 779L363 773L364 786L351 789M364 784L363 773Q365 770 370 770L370 773Q370 778 371 780L371 783L370 783Q368 781 366 782L364 784M510 771L511 770L520 770L521 770Q519 771 514 771L510 771M370 773L370 771L371 771Q371 775 371 780Q370 778 370 773M403 778L404 778L402 787L397 787Q399 784 403 778M310 779Q312 780 315 783L317 786Q323 791 318 791Q316 790 314 786L312 783Q311 780 310 779M349 792L348 780Q350 781 351 783L351 793L349 793L349 792M371 788L371 780Q372 779 372 782L371 788M328 784L329 781Q329 788 330 794Q327 794 325.50 792Q324 790 325 788L326 787Q328 786 328 784M365 794L364 784Q364 784 365 783L366 782Q368 781 370 783L373 792Q371 793 366 794L365 794M317 786Q319 786 323 785L328 784Q328 786 326 787L325 788Q324 790 325.50 792Q327 794 330 794L330 796L328 795Q321 794 318 791Q323 791 317 786M372 786L372 784Q373 785 376 785Q382 786 384 787L382 794Q369 797 355 796L356 796Q362 795 365 795L368 795Q375 794 377 791Q379 788 372 786M308 788L309 788Q310 787 313 785L314 786Q316 790 318.50 792Q321 794 328 795L330 796L330 797Q326 797 319 795L314 794Q309 794 306 790Q305 789 308 788M351 797L351 789Q354 788 360 787L364 786L365 795Q362 795 356 796L351 797M371 788L372 786Q372 786 372 786Q379 788 377 791Q375 794 368 795L365 795L365 794Q370 793 373 792L371 788M338 793L337 791Q340 792 343 793Q346 794 349 793L351 793L351 794L338 793M343 792Q346 792 349 792L349 793Q346 794 343 792M339 795L338 793Q339 793 340 793L351 794L351 795L346 795Q341 794 339 795M339 796L339 795Q341 794 346 795L351 795L351 796L339 796M335 797L339 796Q342 796 349 796L351 796L351 797L350 797Q340 797 335 798"/></svg>
