<svg xmlns="http://www.w3.org/2000/svg" viewBox="0 0 1000 1000"><path fill="#e37933" d="M484 369L488 369L381 369L381 687L303 687L303 369L197 369L197 312L484 312L484 369M728 591Q728 580 724 572Q720 564 713 556Q707 551 695 545Q687 542 667 534L659 531Q594 512 556 484Q522 455 522 412Q522 365 563 337Q600 309 661.50 309Q723 309 763 344Q800 377 800 425L728 425Q728 411 723.50 401Q719 391 709 381Q689 366 659 366Q629 366 613 378Q597 390 597 412Q597 430 616 444Q624 450 640 456Q652 461 678 469Q739 487 771 514.50Q803 542 803 591Q803 615 793.50 634.50Q784 654 766 666Q728 694 666 694Q600 694 559 662Q512 625 516 572L591 572Q591 604 613 622Q622 629 637 633Q652 637 669 637Q703 637 716 625Q728 606 728 591"/></svg>
