<svg xmlns="http://www.w3.org/2000/svg" viewBox="0 0 1000 1000"><path fill="#6d8086" d="M537 400L538 400Q578 400 616 409L631 416Q658 429 664 453Q670 474 659 497Q656 507 648 518Q643 524 631 534L625 541Q607 556 567 582L544 597Q536 602 520 612Q491 631 478 644Q475 647 470.50 653Q466 659 462 662Q458 669 457.50 677.50Q457 686 459 694Q466 708 479.50 719Q493 730 510.50 734.50Q528 739 541 729Q554 719 556 700L556 687Q556 675 566 666Q582 654 600 650Q633 643 650 647Q656 647 659 650Q671 655 674 662Q677 669 675 681Q662 733 619 772Q581 805 534 809Q497 814 459 800Q336 753 294 625Q280 578 293 537Q306 496 344 466Q387 426 466 409Q491 403 503 403Q519 400 537 400M578 309Q583 234 644 200Q681 181 719 191Q740 195 748 207Q756 219 752.50 241Q749 263 731 287.50Q713 312 702 324Q684 343 666 353Q646 368 625 372Q610 374 599.50 369Q589 364 584 350Q578 331 578 309M534 256Q534 301 512 331Q508 340 500 344Q493 351 484.50 351Q476 351 469 344Q459 334 453 316Q442 278 450 247Q460 212 497 212Q509 212 517.50 217Q526 222 528 231Q531 234 531 241Q531 250 534 256M406 312L406 322Q406 337 405 345Q403 357 397 366Q392 378 383 379.50Q374 381 363 372Q336 350 331 316L331 294Q334 279 344.50 269Q355 259 369 259Q385 259 394 272Q406 289 406 312M319 413L319 412Q319 422 313 434Q308 448 294 444L291 443L288 441Q269 434 256.50 412.50Q244 391 244 372Q244 361 251 352Q258 343 269 337Q283 333 297 347Q305 355 309 368Q312 375 315 391L316 394Q319 403 319 413"/></svg>
