<svg xmlns="http://www.w3.org/2000/svg" viewBox="0 0 1000 1000"><path fill="#498ba7" d="M493 170Q491 170 490 171L484 175Q438 203 416 220Q379 251 370 279Q367 288 367 295Q367 299 369 308L370 311Q377 335 393 360Q397 368 408.50 382.50Q420 397 421 397Q476 362 504 335L504 258Q504 209 503 194Q502 179 499.50 175Q497 171 493 170M359 300Q356 300 353.50 313Q351 326 341.50 363.50Q332 401 326 420Q322 435 320.50 449Q319 463 322 467Q326 474 428 506Q450 513 457 512.50Q464 512 468 504L469 503Q473 495 472.50 489.50Q472 484 462 469Q454 458 426 420L422 413Q388 367 378.50 351Q369 335 365 314Q361 300 359 300M670 319Q666 319 662 319Q649 321 610 323.50Q571 326 552 327Q536 327 522 330Q508 333 505 337Q500 343 502 450Q502 473 504.50 479.50Q507 486 515 488L517 488Q526 490 531 487.50Q536 485 547 470Q555 460 583 422L588 415Q621 369 633.50 355Q646 341 664 330Q677 323 676 321Q675 319 670 319M699 325Q690 325 684 327Q679 328 672 333L669 334Q648 348 629 371Q623 378 612.50 393.50Q602 409 603 410Q653 452 688 469L761 446Q807 431 821.50 425.50Q836 420 839 416Q842 412 841 408Q840 406 839 406L834 401Q793 366 769 351Q729 325 699 325M169 421Q167 421 166 422Q161 423 160 427Q159 428 159 430L161 436Q174 489 183 515Q201 560 225 577Q233 583 239 585Q243 586 252 587L255 587Q280 588 309 581Q318 579 335.50 572.50Q353 566 353 565Q337 502 320 467L246 443Q179 421 169 421M686 472L685 471Q671 471 578 503Q556 510 550.50 514.50Q545 519 546 528L546 529Q547 538 551 542Q555 546 572 553Q584 557 630 571L637 574Q692 591 709 599Q726 607 742 621Q753 630 755 628.50Q757 627 751.50 615Q746 603 731.50 567Q717 531 711 513Q705 498 698 485.50Q691 473 686 472M455 545Q448 545 430 550Q418 554 376 567L369 570Q314 588 295.50 591.50Q277 595 256 593Q242 592 241 594.50Q240 597 252 603.50Q264 610 296.50 631Q329 652 345 663Q358 671 371 677Q384 683 389 682Q397 680 458 592Q472 573 474 566.50Q476 560 469 554L468 553Q464 548 461.50 546.50Q459 545 455 545M525 567Q522 567 517 569L516 570Q508 573 505.50 578Q503 583 502 601Q501 614 502 662L502 670Q502 727 500 746Q498 765 489 784Q484 797 486 798.50Q488 800 498 791Q508 782 537.50 757.50Q567 733 583 721Q595 711 604.50 700.50Q614 690 614 685Q615 677 551 592Q540 577 534.50 572Q529 567 525 567M647 587Q647 587 647 587Q623 648 617 686L662 748Q690 787 700 799Q710 811 714.50 813Q719 815 723 812Q724 812 724 810L727 804Q748 754 755 727Q767 681 758 652Q755 643 751 638Q748 634 742 628L739 626Q720 611 692 600Q684 597 667 591.50Q650 586 647 587M440 681Q411 682 389 685L344 747Q315 787 306.50 799.50Q298 812 298 817Q298 822 301 825Q302 826 304 826L311 826Q365 831 392 829Q440 827 464 809Q472 803 476 798Q478 794 482 786L483 783Q492 760 494 730Q495 721 494 702.50Q493 684 492 683Q462 681 440 681"/></svg>
