<svg xmlns="http://www.w3.org/2000/svg" viewBox="0 0 1000 1000"><path fill="#498ba7" d="M813 356L813 275Q813 265 806 257.50Q799 250 788 250L559 250L559 194L516 194Q513 194 508 195.50Q503 197 500 197Q489 198 467 203Q445 208 434 209Q391 216 372 222Q328 228 303 234L234 244Q203 250 191 250L188 250L188 747Q200 748 225 753Q250 758 262.50 759.50Q275 761 301.50 765.50Q328 770 340.50 771.50Q353 773 378 778Q403 783 416 784Q447 788 494 800Q503 803 525 803L553 803L553 750Q553 748 553.50 747.50Q554 747 556 747L784 747Q794 747 797 744Q806 744 806 734Q806 731 807.50 726.50Q809 722 809 719L809 356L812 359Q813 359 813 356M469 403L441 525Q437 537 432 562Q428 583 425 594Q425 596 423 596L422 597Q418 599 409 598L403 597L384 597Q382 597 381.50 596.50Q381 596 381 594Q380 584 375 564Q370 544 369 534Q366 522 361 497Q356 472 353 459Q353 462 351.50 468.50Q350 475 350 478L331 572Q331 575 329.50 583Q328 591 328 593.50Q328 596 327.50 596.50Q327 597 325 597Q319 597 306.50 595.50Q294 594 288 594Q285 594 284.50 593.50Q284 593 284 591Q266 491 253 438Q252 433 250 422Q248 411 247 406L247 403L284 403Q287 423 294 464Q303 512 306 537Q306 534 307.50 528Q309 522 309 519Q314 500 322 461Q330 422 334 403Q334 401 334.50 400.50Q335 400 338 400L369 400Q373 400 374.50 401Q376 402 378 406Q397 494 406 541L406 544Q408 531 412.50 506Q417 481 418.50 469.50Q420 458 425 434.50Q430 411 431 400L432 398Q432 397 434 397Q459 397 475 394L478 394Q474 394 471.50 397Q469 400 469 403M791 275Q791 276 791 276L791 275L791 728L556 728L556 672L741 672L741 644L563 644Q560 644 559.50 643.50Q559 643 559 641L559 612Q559 610 559.50 609.50Q560 609 563 609L744 609L744 581L559 581L559 547L741 547Q743 547 743.50 546.50Q744 546 744 544L744 522Q744 520 743.50 519.50Q743 519 741 519L563 519Q560 519 559.50 518.50Q559 518 559 516L559 484L744 484L744 456L566 456Q563 456 562.50 455.50Q562 455 562 453L562 425Q562 423 562.50 422.50Q563 422 566 422L744 422L744 394L559 394L559 356L741 356Q743 356 743.50 355.50Q744 355 744 353L744 331Q744 329 743.50 328.50Q743 328 741 328L556 328L556 281Q556 279 556.50 278.50Q557 278 559 278L788 278L790 273Q791 273 791 275"/></svg>
