<svg xmlns="http://www.w3.org/2000/svg" viewBox="0 0 1000 1000"><path fill="#7fae42" d="M812 291L813 291L813 716Q813 717 811 720Q809 723 809 725Q799 741 784 741L544 741L544 803Q539 802 528 800Q517 798 513 797Q502 795 478.50 790.50Q455 786 443 784.50Q431 783 406 778Q381 773 368.50 771.50Q356 770 331 765.50Q306 761 294.50 759.50Q283 758 259.50 753Q236 748 225 747Q219 745 208 743.50Q197 742 191 741L191 281Q192 281 197 279.50Q202 278 203 278Q230 259 275 253Q287 251 311 246Q329 242 337 241L345 239Q380 234 397 228Q408 227 431.50 222Q455 217 466.50 215.50Q478 214 501.50 209.50Q525 205 538 203L541 203L541 262L784 262Q794 262 802 268.50Q810 275 812 284L812 291M788 706L788 287L541 287L541 325L625 325L625 378L541 378L541 397L625 397L625 450L541 450L541 469L625 469L625 522L541 522L541 544L628 544L628 597L541 597L541 616L625 616L625 669L541 669L541 706L788 706M459 647Q459 646 458.50 645Q458 644 456 644Q445 622 421.50 578Q398 534 387 512L387 506Q419 444 456 378L456 375L453 375Q437 375 431 378Q413 378 400 381Q398 381 397.50 381.50Q397 382 397 384L372 437L353 481Q352 478 350 470Q348 462 347 459L319 391Q316 386 315 385Q314 384 308.50 384Q303 384 290.50 385.50Q278 387 272 387L259 387L259 391L269 412L316 506L316 509Q306 528 285 568Q266 603 256 622Q256 623 254.50 625Q253 627 253 628L272 628Q278 628 289 629.50Q300 631 306 631Q309 631 309 630.50Q309 630 309 628Q328 591 338 569Q339 564 343.50 554.50Q348 545 350 541Q350 534 353 531L353 534Q354 537 356 542.50Q358 548 359 550Q367 566 381 598L394 628L396 631Q399 634 403 634Q411 634 426.50 636Q442 638 450 638Q452 644 454 645.50Q456 647 459 647M650 325L747 325L747 378L650 378L650 325M747 675L650 675L650 622L747 622L747 675M747 528L650 528L650 475L747 475L747 528M650 400L747 400L747 453L650 453L650 400M650 550L747 550L747 603L650 603"/></svg>
