<svg xmlns="http://www.w3.org/2000/svg" viewBox="0 0 1000 1000"><path fill="#cc6d2e" d="M303 300Q412 298 507 356Q597 411 650 503.50Q703 596 700 697L619 697Q616 631 594 576Q572 521 528.50 475Q485 429 427 406Q371 384 306 384Q303 356 303 300M572 700L491 700L481 650Q462 593 425.50 560Q389 527 331 516Q325 512 309 512Q305 512 304 510.50Q303 509 303 506L303 428Q398 428 475 491Q567 574 572 700M413 644Q413 667 396.50 683.50Q380 700 356.50 700Q333 700 317.50 684Q302 668 300 644Q300 620 316.50 603.50Q333 587 356.50 587Q380 587 396.50 603.50Q413 620 413 644"/></svg>
