<svg xmlns="http://www.w3.org/2000/svg" viewBox="0 0 1000 1000"><path fill="#498ba7" d="M375 756Q367 752 363 744Q360 741 359.50 741Q359 741 357 744Q355 747 353.50 753Q352 759 350 763Q343 786 330 794Q317 802 294 797Q288 797 275 791Q256 781 266 763Q266 761 267.50 758Q269 755 269 753Q252 753 247 738Q235 706 239 681.50Q243 657 266 634L268 630Q272 623 272 619Q272 585 279 560Q287 530 306 506Q322 485 344 472Q348 470 348.50 467Q349 464 347 459Q330 438 325 409Q323 401 326 391Q328 384 334 372L338 363Q344 356 347 356Q356 354 371 343L378 338Q409 306 456 306Q461 306 463.50 304.50Q466 303 466 300Q470 281 484 263L494 253Q499 248 504.50 248.50Q510 249 513 256Q519 267 528 287L534 300Q539 308 544 303Q556 298 560 297.50Q564 297 566 300Q568 303 572 316Q596 416 541 503Q539 506 534.50 512.50Q530 519 528 523Q526 527 526.50 530Q527 533 531 538Q552 556 566 581Q580 606 584 634Q589 669 584 703Q582 712 584 713.50Q586 715 594 713Q629 702 656 684L664 680Q682 669 692 665Q707 658 722 656L731 656Q741 654 747.50 656.50Q754 659 758.50 665Q763 671 763 678Q763 692 747 697Q706 705 662.50 736.50Q619 768 559 784Q557 784 553 786Q549 788 547 791Q540 796 532 798Q527 800 516 801L506 803L498 804Q438 809 406 809Q388 809 375 806Q357 800 353 788Q348 769 363 759Q366 759 370 757.50Q374 756 375 756"/></svg>
