<svg xmlns="http://www.w3.org/2000/svg" viewBox="0 0 1000 1000"><path fill="#cc6d2e" d="M258 333L371 300L296 392L258 333M179 300L371 300L317 346L296 392L271 392L271 604L308 604L263 625L229 696L179 696L179 300M196 650L308 604L229 696L196 650M333 392L413 300L438 358L333 392M413 342L413 300L642 300L642 392L333 392L413 342M554 642L663 604L583 696L554 642M354 604L663 604L596 642L583 696L354 696L354 604M600 300L804 208L396 696L192 792L600 300M688 396L767 300L763 375L688 396M767 300L817 300L817 696L621 696L679 646L700 604L725 604L725 396L688 396L729 358L767 300M621 696L700 604L721 667"/></svg>
