<svg xmlns="http://www.w3.org/2000/svg" viewBox="0 0 1000 1000"><path fill="#b8383d" d="M846 813L354 813Q347 813 343 808.50Q339 804 339 798L339 203Q339 197 343 192.50Q347 188 354 188L846 188Q852 188 856.50 192.50Q861 197 861 203L861 798Q861 804 857 808.50Q853 813 846 813M590 567L590 187L610 187L610 567L590 567M595 231L595 210L656 210L656 231L595 231M595 274L595 253L656 253L656 274L595 274M595 318L595 297L656 297L656 318L595 318M595 361L595 340L656 340L656 361L595 361M595 405L595 384L656 384L656 405L595 405M595 448L595 428L656 428L656 448L595 448M595 492L595 471L656 471L656 492L595 492M595 535L595 514L656 514L656 535L595 535M542 251L542 230L604 230L604 251L542 251M542 294L542 274L604 274L604 294L542 294M542 338L542 317L604 317L604 338L542 338M542 382L542 361L604 361L604 382L542 382M542 425L542 404L604 404L604 425L542 425M542 469L542 448L604 448L604 469L542 469M542 512L542 491L604 491L604 512L542 512M542 208L542 187L604 187L604 208L542 208M542 555L542 535L604 535L604 555L542 555M674 695Q672 677 665 641L661 616L660 613Q655 603 641 598Q627 593 600.50 593Q574 593 559.50 598Q545 603 540 613L539 616L535 641Q528 677 526 695Q524 709 535 717.50Q546 726 567 727L633 727Q654 726 665 717.50Q676 709 674 695M601 666L599 666Q584 666 575 659.50Q566 653 565.50 641.50Q565 630 574.50 622.50Q584 615 599 616L601 615Q616 615 625.50 622.50Q635 630 634.50 641.50Q634 653 625 659.50Q616 666 601 666"/></svg>
